<?xml version="1.0" encoding="utf-8"?>
<!-- Generator: Adobe Illustrator 18.1.1, SVG Export Plug-In . SVG Version: 6.00 Build 0)  -->
<!DOCTYPE svg PUBLIC "-//W3C//DTD SVG 1.1//EN" "http://www.w3.org/Graphics/SVG/1.1/DTD/svg11.dtd">
<svg version="1.1" id="Layer_1" xmlns="http://www.w3.org/2000/svg" xmlns:xlink="http://www.w3.org/1999/xlink" x="0px" y="0px"
	 width="1280px" height="709.3px" viewBox="502 -104.3 1280 709.3" style="enable-background:new 502 -104.3 1280 709.3;"
	 xml:space="preserve">
<style type="text/css">
	.st0{fill:url(#SVGID_1_);}
	.st1{fill:#D6F1F2;}
	.st2{fill:url(#SVGID_2_);}
	.st3{fill:url(#SVGID_3_);}
	.st4{fill:url(#SVGID_4_);}
	.st5{fill:#FDD3A1;}
	.st6{fill:#EAB180;}
	.st7{fill:#7A4E25;}
	.st8{fill:#5C3A14;}
	.st9{fill:#9A6433;}
	.st10{fill:#DC9969;}
	.st11{fill:#231F20;}
	.st12{fill:#162B36;}
	.st13{clip-path:url(#SVGID_12_);}
	.st14{clip-path:url(#SVGID_13_);fill:url(#SVGID_15_);}
	.st15{opacity:0.3;fill:url(#SVGID_16_);enable-background:new    ;}
	.st16{clip-path:url(#SVGID_21_);}
	.st17{clip-path:url(#SVGID_22_);fill:url(#SVGID_23_);}
	.st18{opacity:0.3;fill:url(#SVGID_24_);enable-background:new    ;}
	.st19{clip-path:url(#SVGID_29_);}
	.st20{clip-path:url(#SVGID_30_);fill:url(#SVGID_31_);}
	.st21{opacity:0.3;fill:url(#SVGID_32_);enable-background:new    ;}
	.st22{clip-path:url(#SVGID_37_);}
	.st23{clip-path:url(#SVGID_38_);fill:url(#SVGID_39_);}
	.st24{opacity:0.3;fill:url(#SVGID_40_);enable-background:new    ;}
	.st25{fill:#E3A477;}
	.st26{fill:#4E3319;}
	.st27{fill:#6DA15D;}
	.st28{fill:#5B894E;}
	.st29{fill:#87BD71;}
	.st30{fill:#5C8A4E;}
	.st31{fill:#704615;}
	.st32{fill:#675E4F;}
	.st33{fill:#4B4539;}
	.st34{fill:#271400;}
	.st35{fill:#3F2900;}
	.st36{fill:#FFFFFF;}
	.st37{fill:#735022;}
	.st38{fill:#4D340A;}
	.st39{fill:#63BCD2;}
	.st40{fill:#54A9D1;}
	.st41{fill:#4A95B9;}
	.st42{fill:#87C5D3;}
	.st43{fill:#FFEFCC;}
	.st44{fill:#7E8083;}
	.st45{fill:#FFC645;}
	.st46{fill:#161C2D;}
	.st47{fill:#374054;}
	.st48{fill:#B47142;}
	.st49{fill:#448164;}
	.st50{fill:#549A78;}
</style>
<linearGradient id="SVGID_1_" gradientUnits="userSpaceOnUse" x1="1197.2554" y1="1137.6219" x2="1197.2554" y2="838.36" gradientTransform="matrix(1 0 0 1 0 -497.4)">
	<stop  offset="0" style="stop-color:#FFFFFF;stop-opacity:0"/>
	<stop  offset="1" style="stop-color:#D7D7D7"/>
</linearGradient>
<polygon class="st0" points="1908.8,605.5 485.7,605.5 1142.8,458.8 1908.8,458.8 "/>
<g>
	<path class="st1" d="M1118.3,262.6c14.5-21.7,51.9-22.9,74.9-18.1c6-35,54.3-50.7,58-6c12.1-6,27.8-7.2,32.6,7.2
		c15.7-4.8,29.9,5.5,42,16.4C1256.3,262.1,1118.3,262.6,1118.3,262.6z"/>
</g>
<g>
	<path class="st1" d="M1427.9,245.6c0-7.6,31.2-20.9,58.1-20.8l0,0c9-17.3,36.8-21.5,47.5-4.2c0-27.9,27.1-40.7,59.8-29.5
		c17.2,6.2,31.6,22.7,22,44.8c9-0.7,18.9,1.4,22.1,9.7C1565.7,245.6,1427.9,245.6,1427.9,245.6z"/>
</g>
<g>
	<path class="st1" d="M1401.8,167.4c13.7-14.5,39.8-11.6,57.9-12.3l0,0c5.1-14.5,15.9-28.2,31.1-31.9c11.6-2.9,29.6-2.1,32.5,12.3
		c0,0-1.2-36.9,36-36.9c37.1,0,29.2,40.5,29.2,40.5c18.1-13.7,39.1-15.2,52.9,5.1c3.6,5.1,1.5,7.2,7.2,8.6c2.9,1.5,10.9-0.7,15.2,0
		c9.4,1.5,20.3,4.4,27.5,10.9C1650.8,167.4,1401.8,167.4,1401.8,167.4z"/>
</g>
<g>
	
		<linearGradient id="SVGID_2_" gradientUnits="userSpaceOnUse" x1="1254.683" y1="1077.0646" x2="1485.5646" y2="1077.0646" gradientTransform="matrix(1 0 0 1 0 -497.4)">
		<stop  offset="0" style="stop-color:#FFFFFF;stop-opacity:0"/>
		<stop  offset="1" style="stop-color:#F2F2F2"/>
	</linearGradient>
	<polygon class="st2" points="1438.2,553.9 1388.1,590.3 1378.2,590 1370.7,596.5 1325.1,596.3 1331.8,588.3 1321.9,586.9 
		1358.1,565.6 1397.3,556.1 1387.1,554.7 1349.9,559 1301,583.9 1291.7,582.5 1254.7,605.5 1410.7,605.5 1424,591.1 1413,590.2 
		1440.5,565 1477.5,562.3 1485.6,558.9 	"/>
	
		<linearGradient id="SVGID_3_" gradientUnits="userSpaceOnUse" x1="1420.7617" y1="1087.4551" x2="1489.8905" y2="1087.4551" gradientTransform="matrix(1 0 0 1 0 -497.4)">
		<stop  offset="0" style="stop-color:#FFFFFF;stop-opacity:0"/>
		<stop  offset="1" style="stop-color:#F2F2F2"/>
	</linearGradient>
	<polygon class="st3" points="1420.8,605.5 1461.8,605.5 1489.9,574.7 1448.8,574.7 	"/>
	
		<linearGradient id="SVGID_4_" gradientUnits="userSpaceOnUse" x1="1203.1968" y1="1084.1896" x2="1305.236" y2="1084.1896" gradientTransform="matrix(1 0 0 1 0 -497.4)">
		<stop  offset="0" style="stop-color:#FFFFFF;stop-opacity:0"/>
		<stop  offset="1" style="stop-color:#F2F2F2"/>
	</linearGradient>
	<polygon class="st4" points="1203.2,605.5 1244.2,605.5 1305.2,568.1 1264.1,568.1 	"/>
	<g>
		<g>
			<g>
				<g>
					<rect x="1358.8" y="304.6" class="st5" width="120.7" height="94.4"/>
				</g>
			</g>
		</g>
		<path class="st6" d="M1469.7,312.2h-101c-5.4,0-9.8-3.5-9.8-7.8v6c0,4.3,4.4,7.8,9.8,7.8h101c5.4,0,9.8-3.5,9.8-7.8v-6
			C1479.5,308.7,1475.1,312.2,1469.7,312.2z"/>
		<path class="st5" d="M1479.5,304.6c0,5.4-4.4,9.8-9.8,9.8h-101c-5.4,0-9.8-4.4-9.8-9.8V179.1c0-5.4,4.4-9.8,9.8-9.8h101
			c5.4,0,9.8,4.4,9.8,9.8V304.6z"/>
		<path class="st6" d="M1469.7,169.3h-93c18.2,2,37.2,12.9,53.6,19.1c16.8,5.8,35.5,3,49.3-7.2v-2
			C1479.5,173.7,1475.1,169.3,1469.7,169.3z"/>
		<g>
			<g>
				<path class="st7" d="M1383.5,178.6c-6.1-26.4-14.2-25.8-18.4-24.9c0,0,3.1,1.7,2.8,4.7c-18,0-22.9,10.2-22.5,25.9
					c0.9,20.8,12.6,40.2,13.4,61.4c-0.9-33.9,9.2-38.1,9.2-44.9C1359.3,191.4,1369.2,168,1383.5,178.6z"/>
			</g>
			<g>
				<path class="st7" d="M1451.6,175.2c1.1-16.4,21.2-13.8,23.9-13.7c12,0.4,17.9,7.3,17.5,20c-0.9,20.8-12.8,41.6-13.7,62.9
					c-1.1-41.5-10.3-37.2-10.3-44.7C1480.1,185.2,1467.2,166.5,1451.6,175.2z"/>
			</g>
			<g>
				<path class="st8" d="M1370.4,171.1c3.5-1.8,8.2-1,11.5,1.4c-5.9-20.1-13-19.5-16.8-18.7c0,0,3.1,1.7,2.8,4.7
					c-18,0-22.9,10.2-22.5,25.9c0.2,4.5,0.9,9,1.9,13.4c0.9-4.5,2.7-8.7,5.8-12.6C1358,179.3,1363.8,173.5,1370.4,171.1z"/>
			</g>
			<g>
				<path class="st8" d="M1475.6,161.4c-1.4-0.1-7-0.7-12.5,0.7c16.5,4.2,25,22.6,26,40.6c2-7.1,3.6-14.2,3.9-21.2
					C1493.5,168.7,1487.7,161.8,1475.6,161.4z"/>
			</g>
			<g>
				<path class="st7" d="M1383.5,178.6c-26.2-34.9,3.6-64.5,38.3-63c15.3,0.5,25.3,13.1,39,19.5c7.9,3.6,20.5,1.6,22.6-10
					c12.6,27.9-4.3,62.7-45.4,57.1C1427.6,180.8,1389.3,158.7,1383.5,178.6z"/>
			</g>
			<g>
				<path class="st9" d="M1440.3,129.5c8.9,5.1,17.1,11.4,27.9,10.8c8-0.6,15.4-6.8,15.4-14.9c-0.1-0.1-0.1-0.2-0.1-0.3
					c-2.1,11.6-14.8,13.7-22.6,10c-13.7-6.4-23.7-19-39-19.5c-26.8-1.2-50.7,16.2-48.1,40.2c0.4-3.1,1.4-6.3,3.2-9.2
					C1390.9,126.4,1418.1,116.9,1440.3,129.5z"/>
			</g>
		</g>
		<g>
			<path class="st10" d="M1404.6,275.2c5.2,2,11,1.5,16.5,0.8c5.3-0.8,11.5-2,16.1-5.1c0.3-0.2,0.1-0.8-0.3-0.6
				c-4.8,2-9.7,3.6-14.8,4.5c-5.6,1-12,1.9-17.5-0.1C1404.5,274.6,1404.4,275.1,1404.6,275.2L1404.6,275.2z"/>
			<path class="st10" d="M1410.9,298.6c3.4,3.1,5.4-1.4,8.9-1.4c2,0,3.6,1.8,5.3,2.4c1.5,0.5,3.1-0.3,4-1.5c0.2-0.2-0.1-0.4-0.3-0.3
				c-2,1.3-3.3,1.4-5.3,0.2c-1.2-0.7-2.3-1.3-3.6-1.4c-3.3-0.3-5,5.1-8.6,1.9C1411.1,298.1,1410.8,298.4,1410.9,298.6L1410.9,298.6z
				"/>
		</g>
		<g>
			<g>
				<circle class="st5" cx="1486.2" cy="241.8" r="9.8"/>
				<path class="st6" d="M1477.1,245.6c1.4,3.6,5,6.1,9.1,6.1c5.4,0,9.8-4.4,9.8-9.8C1491.6,251.7,1482.6,250.1,1477.1,245.6z"/>
			</g>
			<path class="st6" d="M1481.2,244.3c1.3-1.1,2.4-2.3,3.8-3.1c1.5-0.8,3.2-1.1,4.8-1.8c0.3-0.2,0.1-0.6-0.2-0.6
				c-3.3-0.3-7.8,2-8.9,5.2C1480.6,244.3,1481,244.5,1481.2,244.3L1481.2,244.3z"/>
			<path class="st6" d="M1482.7,242.8c1.2-0.2,2.4-0.2,3.6-0.1c1.2,0.1,2.2,0.6,3.3,0.9c0.3,0.1,0.4-0.3,0.3-0.4
				c-1.9-2-4.9-1.4-7.2-0.8C1482.3,242.4,1482.4,242.8,1482.7,242.8L1482.7,242.8z"/>
		</g>
		<g>
			<g>
				<circle class="st5" cx="1352.9" cy="241.8" r="9.8"/>
				<path class="st6" d="M1362,245.6c-1.4,3.6-5,6.1-9.1,6.1c-5.4,0-9.8-4.4-9.8-9.8C1346.5,251.5,1356.5,252,1362,245.6z"/>
			</g>
			<path class="st6" d="M1358.4,244c-1.1-3.2-5.6-5.4-8.9-5.2c-0.3,0-0.5,0.4-0.2,0.6c1.4,0.6,2.9,0.9,4.2,1.6
				c1.7,0.8,2.9,2.1,4.3,3.3C1358.1,244.5,1358.5,244.3,1358.4,244L1358.4,244z"/>
			<path class="st6" d="M1356.6,242.3c-2.3-0.6-5.3-1.1-7.2,0.8c-0.2,0.2,0,0.5,0.3,0.4c1.1-0.3,2.1-0.8,3.3-0.9
				c1.2-0.2,2.5-0.1,3.6,0.1C1356.7,242.8,1356.8,242.4,1356.6,242.3L1356.6,242.3z"/>
		</g>
		<g>
			<path class="st5" d="M1401.1,429.5l-36.1-22.7c-2.7,20.8,0.7,48.7,5.4,74c-1.1,1.2-1.9,2.7-1.9,4.5c0,2.6,1.6,4.9,3.9,5.9
				c6.2,29.9,13.6,53.9,13.6,53.9l8.8,0.6C1394.9,545.7,1383.3,475,1401.1,429.5z"/>
			<g>
				<path class="st6" d="M1393.8,457.7c-7.7,0-15.4,0.3-23.1,2c6.7,2.4,14,3.4,15.2,8.8c3.5,26,1,52.5,8.9,77.1
					C1394.6,543.6,1387.4,498.5,1393.8,457.7z"/>
			</g>
		</g>
		<g>
			<path class="st5" d="M1466.4,481.2c5.3-25.2,9-53,6.3-73.7l-36.1,22.7c17.8,45.5,3.9,114.8,3.9,114.8h8.9c0,0,7.9-23.5,14.7-53.1
				c2.6-0.8,4.5-3.2,4.5-6.1C1468.5,484,1467.7,482.3,1466.4,481.2z"/>
			<g>
				<path class="st6" d="M1447.7,458.6L1447.7,458.6c-1.4,0.1-2.6,0.3-4,0.5c5.7,41.1-3.3,85.9-3.3,85.9l1.1-0.3
					c2-12.5,10-41.3,7-73.9c-0.5-5.3,21.7-8.7,21.6-9.8C1470,460.2,1447.8,459.5,1447.7,458.6z"/>
			</g>
		</g>
		<g>
			<g>
				<path class="st11" d="M1484.3,216.3c-12.8-4.7-33.1-4.8-47.2-1.9c-2.4,0.5-10.9,3.2-11.6,3.5c-2,0.6-3.9,0.8-5.8,0.9l0,0
					c-0.3,0-0.6,0-0.8,0s-0.6,0-0.8,0l0,0c-2,0-3.8-0.3-5.8-0.9c-0.7-0.3-9.2-3-11.6-3.5c-14.2-3-34.4-2.9-47.2,1.9
					c0.1,3.4-0.8,7.7,0,11.2c0.4,1.7,2.5,3.6,3.5,5.3c3,5.2,4.6,13.3,8.6,17.3c4.9,5,16.1,5.4,25.3,4.9c13.6-0.8,17-7.8,21.4-17.9
					c1.4-3.4,2.5-8,6-8.6l0,0c0.3-0.1,0.6-0.1,0.8-0.1c0.3,0,0.5,0,0.8,0.1l0,0c3.4,0.6,4.5,5.2,6,8.6c4.3,10.1,7.8,17.1,21.4,17.9
					c9.2,0.6,20.4,0.1,25.3-4.9c3.9-4,5.6-12.1,8.6-17.3c0.9-1.6,3.1-3.6,3.5-5.3C1485.1,224.1,1484.2,219.7,1484.3,216.3z
					 M1408.1,236.9c-1.8,6.2-4.2,10.6-8.6,13.1c-6.5,3.6-22.7,4-29.2,0c-4.4-2.7-6-7.8-7.1-14.5c-0.8-4.4-1.3-10.6,0.6-13.5
					c3.2-4.9,17.2-5.1,25.7-4.5c8,0.6,18,2.5,19.6,7.7C1410.2,228.9,1409,233.9,1408.1,236.9z M1474.3,235.5
					c-1.1,6.6-2.7,11.7-7.1,14.5c-6.4,4-22.6,3.6-29.2,0c-4.4-2.5-6.8-6.9-8.6-13.1c-0.8-3-2.1-8-1-11.6c1.5-5.3,11.6-7.2,19.6-7.7
					c8.5-0.6,22.5-0.5,25.7,4.5C1475.6,224.9,1475,231.1,1474.3,235.5z"/>
				<g>
					<path class="st12" d="M1448,217.6c-8,0.6-18,2.5-19.6,7.7c-1.1,3.6,0.2,8.7,1,11.6c1.8,6.2,4.2,10.6,8.6,13.1
						c6.5,3.6,22.7,4,29.2,0c4.4-2.7,6-7.8,7.1-14.5c0.8-4.4,1.3-10.6-0.6-13.5C1470.5,217.1,1456.5,217,1448,217.6z"/>
					<path class="st12" d="M1389.5,217.6c-8.5-0.6-22.5-0.5-25.7,4.5c-1.9,2.9-1.4,9.1-0.6,13.5c1.1,6.6,2.7,11.7,7.1,14.5
						c6.4,4,22.6,3.6,29.2,0c4.4-2.5,6.8-6.9,8.6-13.1c0.8-3,2.1-8,1-11.6C1407.5,220,1397.5,218.1,1389.5,217.6z"/>
				</g>
				<g>
					<g>
						<g>
							<g>
								<g>
									<defs>
										<polygon id="SVGID_6_" points="510.6,-63.2 511.4,-63.2 510.6,-62.3 										"/>
									</defs>
									<clipPath id="SVGID_7_">
										<use xlink:href="#SVGID_6_"  style="overflow:visible;"/>
									</clipPath>
								</g>
								<g>
									<defs>
										<polygon id="SVGID_9_" points="510.6,-63.2 511.4,-63.2 510.6,-62.3 										"/>
									</defs>
									<defs>
										<polygon id="SVGID_10_" points="508.9,-64.9 508,-64.9 508.9,-65.7 										"/>
									</defs>
									<clipPath id="SVGID_12_">
										<use xlink:href="#SVGID_9_"  style="overflow:visible;"/>
									</clipPath>
									<clipPath id="SVGID_13_" class="st13">
										<use xlink:href="#SVGID_10_"  style="overflow:visible;"/>
									</clipPath>
									
										<linearGradient id="SVGID_15_" gradientUnits="userSpaceOnUse" x1="1388.5891" y1="714.5948" x2="1370.2881" y2="747.3384" gradientTransform="matrix(1 0 0 1 0 -497.4)">
										<stop  offset="0" style="stop-color:#FFFFFF"/>
										<stop  offset="8.569065e-02" style="stop-color:#F4F4F4"/>
										<stop  offset="0.2341" style="stop-color:#D8D8D8"/>
										<stop  offset="0.4275" style="stop-color:#AAAAAA"/>
										<stop  offset="0.6585" style="stop-color:#6B6B6B"/>
										<stop  offset="0.9184" style="stop-color:#1B1B1B"/>
										<stop  offset="1" style="stop-color:#000000"/>
									</linearGradient>
									<path class="st14" d="M1389.5,217.5c-2.8-0.2-6.3-0.3-9.8-0.2l-14.6,26c1.1,2.8,2.7,5,5.1,6.5c1.9,1.2,4.5,2,7.5,2.4
										l18.9-33.9C1394.4,218,1391.8,217.7,1389.5,217.5z"/>
								</g>
							</g>
						</g>
						
							<linearGradient id="SVGID_16_" gradientUnits="userSpaceOnUse" x1="1388.5891" y1="714.5948" x2="1370.2881" y2="747.3384" gradientTransform="matrix(1 0 0 1 0 -497.4)">
							<stop  offset="0" style="stop-color:#E1F3FC"/>
							<stop  offset="0.4445" style="stop-color:#EBF7FD"/>
							<stop  offset="1" style="stop-color:#FFFFFF"/>
						</linearGradient>
						<path class="st15" d="M1389.5,217.5c-2.8-0.2-6.3-0.3-9.8-0.2l-14.6,26c1.1,2.8,2.7,5,5.1,6.5c1.9,1.2,4.5,2,7.5,2.4
							l18.9-33.9C1394.4,218,1391.8,217.7,1389.5,217.5z"/>
						<g>
							<g>
								<g>
									<defs>
										<polygon id="SVGID_17_" points="510.6,-63.2 511.4,-63.2 510.6,-62.3 										"/>
									</defs>
									<clipPath id="SVGID_18_">
										<use xlink:href="#SVGID_17_"  style="overflow:visible;"/>
									</clipPath>
								</g>
								<g>
									<defs>
										<polygon id="SVGID_19_" points="510.6,-63.2 511.4,-63.2 510.6,-62.3 										"/>
									</defs>
									<defs>
										<polygon id="SVGID_20_" points="508.9,-64.9 508,-64.9 508.9,-65.7 										"/>
									</defs>
									<clipPath id="SVGID_21_">
										<use xlink:href="#SVGID_19_"  style="overflow:visible;"/>
									</clipPath>
									<clipPath id="SVGID_22_" class="st16">
										<use xlink:href="#SVGID_20_"  style="overflow:visible;"/>
									</clipPath>
									
										<linearGradient id="SVGID_23_" gradientUnits="userSpaceOnUse" x1="1362.5602" y1="733.7533" x2="1409.5201" y2="733.7533" gradientTransform="matrix(1 0 0 1 0 -497.4)">
										<stop  offset="0" style="stop-color:#FFFFFF"/>
										<stop  offset="8.569065e-02" style="stop-color:#F4F4F4"/>
										<stop  offset="0.2341" style="stop-color:#D8D8D8"/>
										<stop  offset="0.4275" style="stop-color:#AAAAAA"/>
										<stop  offset="0.6585" style="stop-color:#6B6B6B"/>
										<stop  offset="0.9184" style="stop-color:#1B1B1B"/>
										<stop  offset="1" style="stop-color:#000000"/>
									</linearGradient>
									<path class="st17" d="M1402.4,219.9l-18.4,33c0.9,0,1.8,0,2.7,0l17.9-32C1403.8,220.4,1403.1,220.1,1402.4,219.9z"/>
								</g>
							</g>
						</g>
						
							<linearGradient id="SVGID_24_" gradientUnits="userSpaceOnUse" x1="1362.5602" y1="733.7533" x2="1409.5201" y2="733.7533" gradientTransform="matrix(1 0 0 1 0 -497.4)">
							<stop  offset="0" style="stop-color:#E1F3FC"/>
							<stop  offset="0.4445" style="stop-color:#EBF7FD"/>
							<stop  offset="1" style="stop-color:#FFFFFF"/>
						</linearGradient>
						<path class="st18" d="M1402.4,219.9l-18.4,33c0.9,0,1.8,0,2.7,0l17.9-32C1403.8,220.4,1403.1,220.1,1402.4,219.9z"/>
					</g>
					<g>
						<g>
							<g>
								<g>
									<defs>
										<polygon id="SVGID_25_" points="510.6,-63.2 511.4,-63.2 510.6,-62.3 										"/>
									</defs>
									<clipPath id="SVGID_26_">
										<use xlink:href="#SVGID_25_"  style="overflow:visible;"/>
									</clipPath>
								</g>
								<g>
									<defs>
										<polygon id="SVGID_27_" points="510.6,-63.2 511.4,-63.2 510.6,-62.3 										"/>
									</defs>
									<defs>
										<polygon id="SVGID_28_" points="508.9,-64.9 508,-64.9 508.9,-65.7 										"/>
									</defs>
									<clipPath id="SVGID_29_">
										<use xlink:href="#SVGID_27_"  style="overflow:visible;"/>
									</clipPath>
									<clipPath id="SVGID_30_" class="st19">
										<use xlink:href="#SVGID_28_"  style="overflow:visible;"/>
									</clipPath>
									
										<linearGradient id="SVGID_31_" gradientUnits="userSpaceOnUse" x1="1436.4298" y1="746.6755" x2="1455.777" y2="713.7133" gradientTransform="matrix(1 0 0 1 0 -497.4)">
										<stop  offset="0" style="stop-color:#FFFFFF"/>
										<stop  offset="8.569065e-02" style="stop-color:#F4F4F4"/>
										<stop  offset="0.2341" style="stop-color:#D8D8D8"/>
										<stop  offset="0.4275" style="stop-color:#AAAAAA"/>
										<stop  offset="0.6585" style="stop-color:#6B6B6B"/>
										<stop  offset="0.9184" style="stop-color:#1B1B1B"/>
										<stop  offset="1" style="stop-color:#000000"/>
									</linearGradient>
									<path class="st20" d="M1448,217.5c-0.7,0.1-1.4,0.1-2.1,0.2l-14.2,25.2c1.5,3.1,3.6,5.5,6.4,7c1.5,0.8,3.6,1.5,6,2
										l19.3-34.2C1458.3,217.1,1452.4,217.2,1448,217.5z"/>
								</g>
							</g>
						</g>
						
							<linearGradient id="SVGID_32_" gradientUnits="userSpaceOnUse" x1="1436.4298" y1="746.6755" x2="1455.777" y2="713.7133" gradientTransform="matrix(1 0 0 1 0 -497.4)">
							<stop  offset="0" style="stop-color:#E1F3FC"/>
							<stop  offset="0.4445" style="stop-color:#EBF7FD"/>
							<stop  offset="1" style="stop-color:#FFFFFF"/>
						</linearGradient>
						<path class="st21" d="M1448,217.5c-0.7,0.1-1.4,0.1-2.1,0.2l-14.2,25.2c1.5,3.1,3.6,5.5,6.4,7c1.5,0.8,3.6,1.5,6,2l19.3-34.2
							C1458.3,217.1,1452.4,217.2,1448,217.5z"/>
						<g>
							<g>
								<g>
									<defs>
										<polygon id="SVGID_33_" points="510.6,-63.2 511.4,-63.2 510.6,-62.3 										"/>
									</defs>
									<clipPath id="SVGID_34_">
										<use xlink:href="#SVGID_33_"  style="overflow:visible;"/>
									</clipPath>
								</g>
								<g>
									<defs>
										<polygon id="SVGID_35_" points="510.6,-63.2 511.4,-63.2 510.6,-62.3 										"/>
									</defs>
									<defs>
										<polygon id="SVGID_36_" points="508.9,-64.9 508,-64.9 508.9,-65.7 										"/>
									</defs>
									<clipPath id="SVGID_37_">
										<use xlink:href="#SVGID_35_"  style="overflow:visible;"/>
									</clipPath>
									<clipPath id="SVGID_38_" class="st22">
										<use xlink:href="#SVGID_36_"  style="overflow:visible;"/>
									</clipPath>
									
										<linearGradient id="SVGID_39_" gradientUnits="userSpaceOnUse" x1="1469.9513" y1="716.6781" x2="1451.4645" y2="750.2126" gradientTransform="matrix(1 0 0 1 0 -497.4)">
										<stop  offset="0" style="stop-color:#FFFFFF"/>
										<stop  offset="8.569065e-02" style="stop-color:#F4F4F4"/>
										<stop  offset="0.2341" style="stop-color:#D8D8D8"/>
										<stop  offset="0.4275" style="stop-color:#AAAAAA"/>
										<stop  offset="0.6585" style="stop-color:#6B6B6B"/>
										<stop  offset="0.9184" style="stop-color:#1B1B1B"/>
										<stop  offset="1" style="stop-color:#000000"/>
									</linearGradient>
									<path class="st23" d="M1469,218.9l-19.1,33.8c0.9,0.1,1.9,0.1,2.7,0.1l18.6-32.9C1470.6,219.5,1469.9,219.3,1469,218.9z"/>
								</g>
							</g>
						</g>
						
							<linearGradient id="SVGID_40_" gradientUnits="userSpaceOnUse" x1="1469.9513" y1="716.6781" x2="1451.4645" y2="750.2126" gradientTransform="matrix(1 0 0 1 0 -497.4)">
							<stop  offset="0" style="stop-color:#E1F3FC"/>
							<stop  offset="0.4445" style="stop-color:#EBF7FD"/>
							<stop  offset="1" style="stop-color:#FFFFFF"/>
						</linearGradient>
						<path class="st24" d="M1469,218.9l-19.1,33.8c0.9,0.1,1.9,0.1,2.7,0.1l18.6-32.9C1470.6,219.5,1469.9,219.3,1469,218.9z"/>
					</g>
				</g>
			</g>
		</g>
		<g>
			<path class="st25" d="M1419.5,252.3c0,0-0.1,6.4,6.1,5.3c3.1-0.6,4.2-4.1,1.6-6.2c0,0-5.9,1.4-8-1.3L1419.5,252.3z"/>
			<g>
				<path class="st10" d="M1418.1,234.3c-0.4,2.5-0.3,5.3,1.9,7c2.3,1.9,6.4-0.3,9.1,0.3c4.5,0.9,3.5,5.3,0.9,7.6
					c-3.1,2.7-7,2.6-10.4,0.8c-0.3-0.2-0.6,0.2-0.3,0.4c4.2,4.2,12.2,1.1,13.9-4.2c0.8-2.5-1-4.3-3.1-5.3c-1.5-0.7-3.1-0.4-4.8-0.2
					c-1.7,0.3-3.3,0.6-4.9-0.1c-2.4-1-1.8-4.3-2-6.3C1418.4,234.1,1418.1,234,1418.1,234.3L1418.1,234.3z"/>
			</g>
			<path class="st5" d="M1430.3,249.3c2.6-2.4,3.6-6.9-1-7.8c-2.7-0.6-7,1.6-9.3-0.3c-0.8-0.6-1.3-1.3-1.6-2.1
				c-0.8,4-0.5,8.1,1.4,11.3C1423.4,251.9,1427.3,252,1430.3,249.3z"/>
		</g>
		<g>
			<path class="st26" d="M1437.4,207.9c-1,7.2,12.8-2,29.9,3.2C1465.5,206.5,1439.3,199.4,1437.4,207.9z"/>
		</g>
		<g>
			<path class="st26" d="M1401,207.9c1,7.2-12.8-2-29.9,3.2C1372.9,206.5,1399.2,199.4,1401,207.9z"/>
		</g>
		<g>
			<path class="st27" d="M1479.5,399c0,20.5,3.8,62,3.8,62c-19.7,0-50.6,0-50.6,0c0.8-4.9-2-26.3-2-26.3h-22.9c0,0-2.9,21.4-2,26.3
				c0,0-31,0-50.6,0c0,0,3.8-41.5,3.8-62"/>
		</g>
		<g>
			<path class="st28" d="M1387.3,461.1c2.5,0,18.4,0,18.4,0c-0.8-4.9,2-26.3,2-26.3l-1.3,0.1c-3,7.2-3.4,15.2-4.3,23
				C1401.8,460.6,1387.3,461.1,1387.3,461.1z"/>
		</g>
		<g>
			<path class="st28" d="M1430.7,434.8c0,0,2.9,21.4,2,26.3c0,0,22.5,0,25.5,0c0,0-20.1,0-20.8-2.7c-2-7.7-1.7-15.5-4.5-23.2
				L1430.7,434.8z"/>
		</g>
		<g>
			<path class="st29" d="M1359.3,399h-0.4c0,20.5-3.8,62-3.8,62c0.8,0,1.5,0,2.3,0C1360.4,440.4,1362.2,419.7,1359.3,399z"/>
		</g>
		<g>
			<path class="st29" d="M1479.5,399h-0.3c-2.3,20.8-1.7,41.6,1.1,62c1,0,2,0,3,0C1483.4,461.1,1479.5,419.5,1479.5,399z"/>
		</g>
		<g>
			<g>
				<g>
					<polygon class="st30" points="1419.2,399 1413.1,417.2 1358.8,399 1413.1,426.1 1419.2,407.9 1428.1,426.1 1479.5,399 
						1428.1,417.2 					"/>
				</g>
			</g>
		</g>
		<g>
			<g>
				<path class="st5" d="M1359.1,316.7c-33.5,24.9-52.2,47.8-52.2,89.8c-7.5,7.5-5.8,12.9-4.8,16.9c1.3,5.6,10.2,5.6,10.2,5.6
					l0.1-12.5c0-2,1.6-3.6,3.6-3.6c2,0,3.6,1.6,3.6,3.6c0,0,0,6.1,0,6.3c2-1.2,4.4-1.1,5.8-3c1-1.6,0.7-5.5-0.3-7
					c-1.4-2-2.9-4.7-6.4-7.5c0-34.8,19.8-61.4,43.2-77.8"/>
			</g>
			<g>
				<path class="st6" d="M1329.9,352c0-1.2-1.8-3.4-3.7-5c8.4-10.7,19.5-20.3,32.9-30.3l2.6,10.7c-16.6,11.6-32.7,29.7-39.6,52.9
					c-2.3,7.7-3.5,15.7-3.6,24.9C1314,380.2,1328.1,365.9,1329.9,352z"/>
			</g>
			<g>
				<path class="st6" d="M1322.5,421.6c-0.9,0.3-2,0.6-3,1.1c0-0.1,0-6.3,0-6.3c0-2-1.5-3.6-3.5-3.6
					C1320.1,411.9,1320,417.8,1322.5,421.6z"/>
			</g>
			<g>
				<path class="st6" d="M1309.4,426.8c0-4.1-1.6-9.1,1.6-12.3c0.4-0.4,1.1-0.4,2-0.3c0,0.1-0.1,0.1-0.1,0.2c-0.1,0-0.1,0.1-0.2,0.1
					c0.1,0,0.1-0.1,0.2-0.1c-0.4,0.6-0.7,1.4-0.7,2.1l-0.1,12.5c0,0-8.8,0-10.2-5.6c-0.3-1.2-0.7-2.6-0.8-4.2
					C1302.4,423.1,1305.1,426.1,1309.4,426.8z"/>
			</g>
			<g>
				<path class="st31" d="M1319.4,368.7c0,0-0.1-0.1-0.3-0.3c-0.2-0.2-0.4-0.3-0.7-0.6c-0.2-0.1-0.3-0.3-0.5-0.3
					c-0.2-0.1-0.4-0.3-0.6-0.3c-0.2-0.1-0.4-0.3-0.7-0.3l-0.3-0.2l-0.3-0.1c-0.3-0.1-0.5-0.2-0.7-0.2c-0.3-0.1-0.5-0.1-0.7-0.1
					c-0.3,0-0.4,0-0.7-0.1c-0.3,0-0.4,0-0.6,0s-0.3,0-0.5,0c-0.2,0-0.3,0-0.4,0.1c-0.3,0-0.3,0-0.3,0s0.1,0,0.3-0.1
					c0.1,0,0.3-0.1,0.4-0.1c0.2-0.1,0.3-0.1,0.5-0.1s0.4-0.1,0.6-0.1c0.3,0,0.4,0,0.7,0s0.5,0,0.8,0.1c0.3,0.1,0.5,0.1,0.8,0.2
					c0.3,0.1,0.5,0.2,0.8,0.3c0.3,0.1,0.4,0.3,0.7,0.3c0.4,0.3,0.8,0.6,1,0.8c0.3,0.3,0.5,0.5,0.7,0.7
					C1319.4,368.5,1319.4,368.7,1319.4,368.7z"/>
				<path class="st31" d="M1318.3,370.8c0,0-0.1-0.1-0.3-0.3c-0.2-0.2-0.4-0.3-0.7-0.6c-0.2-0.1-0.3-0.3-0.5-0.3
					c-0.2-0.1-0.4-0.3-0.6-0.3c-0.2-0.1-0.4-0.3-0.7-0.3l-0.3-0.2l-0.3-0.1c-0.3-0.1-0.5-0.2-0.7-0.2c-0.3-0.1-0.5-0.1-0.7-0.1
					c-0.3,0-0.4,0-0.7-0.1c-0.3,0-0.4,0-0.6,0c-0.2,0-0.3,0-0.5,0c-0.2,0-0.3,0-0.4,0.1c-0.3,0-0.3,0-0.3,0s0.1,0,0.3-0.1
					c0.1,0,0.3-0.1,0.4-0.1c0.2-0.1,0.3-0.1,0.5-0.1s0.4-0.1,0.6-0.1c0.3,0,0.4,0,0.7,0c0.3,0,0.5,0,0.8,0.1
					c0.3,0.1,0.5,0.1,0.8,0.2c0.3,0.1,0.5,0.2,0.8,0.3c0.3,0.1,0.4,0.3,0.7,0.3c0.4,0.3,0.8,0.6,1,0.8s0.5,0.5,0.7,0.7
					C1318.2,370.8,1318.3,370.8,1318.3,370.8z"/>
				<path class="st31" d="M1317.3,373.3c0,0-0.1-0.1-0.3-0.3s-0.4-0.3-0.7-0.6c-0.2-0.1-0.3-0.3-0.5-0.3c-0.2-0.1-0.4-0.3-0.6-0.3
					c-0.2-0.1-0.4-0.3-0.7-0.3l-0.3-0.2l-0.3-0.1c-0.3-0.1-0.5-0.2-0.7-0.2c-0.3-0.1-0.5-0.1-0.7-0.1c-0.3,0-0.4,0-0.7-0.1
					c-0.3,0-0.4,0-0.6,0c-0.2,0-0.3,0-0.5,0c-0.2,0-0.3,0-0.4,0.1c-0.3,0-0.3,0-0.3,0s0.1,0,0.3-0.1c0.1,0,0.3-0.1,0.3-0.1
					c0.2-0.1,0.3-0.1,0.5-0.1c0.2,0,0.4-0.1,0.6-0.1c0.3,0,0.4,0,0.7,0s0.5,0,0.8,0.1c0.3,0.1,0.5,0.1,0.8,0.2
					c0.3,0.1,0.5,0.2,0.8,0.3c0.3,0.1,0.4,0.3,0.7,0.3c0.4,0.3,0.8,0.6,1,0.8s0.5,0.5,0.7,0.7
					C1317.2,373.2,1317.3,373.3,1317.3,373.3z"/>
			</g>
			<path class="st10" d="M1307.1,412.7c-1.3,2.9-2.1,6.2-1.4,9.4c0.6,2.8,3.7,4.7,6.4,3.7c0.2-0.1,0.2-0.3,0-0.3
				c-1.4-0.3-2.7-0.2-4.1-0.9c-1.4-0.8-1.9-2.5-2-4c-0.3-2.6,0.4-5.3,1.4-7.7C1307.6,412.6,1307.2,412.4,1307.1,412.7L1307.1,412.7z
				"/>
		</g>
		<g>
			<g>
				<path class="st5" d="M1477.6,313.2c33.5,24.9,52.2,47.8,52.2,89.8c7.5,7.5,5.8,12.9,4.8,16.9c-1.3,5.6-10.2,5.6-10.2,5.6
					l-0.1-12.5c0-2-1.6-3.6-3.6-3.6c-2,0-3.6,1.6-3.6,3.6c0,0,0,6.1,0,6.3c-2-1.2-4.4-1.1-5.8-3c-1-1.6-0.7-5.5,0.3-7
					c1.4-2,2.9-4.7,6.4-7.5c0-34.8-19.8-61.4-43.2-77.8"/>
			</g>
			<g>
				<path class="st6" d="M1514.1,418.1c0.9,0.3,2,0.6,3,1.1c0-0.1,0-6.3,0-6.3c0-2,1.5-3.6,3.5-3.6
					C1516.5,408.4,1516.6,414.3,1514.1,418.1z"/>
			</g>
			<g>
				<path class="st6" d="M1527.2,423.3c0-4.1,1.6-9.1-1.6-12.3c-0.4-0.4-1.1-0.4-2-0.3c0,0.1,0.1,0.1,0.1,0.2c0.1,0,0.1,0.1,0.2,0.1
					c-0.1,0-0.1-0.1-0.2-0.1c0.4,0.6,0.7,1.4,0.7,2.1l0.1,12.5c0,0,8.8,0,10.2-5.6c0.3-1.2,0.7-2.6,0.8-4.2
					C1534.2,419.6,1531.6,422.6,1527.2,423.3z"/>
			</g>
			<g>
				<path class="st6" d="M1507.4,351.2c0.1-1.7,4.2-6.4,4.2-6.4s-0.4-0.6-1-1.4c-8.4-10.7-19.5-20.3-32.9-30.3l-2.6,10.7
					c16.6,11.6,32.7,29.7,39.6,52.9c2.3,7.7,3.5,15.7,3.6,24.9C1522.7,376.6,1509.2,365.1,1507.4,351.2z"/>
			</g>
			<path class="st10" d="M1529.2,409.3c1,2.5,1.6,5,1.4,7.7c-0.1,1.5-0.8,3.1-2,4c-1.2,0.9-2.7,0.7-4.1,0.9c-0.2,0-0.2,0.3,0,0.3
				c2.7,1,5.4-0.8,6.4-3.3c1.2-3.1,0-7-1.3-9.8C1529.4,408.9,1529,409.1,1529.2,409.3L1529.2,409.3z"/>
			<g>
				<path class="st31" d="M1519.1,369.4c0,0,0.1-0.1,0.3-0.3c0.2-0.2,0.4-0.3,0.7-0.6c0.2-0.1,0.3-0.3,0.5-0.3
					c0.2-0.1,0.4-0.3,0.6-0.3c0.2-0.1,0.4-0.3,0.7-0.3l0.3-0.2l0.3-0.1c0.3-0.1,0.5-0.2,0.7-0.2c0.3-0.1,0.5-0.1,0.7-0.1
					c0.3,0,0.4,0,0.7-0.1c0.3,0,0.4,0,0.6,0c0.2,0,0.3,0,0.5,0s0.3,0,0.4,0.1c0.3,0,0.3,0,0.3,0s-0.1,0-0.3-0.1
					c-0.1,0-0.3-0.1-0.4-0.1c-0.2-0.1-0.3-0.1-0.5-0.1c-0.2,0-0.4-0.1-0.6-0.1c-0.3,0-0.4,0-0.7,0c-0.3,0-0.5,0-0.8,0.1
					c-0.3,0.1-0.5,0.1-0.8,0.2c-0.3,0.1-0.5,0.2-0.8,0.3s-0.4,0.3-0.7,0.3c-0.4,0.3-0.8,0.6-1,0.8c-0.3,0.3-0.5,0.5-0.7,0.7
					C1519.1,369.2,1519.1,369.4,1519.1,369.4z"/>
				<path class="st31" d="M1520.2,371.5c0,0,0.1-0.1,0.3-0.3c0.2-0.2,0.4-0.3,0.7-0.6c0.2-0.1,0.3-0.3,0.5-0.3
					c0.2-0.1,0.4-0.3,0.6-0.3c0.2-0.1,0.4-0.3,0.7-0.3l0.3-0.2l0.3-0.1c0.3-0.1,0.5-0.2,0.7-0.2c0.3-0.1,0.5-0.1,0.7-0.1
					c0.3,0,0.4,0,0.7-0.1c0.3,0,0.4,0,0.6,0c0.2,0,0.3,0,0.5,0s0.3,0,0.4,0.1c0.3,0,0.3,0,0.3,0s-0.1,0-0.3-0.1
					c-0.1,0-0.3-0.1-0.4-0.1c-0.2-0.1-0.3-0.1-0.5-0.1c-0.2,0-0.4-0.1-0.6-0.1c-0.3,0-0.4,0-0.7,0s-0.5,0-0.8,0.1
					c-0.3,0.1-0.5,0.1-0.8,0.2c-0.3,0.1-0.5,0.2-0.8,0.3c-0.3,0.1-0.4,0.3-0.7,0.3c-0.4,0.3-0.8,0.6-1,0.8s-0.5,0.5-0.7,0.7
					C1520.2,371.4,1520.2,371.5,1520.2,371.5z"/>
				<path class="st31" d="M1521.2,374c0,0,0.1-0.1,0.3-0.3c0.2-0.2,0.4-0.3,0.7-0.6c0.2-0.1,0.3-0.3,0.5-0.3
					c0.2-0.1,0.4-0.3,0.6-0.3c0.2-0.1,0.4-0.3,0.7-0.3l0.3-0.2l0.3-0.1c0.3-0.1,0.5-0.2,0.7-0.2c0.3-0.1,0.5-0.1,0.7-0.1
					c0.3,0,0.4,0,0.7-0.1c0.3,0,0.4,0,0.6,0c0.2,0,0.3,0,0.5,0s0.3,0,0.4,0.1c0.3,0,0.3,0,0.3,0s-0.1,0-0.3-0.1
					c-0.1,0-0.3-0.1-0.3-0.1c-0.2-0.1-0.3-0.1-0.5-0.1s-0.4-0.1-0.6-0.1c-0.3,0-0.4,0-0.7,0s-0.5,0-0.8,0.1
					c-0.3,0.1-0.5,0.1-0.8,0.2c-0.3,0.1-0.5,0.2-0.8,0.3c-0.3,0.1-0.4,0.3-0.7,0.3c-0.4,0.3-0.8,0.6-1,0.8c-0.3,0.3-0.5,0.5-0.7,0.7
					C1521.3,373.9,1521.2,374,1521.2,374z"/>
			</g>
		</g>
		<g>
			<path class="st32" d="M1500.2,534.4V439c0-5.4,4.4-9.8,9.8-9.8h21.6c5.4,0,9.8,4.2,9.8,9.8v95.3H1500.2z"/>
			<path class="st33" d="M1500.2,524.8v9.6h41.3v-8.7C1527.6,523.9,1514.1,522,1500.2,524.8z"/>
			<path class="st34" d="M1517,429.3v-16.2c0-2.1,1.7-3.7,3.7-3.7c2.1,0,3.7,1.7,3.7,3.7v16.2H1517z"/>
			<rect x="1519.8" y="429.2" class="st34" width="1.5" height="105.2"/>
			<path class="st34" d="M1538.8,534.4c-1.4,3.3-1.4,3.3-2.5,3.3c-1,0-1,0-2.3-3.3H1538.8z"/>
			<path class="st34" d="M1507.6,534.4c-1.4,3.3-1.4,3.3-2.5,3.3s-1,0-2.3-3.3H1507.6z"/>
		</g>
		<g>
			<g>
				<g>
					<path class="st35" d="M1395.2,542.7c0,2.4,2.8,5.4,2.1,11.3c0,0-4.3,0.8-7.1,0.8c-3.6-2-7.7-0.5-10.1,1.4
						c-4.3,4.1-21.5,2.8-30.1,0.8c8.1-6.4,24.3-15.3,35.1-14.9c0,0,1.7,3.1,5.1,3.1c2.5,0,3.6-1.9,4.2-2.5
						C1394.7,542.3,1395.2,542.7,1395.2,542.7z"/>
				</g>
				<g>
					<path class="st36" d="M1397.3,554c0,0-4.3,0.8-7.1,0.8c-3.6-2-7.7-0.5-10.1,1.4c-4.3,4.1-21.5,2.8-30.1,0.8v2.1
						c8.6,2,25.8,3.4,30.1-0.8c2.4-1.8,6.5-3.4,10.1-1.4c2.8,0,7.1-0.8,7.1-0.8C1397.4,555,1397.3,554,1397.3,554z"/>
				</g>
			</g>
			<path class="st36" d="M1375.2,542.7c0.3,0.5,0.6,1,0.9,1.5c0.3,0.5,0.5,1.1,0.8,1.5c0.1,0.1,0.3,0.2,0.3-0.1
				c0.3-1.3-0.9-2.5-1.7-3.4C1375.5,542.1,1375.1,542.4,1375.2,542.7L1375.2,542.7z"/>
			<path class="st36" d="M1372.6,543.6c0.4,0.4,0.8,0.9,1,1.5c0.3,0.5,0.4,1,0.8,1.4c0.2,0.1,0.3,0.1,0.3-0.2c0-0.6-0.3-1.2-0.7-1.8
				c-0.3-0.5-0.8-1-1.3-1.4C1372.6,543.1,1372.4,543.4,1372.6,543.6L1372.6,543.6z"/>
			<path class="st36" d="M1369.9,544.7c0.8,0.8,0.8,1.9,1.5,2.7c0.1,0.2,0.3,0.1,0.3-0.1c0-1.1-0.6-2.5-1.5-3.1
				C1370,544.1,1369.7,544.5,1369.9,544.7L1369.9,544.7z"/>
		</g>
		<g>
			<g>
				<g>
					<path class="st35" d="M1440.4,542.6c0,2.4-2.8,5.4-2.1,11.3c0,0,4.3,0.8,7.1,0.8c3.6-2,7.7-0.5,10.1,1.4
						c4.3,4.1,21.5,2.8,30.1,0.8c-8.1-6.4-24.3-15.3-35.1-14.9c0,0-1.7,3.1-5.1,3.1c-2.5,0-3.6-1.9-4.2-2.5
						C1440.8,542.2,1440.4,542.6,1440.4,542.6z"/>
				</g>
				<g>
					<path class="st36" d="M1438.2,553.9c0,0,4.3,0.8,7.1,0.8c3.6-2,7.7-0.5,10.1,1.4c4.3,4.1,21.5,2.8,30.1,0.8v2.1
						c-8.6,2-25.8,3.4-30.1-0.8c-2.4-1.8-6.5-3.4-10.1-1.4c-2.8,0-7.1-0.8-7.1-0.8C1438.1,555,1438.2,553.9,1438.2,553.9z"/>
				</g>
			</g>
			<path class="st36" d="M1459.9,542.3c-0.8,0.8-2,2.1-1.7,3.4c0,0.2,0.3,0.2,0.3,0.1c0.3-0.5,0.5-1,0.8-1.5c0.3-0.5,0.7-1,0.9-1.5
				C1460.4,542.3,1460,542,1459.9,542.3L1459.9,542.3z"/>
			<path class="st36" d="M1462.7,543.2c-0.6,0.3-0.9,0.8-1.3,1.4s-0.7,1.1-0.7,1.8c0,0.2,0.3,0.3,0.3,0.2c0.4-0.3,0.6-0.9,0.8-1.4
				c0.3-0.5,0.7-1,1-1.5C1463.1,543.4,1462.9,543,1462.7,543.2L1462.7,543.2z"/>
			<path class="st36" d="M1465.3,544.3c-0.9,0.6-1.5,2-1.5,3.1c0,0.2,0.3,0.3,0.3,0.1c0.7-0.8,0.8-2,1.5-2.7
				C1465.8,544.5,1465.5,544.1,1465.3,544.3L1465.3,544.3z"/>
		</g>
		<g>
			<path class="st37" d="M1336.5,525.1c0,0,2.5-27.1,2.5-46.2s-2.5-36.4-2.5-36.4c-1-5.4-4.4-9.8-9.8-9.8h-21.6
				c-5.4,0-8.6,4.1-9.8,9.8c0,0-3.6,22-3.6,38.8c0,16.9,3.6,43.8,3.6,43.8H1336.5L1336.5,525.1z"/>
			<path class="st38" d="M1294.1,515.9c0.6,5.5,1.1,9.2,1.1,9.2h41.3c0,0,0.4-4.2,0.8-10.6C1323.1,517.2,1308.5,517.6,1294.1,515.9z
				"/>
			<path class="st34" d="M1319.7,432.8v-16.2c0-2.1-1.7-3.7-3.7-3.7c-2.1,0-3.7,1.7-3.7,3.7v16.2H1319.7z"/>
			<rect x="1315.3" y="432.7" class="st34" width="1.5" height="92.5"/>
			<path class="st34" d="M1297.9,525.1c1.4,3.3,1.4,3.3,2.5,3.3s1,0,2.3-3.3H1297.9z"/>
			<path class="st34" d="M1329.1,525.1c1.4,3.3,1.4,3.3,2.5,3.3s1,0,2.3-3.3H1329.1z"/>
			<path class="st34" d="M1300.7,435.2c1.4,0.3,1.1,6.4,1.2,7.4c0.1,4.2-0.1,8.6-0.2,12.8c-0.3,7.4-0.8,14.8-0.8,22.2
				c0.1,8.7,0.3,17.5,0.2,26.2c-0.1,4-0.3,8-0.7,12c-0.3,1.9-0.5,6.1-2.5,7c-0.2,0.1,0,0.3,0.1,0.3c1.6-0.6,2-2.8,2.3-4.2
				c0.8-3.6,0.9-7.5,1.1-11.3c0.4-9.9,0-19.9-0.1-29.9c-0.1-8.7,0.6-17.4,0.8-26c0.1-4.2,0.3-8.6-0.1-12.8c-0.1-0.8,0-3.7-1.3-3.9
				C1300.6,434.9,1300.5,435.2,1300.7,435.2L1300.7,435.2z"/>
			<path class="st34" d="M1333,435.4c-1.2,0.2-1.2,3.1-1.3,3.9c-0.4,4.2-0.3,8.6-0.1,12.8c0.3,8.7,0.9,17.3,0.8,26
				c-0.1,9.9-0.4,19.9-0.1,29.9c0.2,3.7,0.3,7.6,1.1,11.3c0.3,1.4,0.8,3.6,2.3,4.2c0.2,0.1,0.3-0.2,0.1-0.3c-1.9-0.8-2.1-4.3-2.4-6
				c-0.7-4-0.8-8.1-0.8-12.2c-0.2-8.7,0.1-17.6,0.2-26.3c0.1-7.4-0.4-14.8-0.7-22.1c-0.2-4.3-0.3-8.7-0.3-13c0-1-0.3-7.7,1.2-8
				C1333.3,435.7,1333.2,435.4,1333,435.4L1333,435.4z"/>
		</g>
		<g>
			<g>
				<g>
					<path class="st39" d="M1515.3,338c-12.4-17.7-36.7-33.8-36.7-33.8l-1.1,1.5l-58.3,29.8l-59-30.1v-0.5c0,0-0.2,0.1-0.4,0.3
						l-0.9-0.5v1.2c-5.5,3.9-26.7,19.3-38.2,32.3l22.7,18.4l15.4-14.9v57.5l54.3,18.2l6.1-18.2l8.8,18.2l51.5-18.2v-60.5l14.5,17.9
						L1515.3,338z"/>
				</g>
				<g>
					<path class="st40" d="M1360.6,336.3l-19.8,18l2.5,2.1l14.8-14.2C1359.1,340.2,1360,338.4,1360.6,336.3L1360.6,336.3z"/>
				</g>
				<g>
					<path class="st40" d="M1494,356.4l3.1-2.7l-20.1-19.4c0.7,1.7,1.5,3.2,2.4,4.7v-0.5L1494,356.4z"/>
				</g>
				<path class="st41" d="M1419.2,335.4c0,0,0,1,0.1,2.7c0,1.8,0.1,4.2,0.1,7.2s0.1,6.4,0.1,10.2c0,3.7,0,7.7,0,11.7s0,8,0,11.7
					c0,3.7-0.1,7.2-0.1,10.2c-0.1,3-0.1,5.4-0.1,7.2c0,1.8-0.1,2.7-0.1,2.7s0-1-0.1-2.7c0-1.8-0.1-4.2-0.1-7.2s-0.1-6.4-0.1-10.2
					c0-3.7,0-7.7,0-11.7s0-8,0-11.7c0-3.7,0.1-7.2,0.1-10.2c0.1-3,0.1-5.4,0.1-7.2C1419.2,336.4,1419.2,335.4,1419.2,335.4z"/>
				<g>
					<path class="st41" d="M1479.5,304.6c-0.4-0.5-0.4-6.5-0.4-6.5c-20.5,9.1-46.7,23.3-60,37.3c15.6-8.2,37.5-12.2,55.8-15.9
						c0,0-2.5-2.7-2.9-4.2c0,0,11.9-0.4,15.2-0.6C1487.3,314.8,1483,310.6,1479.5,304.6z"/>
				</g>
				<g>
					<path class="st41" d="M1359.2,305.2c0.4-0.5,0.1-7.1,0.1-7.1c20.5,9.1,46.7,23.3,60,37.3c-15.6-8.2-37.2-12.1-55.6-15.7
						c0,0,2.1-2,2.6-4.3c0,0-10-0.8-13.4-0.9C1352.9,314.4,1356.6,309.3,1359.2,305.2z"/>
				</g>
				<g>
					<path class="st42" d="M1469.7,309.9c0.8,2.5,2.5,3.3,3.3,4.1c-18.1,4.9-38.3,13.1-53.8,21.4c13.3-14.1,39.8-32.1,60.4-41.1
						c0,0,9.1,10.8,11.5,15.7C1484.5,307.5,1477.2,308.3,1469.7,309.9z"/>
				</g>
				<g>
					<path class="st42" d="M1368.7,309.9c-0.8,2.5-2.5,3.3-3.3,4.1c18.1,4.9,38.2,13.1,53.8,21.4c-13.3-14.1-39.8-32.1-60.3-41.1
						c0,0-9.1,10.8-11.5,15.7C1353.9,307.5,1361.3,308.3,1368.7,309.9z"/>
				</g>
				<circle class="st36" cx="1419.2" cy="338" r="1.7"/>
				<circle class="st36" cx="1419.2" cy="355.4" r="1.7"/>
				<circle class="st36" cx="1419.2" cy="372.7" r="1.7"/>
				<circle class="st36" cx="1419.2" cy="390.1" r="1.7"/>
			</g>
			<g>
				<g>
					<path class="st43" d="M1368.1,343.3c-1.4,5.4,2.3,15.2,9.4,9.7c6-4.7-0.5-9.2-4.7-12c0.7,0,9.7,1.9,12.6,0.3
						c1.8-0.8,3.5-2.6,2-4.6c-2.2-2.6-5.5-3-8.1-1.8c-2.6,1.1-5.2,2.1-7.4,3.9c-0.1,0.1-0.1,0.1-0.2,0.2l0.2-0.2l0,0
						c3.6-3.7,15.6-13.5,7.7-15.7c-5.1-1.2-9.2,8.5-9.5,13.4c0,0.6,0,1.1,0,1.5c-0.1-0.4-0.1-0.9,0-1.5c0-3.2-0.3-7.9-1.4-10.4
						c-1.6-3.3-4.1-4.1-5.2,0c-1,3.8,0.8,9.7,3.2,12.6c0.3,0.3,0.4,0.4,0.6,0.7c-0.2-0.2-0.4-0.4-0.6-0.7c-1.8-1.9-4.9-4.2-8.1-5.2
						v7.9c1.8,0.1,3.6-0.1,5.4-0.1c-2.1,0.9-4.1,2.5-5.4,4.2v8.5C1363.8,354.7,1366.6,346.7,1368.1,343.3z"/>
				</g>
				<g>
					<path class="st43" d="M1323.4,335.1c0.3,0.3,0.8,0.4,1.4,0.5c4.9,0.8,7.9-7.1,9.4-10.6C1330.1,328.5,1326.3,332,1323.4,335.1z"
						/>
				</g>
				<g>
					<path class="st43" d="M1353.6,318.2c-2.2-2.6-5.5-3-8.1-1.8c-0.5,0.3-1.1,0.4-1.6,0.7c-3.6,2.1-6.7,4.9-9.7,7.8
						c-1.3,5.5,2.5,14.9,9.5,9.5c6-4.7-0.5-9.2-4.7-12c0.7,0,9.7,1.9,12.6,0.3C1353.4,322,1355.2,320.1,1353.6,318.2z"/>
				</g>
				<g>
					<path class="st44" d="M1358.2,342.1l0.6-0.6V399l1.8,0.6v-63.3C1360,338.4,1359.1,340.2,1358.2,342.1z"/>
				</g>
				<g>
					<path class="st43" d="M1389.4,386.1c-0.4-0.4-0.8-0.8-1.1-1.1C1388.6,385.3,1389,385.6,1389.4,386.1c2.3,2.2,5.8,5.4,8.3,6.4
						c3.5,1.2,5.8,0,3.6-3.6c-2-3.4-7.4-6.3-11.3-6.7c-0.3,0-0.6,0-0.8-0.1c0.3,0,0.6,0,0.8,0.1c4.5,0.1,13.4-1.9,13.4-7
						c0.1-3.2-4.2-3.2-6.4-2.5c-3.1,1.1-4.8,3.8-7,5.9c2.7-6.8-0.8-16-4.9-12.9c-4.2,3.1-0.4,10.9,0.9,14.4
						c-2.9-4.8-12.4-9.1-13.5-0.2c-0.9,7.5,7,6.2,11.8,5.2c-0.5,0.5-8.1,5.5-9.2,8.7c-0.6,1.9-0.6,4.3,1.9,4.6
						c3.4,0.3,5.9-1.8,7-4.5c1.1-2.7,2.2-5.2,2.4-8c0-0.1,0-0.2,0-0.3v0.2l0,0c0,3.3-0.5,12.2,0.8,14.8s4.7,3.1,6.3,0
						C1395.3,397.5,1392.1,389.3,1389.4,386.1z"/>
				</g>
				<g>
					<path class="st43" d="M1454.8,345.6c0.2,0.2,0.3,0.4,0.5,0.7c2.9,3.5,10.2,8.9,14.1,5.5c2.5-2-0.3-5.3-2.4-6.5
						c-2.8-1.6-5.9-1.1-9-1.4c7-2.4,11.6-11,6.5-12.2c-5-1.2-8.6,6.9-10.3,10.1c1.8-5.3-1.2-15.3-8.7-10.3
						c-6.4,4.2-0.2,9.3,3.7,12.3c-0.7-0.1-9.5-2.5-12.6-1.3c-1.8,0.8-3.6,2.4-2.2,4.4c2,2.8,5.3,3.3,8,2.4s5.3-1.7,7.6-3.4
						c0.1-0.1,0.1-0.1,0.2-0.2l-0.2,0.2l0,0c-3.9,3.5-16.5,12.3-8.9,15.1c5,1.6,9.8-7.7,10.5-12.7c0-0.6,0.1-1.1,0.1-1.5
						c0,0.4,0,0.9-0.1,1.5c-0.2,3.2-0.3,7.9,0.6,10.5c1.4,3.4,3.8,4.4,5.2,0.4c1.3-3.7-0.1-9.7-2.3-12.9
						C1455.1,346.2,1454.9,345.9,1454.8,345.6z"/>
				</g>
				<g>
					<path class="st43" d="M1494.5,320.2c2,0.9,3.4,0.9,5.4,0.8c-2.7-2.5-5.9-5.3-8.3-7.1C1489.3,316.2,1492.4,319.2,1494.5,320.2z"
						/>
				</g>
				<g>
					<path class="st43" d="M1497.9,333.7c3.6,0.5,6.1-3.4,7.8-7c-1.4-1.4-3.1-3.1-4.5-4.4C1495.7,325.9,1493.2,332.9,1497.9,333.7z"
						/>
				</g>
				<g>
					<g>
						<path class="st43" d="M1470.6,365.4c-1.9-0.5-4.4-0.3-4.5,2.1c-0.1,3.5,2.1,5.9,4.8,6.8c2.7,0.9,5.3,2,8.1,2
							c0.1,0,0.2,0,0.3,0h-0.2l0,0c-5.2,0.3-20.6-0.4-16.3,6.4c3,4.3,12.5-0.2,16.1-3.6c0.3-0.3,0.4-0.5,0.6-0.7v-4.7
							C1478.4,372.4,1473.6,366.3,1470.6,365.4z"/>
					</g>
					<g>
						<path class="st45" d="M1448.1,407.6c0.4-0.3,0.8-0.5,1-0.8C1448.8,407.1,1448.5,407.3,1448.1,407.6z"/>
					</g>
					<g>
						<path class="st45" d="M1448.9,405.4c-0.1,0-0.1,0-0.2,0l0,0H1448.9z"/>
					</g>
					<g>
						<path class="st45" d="M1451.2,408.7c0.1-0.3,0.1-0.5,0.2-0.7C1451.3,408.2,1451.2,408.4,1451.2,408.7z"/>
					</g>
					<g>
						<path class="st43" d="M1453.5,405.7c4.2-1.8,8.8-8.9,1.8-10.9c-5.9-1.7-5.9,4.9-5.7,8.9c-0.3-0.4-3.5-7.3-5.9-8.5
							c-1.4-0.8-3.5-1-3.9,0.9c-0.6,2.7,0.8,5,2.8,6.3c2,1.2,3.9,2.4,6.2,2.9c0.1,0,0.2,0,0.2,0h-0.2l0,0
							c-4.2-0.6-16.5-3.6-14.1,2.5c1.7,4,10,1.9,13.5-0.3c0.3-0.3,0.4-0.3,0,0c-1.3,0.9-3.8,3.1-5.1,4.4c2.4-0.8,20.2-7.1,20.2-7.1
							C1460.2,403.9,1455.7,405.2,1453.5,405.7z"/>
					</g>
					<g>
						<path class="st43" d="M1478.9,379.2c-2.1,2.4-5.1,6-5.9,8.7c-1,3.6,0.3,5.8,3.8,3.5c1-0.7,2-1.6,2.8-2.7v-10
							C1479.4,378.8,1479.1,379.1,1478.9,379.2z"/>
					</g>
					<g>
						<path class="st44" d="M1477.1,334.3v65.7l2.5-0.8v-60C1478.7,337.5,1477.8,336,1477.1,334.3L1477.1,334.3z"/>
					</g>
				</g>
			</g>
		</g>
		<g>
			<path class="st46" d="M1348,200.4c0,0-31.1-29.3-15.4-43.9c17.9-16.5,104.8-48.4,160.8-13.7c38,23.6-3.6,57.7-3.6,57.7
				s9.7-46.1-40-48.2C1398.5,150.2,1345.9,160.8,1348,200.4z"/>
			<path class="st46" d="M1355.9,143.3c0,0,0.4-14.2,6.8-24s16.9-29.9,18.7-36.2c1.8-6.4,20-9.2,31-6.4c10.9,2.8,20,7.7,27.4,9.8
				c7.4,2.1,25-3.2,41.5,49.9c0,0-18.4-11.1-56.3-9.2C1386.7,129.3,1355.9,143.3,1355.9,143.3z"/>
			<path class="st47" d="M1493.7,142.8c-46.9-29.1-115.5-11.5-147.1,4.7c32.7-15.9,98.8-31.7,144.4-3.5c31.7,19.7,7.6,46.7-1.1,55.1
				c-0.1,0.8-0.3,1.4-0.3,1.4S1531.7,166.3,1493.7,142.8z"/>
			<path class="st48" d="M1481.2,136.3c-1.4-4.4-2.7-8.4-4.1-12c-39.9-15.2-89-5.1-119.4,7.5c-1.2,5-1.6,9.4-1.8,11.4
				C1387,129.8,1439.8,118.6,1481.2,136.3z"/>
		</g>
		<g>
			<g>
				<path class="st7" d="M1483.5,125.1c-2.1,11.6-13.8,8.5-21.7,4.7c-0.8-0.3-1.5-0.8-2.3-1.1c-49.9-15-58.4,25.2-83.9,33.4
					c1.5,5.3,3.6,10.7,8,16.5c5.8-19.8,44.1,2.1,54.6,3.6C1479.1,187.7,1496.2,153,1483.5,125.1z"/>
			</g>
			<g>
				<path class="st9" d="M1432.8,130c14,0,27.9,6.5,41.9,4.9c4.2,0,6.8-3.1,8.1-7c-3.4,8.2-13.7,5.3-21,2c-0.8-0.3-1.5-0.8-2.3-1.1
					c-23.8-7.2-38.3-1.8-49.5,6.8C1416.9,132,1424.5,129.8,1432.8,130z"/>
			</g>
			<g>
				<path class="st8" d="M1486.1,132.2c-0.2,5.7-1.6,11.2-4,15.9c-18.1,35.3-60,10.7-90.3,11.5c7.4-6.5,17.2-9.1,26.3-9.1
					c-11.2-3.5-21.8,1.4-31.8,5.9c-3.3,2.4-7.3,4.6-11.1,5.8c1.5,5.3,4.2,10.5,8.5,16.3c5.8-19.8,44.1,2.1,54.6,3.6
					C1475.7,187.3,1493.2,158.5,1486.1,132.2z"/>
			</g>
		</g>
	</g>
</g>
<g>
	<path class="st49" d="M1782-93.1c-1.6,0.9-3.1,1.9-4.6,3c-2.7,7-2.1,13.3-3.2,20.3c-3.1-1.2-6.1-5-5.6-8.5
		c-3.6,7.1-3.7,12.2-3.9,21c-5.3-23-29.3-39.1-45.5-43.6c-35.3-10.2-87.7,3.2-112,34.3c11.4-7.1,23-3.8,35.9-4.1
		c5.9-6.1,13.9-10.6,20.3-16.3c0,0-2.7,12.6-3.6,16.9c10.1-2.8,25,0,34.5,4.1c4.7-4.8,16-9.8,22.3-11.2c-4.7,4-11.5,11.4-14.1,16.6
		c7.2,3.7,14,12.3,17.2,19.1c-8.3-4.6-72.2-19.6-111,22c-34.3,36.9-37.4,50.3-45.8,79.3c1.3-4.3,19.5-27.8,30.9-33.6
		c22.7-11.6,27.8-13,53.2-15.1c3-7,4.5-17.3,6.7-24.3c3.2,6.8,8,17.1,9.2,24.9c12.7-12.3,40.7-15.4,56.6-13.5
		c-10.7,13.6-24.5,29.3-31.6,39.8c0,0,2.9,6.7,2.4,7.6c-0.8,1.2-9.2,3.1-11.4,5.4c0,0-16.4,23-13.6,23.5c1.2,0,22.6,6.6,24.4,7.2
		c8.8,2.2,29.5-29.1,29.5-29.1c25-42.1,58.4-14.2,58.4-14.2c1.4,0.2,2.8,0.4,4.3,0.5L1782-93.1L1782-93.1z"/>
</g>
<g>
	<path class="st50" d="M1778.1-5.2c-2.1-6.3-2.6-12.9-5.1-19.6c-24.3-14-67.8-5.3-88.3,3.8c0,0,89.1,7.1,86.5,76.6
		c-1.8-1.3-3.6-2.8-5.2-4.5c-28.6-15.9-86-7.2-110.5,5.1c-53,26.5-79.1,64.9-79.1,119.9c6.7-13,15.2-22.9,24.2-30.4
		c3.4-10.1,10.1-18.9,20.3-24.2c-2.8,5.2-5.6,10.4-8.3,15.5c22-13.5,42.9-14.9,42.9-14.9c0-5,2.5-17.6,2.5-18.8
		c5,1.3,13.8,6.3,16.3,11.3c7.2-6.1,16.9-10.8,27.2-13.6c-0.6-3.6-1.1-7.2-1.5-10.8c2.9,2.9,5.9,5.9,8.5,9.2
		c10.9-2.1,21.9-2.2,31.2,0.1c-24.4,19.1-40,40.3-49.7,60.9c0.8,3.6,2.4,7.1,4.1,10.4c-2.4-1.2-4.9-2.2-7.3-3
		c-20.5,50.7-6.9,96.1-4.1,96.1c-1.7-7.2,5.7-28,14.8-46c-1.1-3-2.1-6-3.4-9c2.4,0.5,4.8,1.3,6.7,2.5c6.3-11.5,12.8-20.9,17.5-23.3
		c0,0-2.7-8.5-1.7-17.7c0,0,1.8,4.8,6,8.6c10-9,36.8-28.9,59.4-39V-8.5C1781-7.1,1779.7-5.9,1778.1-5.2z"/>
</g>
</svg>
