<?xml version="1.0" encoding="utf-8"?>
<!-- Generator: Adobe Illustrator 18.1.1, SVG Export Plug-In . SVG Version: 6.00 Build 0)  -->
<!DOCTYPE svg PUBLIC "-//W3C//DTD SVG 1.1//EN" "http://www.w3.org/Graphics/SVG/1.1/DTD/svg11.dtd">
<svg version="1.1" id="Layer_1" xmlns="http://www.w3.org/2000/svg" xmlns:xlink="http://www.w3.org/1999/xlink" x="0px" y="0px"
	 width="1280px" height="788.2px" viewBox="0 0 1280 788.2" style="enable-background:new 0 0 1280 788.2;" xml:space="preserve">
<style type="text/css">
	.st0{fill:url(#SVGID_1_);}
	.st1{fill:#D6F1F2;}
	.st2{fill:url(#SVGID_2_);}
	.st3{fill:url(#SVGID_3_);}
	.st4{fill:url(#SVGID_4_);}
	.st5{fill:#FDD3A1;}
	.st6{fill:#EAB180;}
	.st7{fill:#7A4E25;}
	.st8{fill:#5C3A14;}
	.st9{fill:#9A6433;}
	.st10{fill:#DC9969;}
	.st11{fill-rule:evenodd;clip-rule:evenodd;fill:#231F20;}
	.st12{fill:#162B36;}
	.st13{filter:url(#Adobe_OpacityMaskFilter);}
	.st14{filter:url(#Adobe_OpacityMaskFilter_1_);}
	.st15{mask:url(#SVGID_5_);fill:url(#SVGID_6_);}
	.st16{opacity:0.3;fill:url(#SVGID_7_);}
	.st17{filter:url(#Adobe_OpacityMaskFilter_2_);}
	.st18{filter:url(#Adobe_OpacityMaskFilter_3_);}
	.st19{mask:url(#SVGID_8_);fill:url(#SVGID_9_);}
	.st20{opacity:0.3;fill:url(#SVGID_10_);}
	.st21{filter:url(#Adobe_OpacityMaskFilter_4_);}
	.st22{filter:url(#Adobe_OpacityMaskFilter_5_);}
	.st23{mask:url(#SVGID_11_);fill:url(#SVGID_12_);}
	.st24{opacity:0.3;fill:url(#SVGID_13_);}
	.st25{filter:url(#Adobe_OpacityMaskFilter_6_);}
	.st26{filter:url(#Adobe_OpacityMaskFilter_7_);}
	.st27{mask:url(#SVGID_14_);fill:url(#SVGID_15_);}
	.st28{opacity:0.3;fill:url(#SVGID_16_);}
	.st29{fill:#E3A477;}
	.st30{fill:#4E3319;}
	.st31{fill:#6DA15D;}
	.st32{fill:#5B894E;}
	.st33{fill:#87BD71;}
	.st34{fill:#5C8A4E;}
	.st35{fill:#704615;}
	.st36{fill:#675E4F;}
	.st37{fill:#4B4539;}
	.st38{fill:#271400;}
	.st39{fill:#3F2900;}
	.st40{fill:#FFFFFF;}
	.st41{fill:#735022;}
	.st42{fill:#4D340A;}
	.st43{fill:#63BCD2;}
	.st44{fill:#54A9D1;}
	.st45{fill:#4A95B9;}
	.st46{fill:#87C5D3;}
	.st47{fill:#FFEFCC;}
	.st48{fill:#7E8083;}
	.st49{fill:#FFC645;}
	.st50{fill:#161C2D;}
	.st51{fill:#374054;}
	.st52{fill:#B47142;}
	.st53{fill:#448164;}
	.st54{fill:#549A78;}
</style>
<linearGradient id="SVGID_1_" gradientUnits="userSpaceOnUse" x1="630.9183" y1="826.7281" x2="630.9183" y2="504.6055">
	<stop  offset="0" style="stop-color:#FFFFFF;stop-opacity:0"/>
	<stop  offset="1" style="stop-color:#E6E6E6"/>
</linearGradient>
<polygon class="st0" points="1261.8,789.3 0,789.3 707.3,631.5 1261.8,631.5 "/>
<g>
	<path class="st1" d="M630.9,420.3c15.6-23.4,55.9-24.7,80.6-19.5c6.5-37.7,58.5-54.6,62.4-6.5c13-6.5,29.9-7.8,35.1,7.8
		c16.9-5.2,32.2,5.9,45.2,17.6C779.5,419.7,630.9,420.3,630.9,420.3z"/>
</g>
<g>
	<path class="st1" d="M964.2,402c0-8.2,33.6-22.5,62.5-22.4l0,0c9.7-18.6,39.6-23.1,51.1-4.5c0-30,29.2-43.8,64.4-31.8
		c18.5,6.7,34,24.4,23.7,48.2c9.7-0.7,20.3,1.5,23.8,10.4C1112.5,402,964.2,402,964.2,402z"/>
</g>
<g>
	<path class="st1" d="M936.1,317.8c14.8-15.6,42.8-12.5,62.3-13.2l0,0c5.5-15.6,17.1-30.4,33.5-34.3c12.5-3.1,31.9-2.3,35,13.2
		c0,0-1.3-39.7,38.7-39.7c39.9,0,31.4,43.6,31.4,43.6c19.5-14.8,42.1-16.4,56.9,5.5c3.9,5.5,1.6,7.8,7.8,9.3
		c3.1,1.6,11.7-0.8,16.4,0c10.1,1.6,21.8,4.7,29.6,11.7C1204.1,317.8,936.1,317.8,936.1,317.8z"/>
</g>
<g>
	<linearGradient id="SVGID_2_" gradientUnits="userSpaceOnUse" x1="748.3106" y1="758.9028" x2="1020.4764" y2="758.9028">
		<stop  offset="0" style="stop-color:#FFFFFF;stop-opacity:0"/>
		<stop  offset="1" style="stop-color:#F2F2F2"/>
	</linearGradient>
	<polygon class="st2" points="964.7,728.5 905.6,771.4 893.9,771.1 885.1,778.7 831.3,778.5 839.2,769.1 827.6,767.4 870.2,742.3 
		916.4,731.1 904.4,729.5 860.6,734.5 802.9,763.9 791.9,762.3 748.3,789.3 932.2,789.3 947.9,772.4 934.9,771.3 967.4,741.6 
		1011,738.4 1020.5,734.4 	"/>
	<linearGradient id="SVGID_3_" gradientUnits="userSpaceOnUse" x1="944.0591" y1="771.1235" x2="1025.5741" y2="771.1235">
		<stop  offset="0" style="stop-color:#FFFFFF;stop-opacity:0"/>
		<stop  offset="1" style="stop-color:#F2F2F2"/>
	</linearGradient>
	<polygon class="st3" points="944.1,789.3 992.5,789.3 1025.6,753 977.1,753 	"/>
	<linearGradient id="SVGID_4_" gradientUnits="userSpaceOnUse" x1="687.6078" y1="767.2713" x2="807.8523" y2="767.2713">
		<stop  offset="0" style="stop-color:#FFFFFF;stop-opacity:0"/>
		<stop  offset="1" style="stop-color:#F2F2F2"/>
	</linearGradient>
	<polygon class="st4" points="687.6,789.3 736,789.3 807.9,745.3 759.4,745.3 	"/>
	<g>
		<g>
			<g>
				<g>
					<rect x="871.1" y="434.6" class="st5" width="142.3" height="111.3"/>
				</g>
			</g>
		</g>
		<path class="st6" d="M1001.8,443.6H882.7c-6.4,0-11.6-4.1-11.6-9.2v7.1c0,5.1,5.2,9.2,11.6,9.2h119.1c6.4,0,11.6-4.1,11.6-9.2
			v-7.1C1013.4,439.5,1008.2,443.6,1001.8,443.6z"/>
		<path class="st5" d="M1013.4,434.6c0,6.4-5.2,11.6-11.6,11.6H882.7c-6.4,0-11.6-5.2-11.6-11.6V286.7c0-6.4,5.2-11.6,11.6-11.6
			h119.1c6.4,0,11.6,5.2,11.6,11.6V434.6z"/>
		<path class="st6" d="M1001.8,275.1H892.1c21.4,2.3,43.8,15.2,63.2,22.5c19.8,6.8,41.9,3.5,58.1-8.5v-2.3
			C1013.4,280.3,1008.2,275.1,1001.8,275.1z"/>
		<g>
			<g>
				<path class="st7" d="M900.2,286.1c-7.2-31.1-16.8-30.4-21.7-29.3c0,0,3.7,2,3.3,5.5c-21.2,0-27,12-26.5,30.5
					c1.1,24.5,14.8,47.4,15.8,72.4c-1.1-40,10.9-44.9,10.9-52.9C871.6,301.1,883.3,273.6,900.2,286.1z"/>
			</g>
			<g>
				<path class="st7" d="M980.5,282c1.3-19.3,25-16.3,28.2-16.2c14.2,0.5,21.1,8.6,20.6,23.6c-1.1,24.5-15.1,49-16.2,74.1
					c-1.3-48.9-12.1-43.9-12.1-52.7C1014,293.8,998.8,271.8,980.5,282z"/>
			</g>
			<g>
				<path class="st8" d="M884.7,277.2c4.1-2.1,9.7-1.2,13.6,1.6c-6.9-23.7-15.3-23-19.8-22c0,0,3.7,2,3.3,5.5
					c-21.2,0-27,12-26.5,30.5c0.2,5.3,1.1,10.6,2.2,15.8c1.1-5.3,3.2-10.3,6.8-14.9C870.1,286.9,876.9,280.1,884.7,277.2z"/>
			</g>
			<g>
				<path class="st8" d="M1008.8,265.8c-1.6-0.1-8.3-0.8-14.7,0.8c19.5,4.9,29.5,26.7,30.7,47.9c2.4-8.4,4.2-16.7,4.6-25
					C1029.8,274.4,1023,266.3,1008.8,265.8z"/>
			</g>
			<g>
				<path class="st7" d="M900.2,286.1c-30.9-41.2,4.2-76.1,45.2-74.3c18,0.6,29.8,15.5,46,23c9.3,4.3,24.2,1.9,26.7-11.8
					c14.9,32.9-5.1,73.9-53.5,67.3C952.2,288.6,907,262.6,900.2,286.1z"/>
			</g>
			<g>
				<path class="st9" d="M967.1,228.2c10.5,6,20.2,13.4,32.9,12.7c9.4-0.7,18.2-8,18.2-17.6c-0.1-0.1-0.1-0.2-0.1-0.3
					c-2.5,13.7-17.4,16.2-26.7,11.8c-16.2-7.5-28-22.4-46-23c-31.6-1.4-59.8,19.1-56.7,47.4c0.5-3.7,1.7-7.4,3.8-10.8
					C908.9,224.5,941,213.3,967.1,228.2z"/>
			</g>
		</g>
		<g>
			<path class="st10" d="M925.1,400c6.1,2.3,13,1.8,19.4,1c6.3-0.9,13.6-2.4,19-6c0.3-0.2,0.1-0.9-0.3-0.7
				c-5.6,2.4-11.4,4.2-17.4,5.3c-6.6,1.2-14.1,2.2-20.6-0.1C924.9,399.3,924.8,399.8,925.1,400L925.1,400z"/>
			<path class="st10" d="M932.5,427.5c4,3.7,6.4-1.7,10.5-1.7c2.3,0,4.2,2.1,6.3,2.8c1.8,0.6,3.6-0.4,4.7-1.8
				c0.2-0.2-0.1-0.5-0.3-0.3c-2.4,1.5-3.9,1.6-6.3,0.2c-1.4-0.8-2.7-1.5-4.3-1.7c-3.9-0.4-5.9,6-10.1,2.2
				C932.7,426.9,932.3,427.3,932.5,427.5L932.5,427.5z"/>
		</g>
		<g>
			<g>
				<circle class="st5" cx="1021.2" cy="360.6" r="11.5"/>
				<path class="st6" d="M1010.5,365c1.7,4.2,5.9,7.2,10.7,7.2c6.4,0,11.5-5.2,11.5-11.5C1027.6,372.2,1017,370.4,1010.5,365z"/>
			</g>
			<path class="st6" d="M1015.3,363.5c1.5-1.3,2.8-2.7,4.5-3.6c1.8-1,3.8-1.3,5.6-2.1c0.4-0.2,0.1-0.7-0.2-0.7
				c-3.9-0.3-9.2,2.3-10.5,6.1C1014.6,363.5,1015.1,363.7,1015.3,363.5L1015.3,363.5z"/>
			<path class="st6" d="M1017.1,361.7c1.4-0.2,2.8-0.2,4.2-0.1c1.4,0.1,2.6,0.7,3.9,1.1c0.3,0.1,0.5-0.3,0.3-0.5
				c-2.2-2.3-5.8-1.7-8.5-1C1016.6,361.3,1016.8,361.8,1017.1,361.7L1017.1,361.7z"/>
		</g>
		<g>
			<g>
				<circle class="st5" cx="864.1" cy="360.6" r="11.5"/>
				<path class="st6" d="M874.8,365c-1.7,4.2-5.9,7.2-10.7,7.2c-6.4,0-11.5-5.2-11.5-11.5C856.6,372,868.3,372.6,874.8,365z"/>
			</g>
			<path class="st6" d="M870.6,363.2c-1.3-3.8-6.6-6.4-10.5-6.1c-0.3,0-0.6,0.5-0.2,0.7c1.6,0.7,3.4,1.1,5,1.9
				c2,0.9,3.4,2.5,5.1,3.9C870.2,363.7,870.7,363.5,870.6,363.2L870.6,363.2z"/>
			<path class="st6" d="M868.4,361.2c-2.7-0.7-6.3-1.3-8.5,1c-0.2,0.2,0,0.6,0.3,0.5c1.3-0.4,2.5-0.9,3.9-1.1
				c1.4-0.2,2.9-0.1,4.2,0.1C868.6,361.8,868.7,361.3,868.4,361.2L868.4,361.2z"/>
		</g>
		<g>
			<path class="st5" d="M920.9,581.9l-42.6-26.8c-3.2,24.5,0.8,57.4,6.4,87.2c-1.3,1.4-2.2,3.2-2.2,5.3c0,3.1,1.9,5.8,4.6,6.9
				c7.3,35.3,16,63.6,16,63.6l10.4,0.7C913.6,718.8,899.9,635.5,920.9,581.9z"/>
			<g>
				<path class="st6" d="M912.3,615.1c-9.1,0-18.1,0.3-27.2,2.3c7.9,2.8,16.5,4,17.9,10.4c4.1,30.6,1.2,61.9,10.5,90.9
					C913.2,716.4,904.8,663.2,912.3,615.1z"/>
			</g>
		</g>
		<g>
			<path class="st5" d="M997.9,642.8c6.2-29.7,10.6-62.5,7.4-86.9l-42.6,26.8c21,53.6,4.6,135.4,4.6,135.4l10.5,0
				c0,0,9.3-27.7,17.3-62.6c3.1-0.9,5.3-3.8,5.3-7.2C1000.4,646.1,999.4,644.1,997.9,642.8z"/>
			<g>
				<path class="st6" d="M975.9,616.2C975.9,616.2,975.9,616.2,975.9,616.2c-1.6,0.1-3.1,0.3-4.7,0.6c6.7,48.5-3.9,101.3-3.9,101.3
					l1.3-0.3c2.4-14.7,11.8-48.7,8.2-87.1c-0.6-6.2,25.6-10.3,25.5-11.6C1002.2,618,976,617.2,975.9,616.2z"/>
			</g>
		</g>
		<g>
			<g>
				<path class="st11" d="M1019,330.5c-15.1-5.5-39-5.7-55.7-2.2c-2.8,0.6-12.8,3.8-13.7,4.1c-2.3,0.7-4.6,1-6.8,1.1v0
					c-0.3,0-0.7,0-1,0c-0.3,0-0.7,0-1,0v0c-2.3,0-4.5-0.4-6.8-1.1c-0.8-0.3-10.9-3.5-13.7-4.1c-16.8-3.5-40.6-3.4-55.7,2.2
					c0.1,4-1,9.1,0,13.2c0.5,2,3,4.3,4.1,6.2c3.5,6.1,5.4,15.7,10.1,20.4c5.8,5.9,19,6.4,29.8,5.8c16-1,20.1-9.2,25.2-21.1
					c1.7-4,3-9.4,7.1-10.1v0c0.3-0.1,0.7-0.1,1-0.1c0.3,0,0.6,0,1,0.1v0c4,0.7,5.3,6.1,7.1,10.1c5.1,11.9,9.2,20.2,25.2,21.1
					c10.8,0.7,24,0.1,29.8-5.8c4.6-4.7,6.6-14.3,10.1-20.4c1.1-1.9,3.6-4.2,4.1-6.2C1020,339.7,1018.9,334.5,1019,330.5z
					 M929.2,354.8c-2.1,7.3-4.9,12.5-10.1,15.4c-7.7,4.3-26.8,4.7-34.4,0c-5.2-3.2-7.1-9.2-8.4-17.1c-0.9-5.2-1.5-12.5,0.7-15.9
					c3.8-5.8,20.3-6,30.3-5.3c9.4,0.7,21.2,3,23.1,9.1C931.7,345.4,930.2,351.3,929.2,354.8z M1007.2,353.1
					c-1.3,7.8-3.2,13.8-8.4,17.1c-7.6,4.7-26.6,4.3-34.4,0c-5.2-2.9-8-8.1-10.1-15.4c-1-3.5-2.5-9.4-1.2-13.7
					c1.8-6.2,13.7-8.5,23.1-9.1c10-0.7,26.5-0.6,30.3,5.3C1008.7,340.6,1008.1,347.9,1007.2,353.1z"/>
				<g>
					<path class="st12" d="M976.2,332c-9.4,0.7-21.2,3-23.1,9.1c-1.3,4.3,0.2,10.2,1.2,13.7c2.1,7.3,4.9,12.5,10.1,15.4
						c7.7,4.3,26.8,4.7,34.4,0c5.2-3.2,7.1-9.2,8.4-17.1c0.9-5.2,1.5-12.5-0.7-15.9C1002.7,331.4,986.2,331.3,976.2,332z"/>
					<path class="st12" d="M907.3,332c-10-0.7-26.5-0.6-30.3,5.3c-2.2,3.4-1.6,10.7-0.7,15.9c1.3,7.8,3.2,13.8,8.4,17.1
						c7.6,4.7,26.6,4.3,34.4,0c5.2-2.9,8-8.1,10.1-15.4c1-3.5,2.5-9.4,1.2-13.7C928.5,334.9,916.7,332.6,907.3,332z"/>
				</g>
				<g>
					<g>
						<defs>
							<filter id="Adobe_OpacityMaskFilter" filterUnits="userSpaceOnUse" x="878.6" y="331.7" width="37.2" height="41.3">
								<feFlood  style="flood-color:white;flood-opacity:1" result="back"/>
								<feBlend  in="SourceGraphic" in2="back" mode="normal"/>
							</filter>
						</defs>
						<mask maskUnits="userSpaceOnUse" x="878.6" y="331.7" width="37.2" height="41.3" id="SVGID_5_">
							<g class="st13">
								<defs>
									<filter id="Adobe_OpacityMaskFilter_1_" filterUnits="userSpaceOnUse" x="878.6" y="331.7" width="37.2" height="41.3">
										<feFlood  style="flood-color:white;flood-opacity:1" result="back"/>
										<feBlend  in="SourceGraphic" in2="back" mode="normal"/>
									</filter>
								</defs>
								<mask maskUnits="userSpaceOnUse" x="878.6" y="331.7" width="37.2" height="41.3" id="SVGID_5_">
									<g class="st14">
									</g>
								</mask>
								<linearGradient id="SVGID_6_" gradientUnits="userSpaceOnUse" x1="906.2593" y1="331.6129" x2="884.683" y2="370.2162">
									<stop  offset="0" style="stop-color:#FFFFFF"/>
									<stop  offset="8.569065e-02" style="stop-color:#F4F4F4"/>
									<stop  offset="0.2341" style="stop-color:#D8D8D8"/>
									<stop  offset="0.4275" style="stop-color:#AAAAAA"/>
									<stop  offset="0.6585" style="stop-color:#6B6B6B"/>
									<stop  offset="0.9184" style="stop-color:#1B1B1B"/>
									<stop  offset="1" style="stop-color:#000000"/>
								</linearGradient>
								<path class="st15" d="M907.3,331.9c-3.3-0.2-7.4-0.4-11.5-0.2l-17.2,30.7c1.3,3.3,3.2,5.9,6,7.7c2.2,1.4,5.3,2.3,8.8,2.8
									l22.3-40C913,332.5,910,332.1,907.3,331.9z"/>
							</g>
						</mask>
						<linearGradient id="SVGID_7_" gradientUnits="userSpaceOnUse" x1="906.2593" y1="331.6129" x2="884.683" y2="370.2162">
							<stop  offset="0" style="stop-color:#E1F3FC"/>
							<stop  offset="0.4445" style="stop-color:#EBF7FD"/>
							<stop  offset="1" style="stop-color:#FFFFFF"/>
						</linearGradient>
						<path class="st16" d="M907.3,331.9c-3.3-0.2-7.4-0.4-11.5-0.2l-17.2,30.7c1.3,3.3,3.2,5.9,6,7.7c2.2,1.4,5.3,2.3,8.8,2.8
							l22.3-40C913,332.5,910,332.1,907.3,331.9z"/>
						<defs>
							<filter id="Adobe_OpacityMaskFilter_2_" filterUnits="userSpaceOnUse" x="900.7" y="334.7" width="24.3" height="38.9">
								<feFlood  style="flood-color:white;flood-opacity:1" result="back"/>
								<feBlend  in="SourceGraphic" in2="back" mode="normal"/>
							</filter>
						</defs>
						<mask maskUnits="userSpaceOnUse" x="900.7" y="334.7" width="24.3" height="38.9" id="SVGID_8_">
							<g class="st17">
								<defs>
									<filter id="Adobe_OpacityMaskFilter_3_" filterUnits="userSpaceOnUse" x="900.7" y="334.7" width="24.3" height="38.9">
										<feFlood  style="flood-color:white;flood-opacity:1" result="back"/>
										<feBlend  in="SourceGraphic" in2="back" mode="normal"/>
									</filter>
								</defs>
								<mask maskUnits="userSpaceOnUse" x="900.7" y="334.7" width="24.3" height="38.9" id="SVGID_8_">
									<g class="st18">
									</g>
								</mask>
								<linearGradient id="SVGID_9_" gradientUnits="userSpaceOnUse" x1="875.4828" y1="354.1243" x2="930.8467" y2="354.1243">
									<stop  offset="0" style="stop-color:#FFFFFF"/>
									<stop  offset="8.569065e-02" style="stop-color:#F4F4F4"/>
									<stop  offset="0.2341" style="stop-color:#D8D8D8"/>
									<stop  offset="0.4275" style="stop-color:#AAAAAA"/>
									<stop  offset="0.6585" style="stop-color:#6B6B6B"/>
									<stop  offset="0.9184" style="stop-color:#1B1B1B"/>
									<stop  offset="1" style="stop-color:#000000"/>
								</linearGradient>
								<path class="st19" d="M922.4,334.7l-21.7,38.9c1.1,0,2.1,0,3.2,0l21.1-37.7C924.1,335.4,923.3,335,922.4,334.7z"/>
							</g>
						</mask>
						<linearGradient id="SVGID_10_" gradientUnits="userSpaceOnUse" x1="875.4828" y1="354.1243" x2="930.8467" y2="354.1243">
							<stop  offset="0" style="stop-color:#E1F3FC"/>
							<stop  offset="0.4445" style="stop-color:#EBF7FD"/>
							<stop  offset="1" style="stop-color:#FFFFFF"/>
						</linearGradient>
						<path class="st20" d="M922.4,334.7l-21.7,38.9c1.1,0,2.1,0,3.2,0l21.1-37.7C924.1,335.4,923.3,335,922.4,334.7z"/>
					</g>
					<g>
						<defs>
							<filter id="Adobe_OpacityMaskFilter_4_" filterUnits="userSpaceOnUse" x="957" y="331.7" width="37.4" height="40.9">
								<feFlood  style="flood-color:white;flood-opacity:1" result="back"/>
								<feBlend  in="SourceGraphic" in2="back" mode="normal"/>
							</filter>
						</defs>
						<mask maskUnits="userSpaceOnUse" x="957" y="331.7" width="37.4" height="40.9" id="SVGID_11_">
							<g class="st21">
								<defs>
									<filter id="Adobe_OpacityMaskFilter_5_" filterUnits="userSpaceOnUse" x="957" y="331.7" width="37.4" height="40.9">
										<feFlood  style="flood-color:white;flood-opacity:1" result="back"/>
										<feBlend  in="SourceGraphic" in2="back" mode="normal"/>
									</filter>
								</defs>
								<mask maskUnits="userSpaceOnUse" x="957" y="331.7" width="37.4" height="40.9" id="SVGID_11_">
									<g class="st22">
									</g>
								</mask>
								<linearGradient id="SVGID_12_" gradientUnits="userSpaceOnUse" x1="962.6413" y1="369.4255" x2="985.451" y2="330.5644">
									<stop  offset="0" style="stop-color:#FFFFFF"/>
									<stop  offset="8.569065e-02" style="stop-color:#F4F4F4"/>
									<stop  offset="0.2341" style="stop-color:#D8D8D8"/>
									<stop  offset="0.4275" style="stop-color:#AAAAAA"/>
									<stop  offset="0.6585" style="stop-color:#6B6B6B"/>
									<stop  offset="0.9184" style="stop-color:#1B1B1B"/>
									<stop  offset="1" style="stop-color:#000000"/>
								</linearGradient>
								<path class="st23" d="M976.2,331.9c-0.8,0.1-1.7,0.1-2.5,0.2L957,361.8c1.8,3.7,4.2,6.5,7.5,8.3c1.8,1,4.3,1.8,7.1,2.4
									l22.8-40.3C988.4,331.5,981.4,331.6,976.2,331.9z"/>
							</g>
						</mask>
						<linearGradient id="SVGID_13_" gradientUnits="userSpaceOnUse" x1="962.6413" y1="369.4255" x2="985.451" y2="330.5644">
							<stop  offset="0" style="stop-color:#E1F3FC"/>
							<stop  offset="0.4445" style="stop-color:#EBF7FD"/>
							<stop  offset="1" style="stop-color:#FFFFFF"/>
						</linearGradient>
						<path class="st24" d="M976.2,331.9c-0.8,0.1-1.7,0.1-2.5,0.2L957,361.8c1.8,3.7,4.2,6.5,7.5,8.3c1.8,1,4.3,1.8,7.1,2.4
							l22.8-40.3C988.4,331.5,981.4,331.6,976.2,331.9z"/>
						<defs>
							<filter id="Adobe_OpacityMaskFilter_6_" filterUnits="userSpaceOnUse" x="978.5" y="333.6" width="25.1" height="39.9">
								<feFlood  style="flood-color:white;flood-opacity:1" result="back"/>
								<feBlend  in="SourceGraphic" in2="back" mode="normal"/>
							</filter>
						</defs>
						<mask maskUnits="userSpaceOnUse" x="978.5" y="333.6" width="25.1" height="39.9" id="SVGID_14_">
							<g class="st25">
								<defs>
									<filter id="Adobe_OpacityMaskFilter_7_" filterUnits="userSpaceOnUse" x="978.5" y="333.6" width="25.1" height="39.9">
										<feFlood  style="flood-color:white;flood-opacity:1" result="back"/>
										<feBlend  in="SourceGraphic" in2="back" mode="normal"/>
									</filter>
								</defs>
								<mask maskUnits="userSpaceOnUse" x="978.5" y="333.6" width="25.1" height="39.9" id="SVGID_14_">
									<g class="st26">
									</g>
								</mask>
								<linearGradient id="SVGID_15_" gradientUnits="userSpaceOnUse" x1="1002.1349" y1="334.0424" x2="980.3398" y2="373.5782">
									<stop  offset="0" style="stop-color:#FFFFFF"/>
									<stop  offset="8.569065e-02" style="stop-color:#F4F4F4"/>
									<stop  offset="0.2341" style="stop-color:#D8D8D8"/>
									<stop  offset="0.4275" style="stop-color:#AAAAAA"/>
									<stop  offset="0.6585" style="stop-color:#6B6B6B"/>
									<stop  offset="0.9184" style="stop-color:#1B1B1B"/>
									<stop  offset="1" style="stop-color:#000000"/>
								</linearGradient>
								<path class="st27" d="M1001,333.6l-22.5,39.8c1.1,0.1,2.2,0.1,3.2,0.1l21.9-38.8C1002.9,334.3,1002,334,1001,333.6z"/>
							</g>
						</mask>
						<linearGradient id="SVGID_16_" gradientUnits="userSpaceOnUse" x1="1002.1349" y1="334.0424" x2="980.3398" y2="373.5782">
							<stop  offset="0" style="stop-color:#E1F3FC"/>
							<stop  offset="0.4445" style="stop-color:#EBF7FD"/>
							<stop  offset="1" style="stop-color:#FFFFFF"/>
						</linearGradient>
						<path class="st28" d="M1001,333.6l-22.5,39.8c1.1,0.1,2.2,0.1,3.2,0.1l21.9-38.8C1002.9,334.3,1002,334,1001,333.6z"/>
					</g>
				</g>
			</g>
		</g>
		<g>
			<path class="st29" d="M942.6,373c0,0-0.1,7.6,7.2,6.2c3.7-0.7,4.9-4.8,1.9-7.3c0,0-7,1.6-9.4-1.5L942.6,373z"/>
			<g>
				<path class="st10" d="M941,351.7c-0.5,3-0.3,6.2,2.2,8.2c2.7,2.2,7.6-0.3,10.7,0.4c5.3,1.1,4.1,6.3,1.1,9
					c-3.6,3.2-8.2,3.1-12.3,1c-0.3-0.2-0.7,0.2-0.4,0.5c5,5,14.4,1.3,16.4-5c0.9-2.9-1.2-5.1-3.6-6.2c-1.8-0.8-3.7-0.5-5.6-0.2
					c-2,0.3-3.9,0.7-5.8-0.1c-2.8-1.2-2.1-5.1-2.3-7.4C941.3,351.5,941,351.4,941,351.7L941,351.7z"/>
			</g>
			<path class="st5" d="M955.4,369.4c3.1-2.8,4.3-8.1-1.2-9.2c-3.2-0.7-8.2,1.9-11-0.4c-0.9-0.7-1.5-1.5-1.9-2.5
				c-0.9,4.7-0.6,9.6,1.7,13.3C947.2,372.5,951.8,372.6,955.4,369.4z"/>
		</g>
		<g>
			<path class="st30" d="M963.7,320.6c-1.2,8.5,15.1-2.4,35.3,3.8C996.9,319,965.9,310.6,963.7,320.6z"/>
		</g>
		<g>
			<path class="st30" d="M920.8,320.6c1.2,8.5-15.1-2.4-35.3,3.8C887.7,319,918.7,310.6,920.8,320.6z"/>
		</g>
		<g>
			<path class="st31" d="M1013.4,545.9c0,24.2,4.5,73.1,4.5,73.1c-23.2,0-59.7,0-59.7,0c1-5.8-2.4-31-2.4-31h-27
				c0,0-3.4,25.2-2.4,31c0,0-36.5,0-59.7,0c0,0,4.5-48.9,4.5-73.1"/>
		</g>
		<g>
			<path class="st32" d="M904.6,619.1c3,0,21.7,0,21.7,0c-1-5.8,2.4-31,2.4-31l-1.5,0.1c-3.5,8.5-4,17.9-5.1,27.1
				C921.8,618.5,904.6,619.1,904.6,619.1z"/>
		</g>
		<g>
			<path class="st32" d="M955.8,588.1c0,0,3.4,25.2,2.4,31c0,0,26.5,0,30.1,0c0,0-23.7,0-24.5-3.2c-2.3-9.1-2-18.3-5.3-27.3
				L955.8,588.1z"/>
		</g>
		<g>
			<path class="st33" d="M871.6,545.9h-0.5c0,24.2-4.5,73.1-4.5,73.1c0.9,0,1.8,0,2.7,0C872.9,594.7,875,570.3,871.6,545.9z"/>
		</g>
		<g>
			<path class="st33" d="M1013.4,545.9h-0.3c-2.7,24.5-2,49.1,1.3,73.1c1.2,0,2.4,0,3.5,0C1017.9,619.1,1013.4,570.1,1013.4,545.9z"
				/>
		</g>
		<g>
			<g>
				<g>
					<polygon class="st34" points="942.3,545.9 935.1,567.4 871.1,545.9 935.1,577.9 942.3,556.4 952.7,577.9 1013.4,545.9 
						952.7,567.4 					"/>
				</g>
			</g>
		</g>
		<g>
			<g>
				<path class="st5" d="M871.4,448.9c-39.5,29.4-61.6,56.3-61.6,105.9c-8.8,8.8-6.8,15.2-5.7,19.9c1.5,6.6,12,6.6,12,6.6l0.1-14.7
					c0-2.4,1.9-4.3,4.3-4.3s4.3,1.9,4.3,4.3c0,0,0,7.2,0,7.4c2.4-1.4,5.2-1.3,6.8-3.5c1.2-1.9,0.8-6.5-0.4-8.2
					c-1.7-2.3-3.4-5.5-7.6-8.9c0-41,23.3-72.4,50.9-91.7"/>
			</g>
			<g>
				<path class="st6" d="M837,490.5c0-1.4-2.1-4-4.4-5.9c9.9-12.6,23-23.9,38.8-35.7l3.1,12.6c-19.6,13.7-38.5,35-46.7,62.4
					c-2.7,9.1-4.1,18.5-4.2,29.4C818.2,523.7,834.8,506.9,837,490.5z"/>
			</g>
			<g>
				<path class="st6" d="M828.2,572.5c-1.1,0.4-2.4,0.7-3.5,1.3c0-0.1,0-7.4,0-7.4c0-2.3-1.8-4.2-4.1-4.3
					C825.4,561.1,825.3,568.1,828.2,572.5z"/>
			</g>
			<g>
				<path class="st6" d="M812.8,578.7c0-4.8-1.9-10.7,1.9-14.5c0.5-0.5,1.3-0.5,2.3-0.3c0,0.1-0.1,0.1-0.1,0.2
					c-0.1,0-0.1,0.1-0.2,0.1c0.1,0,0.1-0.1,0.2-0.1c-0.5,0.7-0.8,1.6-0.8,2.5l-0.1,14.7c0,0-10.4,0-12-6.6c-0.3-1.4-0.8-3.1-0.9-4.9
					C804.6,574.3,807.7,577.8,812.8,578.7z"/>
			</g>
			<g>
				<path class="st35" d="M824.6,510.2c0,0-0.1-0.1-0.3-0.3c-0.2-0.2-0.5-0.4-0.8-0.7c-0.2-0.1-0.4-0.3-0.6-0.4
					c-0.2-0.1-0.5-0.3-0.7-0.4c-0.2-0.1-0.5-0.3-0.8-0.4l-0.4-0.2l-0.4-0.1c-0.3-0.1-0.6-0.2-0.8-0.2c-0.3-0.1-0.6-0.1-0.8-0.1
					c-0.3,0-0.5,0-0.8-0.1c-0.3,0-0.5,0-0.7,0c-0.2,0-0.4,0-0.6,0c-0.2,0-0.3,0-0.5,0.1c-0.3,0-0.4,0-0.4,0s0.1,0,0.4-0.1
					c0.1,0,0.3-0.1,0.5-0.1c0.2-0.1,0.4-0.1,0.6-0.1c0.2,0,0.5-0.1,0.7-0.1c0.3,0,0.5,0,0.8,0c0.3,0,0.6,0,0.9,0.1
					c0.3,0.1,0.6,0.1,0.9,0.2c0.3,0.1,0.6,0.2,0.9,0.3c0.3,0.1,0.5,0.3,0.8,0.4c0.5,0.3,0.9,0.7,1.2,1c0.3,0.3,0.6,0.6,0.8,0.8
					C824.6,510,824.6,510.2,824.6,510.2z"/>
				<path class="st35" d="M823.3,512.7c0,0-0.1-0.1-0.3-0.3c-0.2-0.2-0.5-0.4-0.8-0.7c-0.2-0.1-0.4-0.3-0.6-0.4
					c-0.2-0.1-0.5-0.3-0.7-0.4c-0.2-0.1-0.5-0.3-0.8-0.4l-0.4-0.2l-0.4-0.1c-0.3-0.1-0.6-0.2-0.8-0.2c-0.3-0.1-0.6-0.1-0.8-0.1
					c-0.3,0-0.5,0-0.8-0.1c-0.3,0-0.5,0-0.7,0c-0.2,0-0.4,0-0.6,0c-0.2,0-0.3,0-0.5,0.1c-0.3,0-0.4,0-0.4,0s0.1,0,0.4-0.1
					c0.1,0,0.3-0.1,0.5-0.1c0.2-0.1,0.4-0.1,0.6-0.1c0.2,0,0.5-0.1,0.7-0.1c0.3,0,0.5,0,0.8,0c0.3,0,0.6,0,0.9,0.1
					c0.3,0.1,0.6,0.1,0.9,0.2c0.3,0.1,0.6,0.2,0.9,0.4c0.3,0.1,0.5,0.3,0.8,0.4c0.5,0.3,0.9,0.7,1.2,1c0.3,0.3,0.6,0.6,0.8,0.8
					C823.2,512.6,823.3,512.7,823.3,512.7z"/>
				<path class="st35" d="M822.1,515.6c0,0-0.1-0.1-0.3-0.3c-0.2-0.2-0.5-0.4-0.8-0.7c-0.2-0.1-0.4-0.3-0.6-0.4
					c-0.2-0.1-0.5-0.3-0.7-0.4c-0.2-0.1-0.5-0.3-0.8-0.4l-0.4-0.2l-0.4-0.1c-0.3-0.1-0.6-0.2-0.8-0.2c-0.3-0.1-0.6-0.1-0.8-0.1
					c-0.3,0-0.5,0-0.8-0.1c-0.3,0-0.5,0-0.7,0c-0.2,0-0.4,0-0.6,0c-0.2,0-0.3,0-0.5,0.1c-0.3,0-0.4,0-0.4,0s0.1,0,0.4-0.1
					c0.1,0,0.3-0.1,0.4-0.1c0.2-0.1,0.4-0.1,0.6-0.1c0.2,0,0.5-0.1,0.7-0.1c0.3,0,0.5,0,0.8,0c0.3,0,0.6,0,0.9,0.1
					c0.3,0.1,0.6,0.1,0.9,0.2c0.3,0.1,0.6,0.2,0.9,0.3c0.3,0.1,0.5,0.3,0.8,0.4c0.5,0.3,0.9,0.7,1.2,1c0.3,0.3,0.6,0.6,0.8,0.8
					C822,515.5,822.1,515.6,822.1,515.6z"/>
			</g>
			<path class="st10" d="M810.1,562c-1.5,3.4-2.5,7.3-1.7,11.1c0.7,3.3,4.4,5.6,7.6,4.4c0.2-0.1,0.2-0.4,0-0.4
				c-1.7-0.3-3.2-0.2-4.8-1.1c-1.6-1-2.2-3-2.4-4.7c-0.4-3.1,0.5-6.3,1.7-9.1C810.7,561.9,810.2,561.7,810.1,562L810.1,562z"/>
		</g>
		<g>
			<g>
				<path class="st5" d="M1011.1,444.8c39.5,29.4,61.6,56.3,61.6,105.9c8.8,8.8,6.8,15.2,5.7,19.9c-1.5,6.6-12,6.6-12,6.6l-0.1-14.7
					c0-2.4-1.9-4.3-4.3-4.3c-2.4,0-4.3,1.9-4.3,4.3c0,0,0,7.2,0,7.4c-2.4-1.4-5.2-1.3-6.8-3.5c-1.2-1.9-0.8-6.5,0.4-8.2
					c1.7-2.3,3.4-5.5,7.6-8.9c0-41-23.3-72.4-50.9-91.7"/>
			</g>
			<g>
				<path class="st6" d="M1054.2,568.4c1.1,0.4,2.4,0.7,3.5,1.3c0-0.1,0-7.4,0-7.4c0-2.3,1.8-4.2,4.1-4.3
					C1057,557,1057.1,564,1054.2,568.4z"/>
			</g>
			<g>
				<path class="st6" d="M1069.6,574.5c0-4.8,1.9-10.7-1.9-14.5c-0.5-0.5-1.3-0.5-2.3-0.3c0,0.1,0.1,0.1,0.1,0.2
					c0.1,0,0.1,0.1,0.2,0.1c-0.1,0-0.1-0.1-0.2-0.1c0.5,0.7,0.8,1.6,0.8,2.5l0.1,14.7c0,0,10.4,0,12-6.6c0.3-1.4,0.8-3.1,0.9-4.9
					C1077.8,570.2,1074.8,573.7,1069.6,574.5z"/>
			</g>
			<g>
				<path class="st6" d="M1046.2,489.5c0.1-2,4.9-7.5,4.9-7.5s-0.5-0.7-1.2-1.6c-9.9-12.6-23-23.9-38.8-35.7l-3.1,12.6
					c19.6,13.7,38.5,35,46.7,62.4c2.7,9.1,4.1,18.5,4.2,29.4C1064.3,519.5,1048.4,505.9,1046.2,489.5z"/>
			</g>
			<path class="st10" d="M1071.9,558.1c1.2,2.9,1.9,5.9,1.7,9.1c-0.1,1.8-0.9,3.6-2.4,4.7c-1.4,1.1-3.2,0.8-4.8,1.1
				c-0.2,0-0.2,0.3,0,0.4c3.2,1.2,6.4-0.9,7.5-3.9c1.4-3.6,0-8.2-1.5-11.6C1072.2,557.6,1071.7,557.8,1071.9,558.1L1071.9,558.1z"/>
			<g>
				<path class="st35" d="M1060,511c0,0,0.1-0.1,0.3-0.3c0.2-0.2,0.5-0.4,0.8-0.7c0.2-0.1,0.4-0.3,0.6-0.4c0.2-0.1,0.5-0.3,0.7-0.4
					c0.2-0.1,0.5-0.3,0.8-0.4l0.4-0.2l0.4-0.1c0.3-0.1,0.6-0.2,0.8-0.2c0.3-0.1,0.6-0.1,0.8-0.1c0.3,0,0.5,0,0.8-0.1
					c0.3,0,0.5,0,0.7,0c0.2,0,0.4,0,0.6,0c0.2,0,0.3,0,0.5,0.1c0.3,0,0.4,0,0.4,0s-0.1,0-0.4-0.1c-0.1,0-0.3-0.1-0.5-0.1
					c-0.2-0.1-0.4-0.1-0.6-0.1c-0.2,0-0.5-0.1-0.7-0.1c-0.3,0-0.5,0-0.8,0c-0.3,0-0.6,0-0.9,0.1c-0.3,0.1-0.6,0.1-0.9,0.2
					c-0.3,0.1-0.6,0.2-0.9,0.3c-0.3,0.1-0.5,0.3-0.8,0.4c-0.5,0.3-0.9,0.7-1.2,1c-0.3,0.3-0.6,0.6-0.8,0.8
					C1060,510.8,1060,511,1060,511z"/>
				<path class="st35" d="M1061.3,513.5c0,0,0.1-0.1,0.3-0.3c0.2-0.2,0.5-0.4,0.8-0.7c0.2-0.1,0.4-0.3,0.6-0.4
					c0.2-0.1,0.5-0.3,0.7-0.4c0.2-0.1,0.5-0.3,0.8-0.4l0.4-0.2l0.4-0.1c0.3-0.1,0.6-0.2,0.8-0.2c0.3-0.1,0.6-0.1,0.8-0.1
					c0.3,0,0.5,0,0.8-0.1c0.3,0,0.5,0,0.7,0c0.2,0,0.4,0,0.6,0c0.2,0,0.3,0,0.5,0.1c0.3,0,0.4,0,0.4,0s-0.1,0-0.4-0.1
					c-0.1,0-0.3-0.1-0.5-0.1c-0.2-0.1-0.4-0.1-0.6-0.1c-0.2,0-0.5-0.1-0.7-0.1c-0.3,0-0.5,0-0.8,0c-0.3,0-0.6,0-0.9,0.1
					c-0.3,0.1-0.6,0.1-0.9,0.2c-0.3,0.1-0.6,0.2-0.9,0.4c-0.3,0.1-0.5,0.3-0.8,0.4c-0.5,0.3-0.9,0.7-1.2,1c-0.3,0.3-0.6,0.6-0.8,0.8
					C1061.3,513.4,1061.3,513.5,1061.3,513.5z"/>
				<path class="st35" d="M1062.5,516.4c0,0,0.1-0.1,0.3-0.3c0.2-0.2,0.5-0.4,0.8-0.7c0.2-0.1,0.4-0.3,0.6-0.4
					c0.2-0.1,0.5-0.3,0.7-0.4c0.2-0.1,0.5-0.3,0.8-0.4l0.4-0.2l0.4-0.1c0.3-0.1,0.6-0.2,0.8-0.2c0.3-0.1,0.6-0.1,0.8-0.1
					c0.3,0,0.5,0,0.8-0.1c0.3,0,0.5,0,0.7,0c0.2,0,0.4,0,0.6,0c0.2,0,0.3,0,0.5,0.1c0.3,0,0.4,0,0.4,0s-0.1,0-0.4-0.1
					c-0.1,0-0.3-0.1-0.4-0.1c-0.2-0.1-0.4-0.1-0.6-0.1c-0.2,0-0.5-0.1-0.7-0.1c-0.3,0-0.5,0-0.8,0c-0.3,0-0.6,0-0.9,0.1
					c-0.3,0.1-0.6,0.1-0.9,0.2c-0.3,0.1-0.6,0.2-0.9,0.3c-0.3,0.1-0.5,0.3-0.8,0.4c-0.5,0.3-0.9,0.7-1.2,1c-0.3,0.3-0.6,0.6-0.8,0.8
					C1062.6,516.3,1062.5,516.4,1062.5,516.4z"/>
			</g>
		</g>
		<g>
			<path class="st36" d="M1037.7,705.5V593.1c0-6.4,5.2-11.6,11.6-11.6h25.5c6.4,0,11.6,4.9,11.6,11.6v112.4H1037.7z"/>
			<path class="st37" d="M1037.7,694.2v11.3h48.7v-10.3C1070.1,693.2,1054.1,690.9,1037.7,694.2z"/>
			<path class="st38" d="M1057.6,581.6v-19.1c0-2.5,2-4.4,4.4-4.4c2.5,0,4.4,2,4.4,4.4v19.1H1057.6z"/>
			<rect x="1060.9" y="581.5" class="st38" width="1.8" height="124"/>
			<path class="st38" d="M1083.3,705.5c-1.7,3.9-1.7,3.9-2.9,3.9s-1.2,0-2.7-3.9H1083.3z"/>
			<path class="st38" d="M1046.5,705.5c-1.7,3.9-1.7,3.9-2.9,3.9c-1.2,0-1.2,0-2.7-3.9H1046.5z"/>
		</g>
		<g>
			<g>
				<g>
					<path class="st39" d="M914,715.3c0,2.8,3.3,6.4,2.5,13.3c0,0-5.1,1-8.4,1c-4.2-2.4-9.1-0.6-11.9,1.6
						c-5.1,4.8-25.3,3.3-35.5,0.9c9.5-7.5,28.6-18,41.4-17.6c0,0,2,3.7,6,3.7c2.9,0,4.2-2.2,5-3C913.4,714.8,914,715.3,914,715.3z"
						/>
				</g>
				<g>
					<path class="st40" d="M916.4,728.6c0,0-5.1,1-8.4,1c-4.2-2.4-9.1-0.6-11.9,1.6c-5.1,4.8-25.3,3.3-35.5,0.9v2.5
						c10.1,2.4,30.4,4,35.5-0.9c2.8-2.1,7.7-4,11.9-1.6c3.3,0,8.4-1,8.4-1C916.6,729.8,916.4,728.6,916.4,728.6z"/>
				</g>
			</g>
			<path class="st40" d="M890.4,715.3c0.3,0.6,0.7,1.2,1.1,1.8c0.4,0.6,0.6,1.3,1,1.8c0.1,0.1,0.4,0.2,0.4-0.1c0.3-1.5-1.1-2.9-2-4
				C890.7,714.6,890.3,715,890.4,715.3L890.4,715.3z"/>
			<path class="st40" d="M887.3,716.4c0.5,0.5,0.9,1.1,1.2,1.8c0.3,0.6,0.5,1.2,1,1.6c0.2,0.1,0.4,0.1,0.4-0.2
				c0-0.7-0.4-1.4-0.8-2.1c-0.4-0.6-0.9-1.2-1.5-1.6C887.3,715.8,887.1,716.2,887.3,716.4L887.3,716.4z"/>
			<path class="st40" d="M884.1,717.7c0.9,0.9,1,2.2,1.8,3.2c0.1,0.2,0.4,0.1,0.4-0.1c0-1.3-0.7-2.9-1.8-3.6
				C884.2,717,883.9,717.5,884.1,717.7L884.1,717.7z"/>
		</g>
		<g>
			<g>
				<g>
					<path class="st39" d="M967.2,715.2c0,2.8-3.3,6.4-2.5,13.3c0,0,5.1,1,8.4,1c4.2-2.4,9.1-0.6,11.9,1.6
						c5.1,4.8,25.3,3.3,35.5,0.9c-9.5-7.5-28.6-18-41.4-17.6c0,0-2,3.7-6,3.7c-2.9,0-4.2-2.2-5-3
						C967.7,714.7,967.2,715.2,967.2,715.2z"/>
				</g>
				<g>
					<path class="st40" d="M964.7,728.5c0,0,5.1,1,8.4,1c4.2-2.4,9.1-0.6,11.9,1.6c5.1,4.8,25.3,3.3,35.5,0.9v2.5
						c-10.1,2.4-30.4,4-35.5-0.9c-2.8-2.1-7.7-4-11.9-1.6c-3.3,0-8.4-1-8.4-1C964.5,729.8,964.7,728.5,964.7,728.5z"/>
				</g>
			</g>
			<path class="st40" d="M990.2,714.8c-1,1-2.3,2.5-2,4c0,0.2,0.3,0.2,0.4,0.1c0.4-0.6,0.6-1.2,1-1.8c0.4-0.6,0.8-1.2,1.1-1.8
				C990.8,714.9,990.4,714.5,990.2,714.8L990.2,714.8z"/>
			<path class="st40" d="M993.5,715.9c-0.7,0.4-1.1,1-1.5,1.6c-0.4,0.6-0.8,1.3-0.8,2.1c0,0.2,0.3,0.3,0.4,0.2
				c0.5-0.4,0.7-1.1,1-1.6c0.3-0.6,0.8-1.2,1.2-1.8C994,716.1,993.8,715.7,993.5,715.9L993.5,715.9z"/>
			<path class="st40" d="M996.6,717.2c-1.1,0.7-1.8,2.3-1.8,3.6c0,0.2,0.3,0.3,0.4,0.1c0.8-1,0.9-2.3,1.8-3.2
				C997.2,717.4,996.9,717,996.6,717.2L996.6,717.2z"/>
		</g>
		<g>
			<path class="st41" d="M844.8,694.6c0,0,2.9-31.9,2.9-54.5c0-22.6-2.9-42.9-2.9-42.9c-1.2-6.4-5.2-11.6-11.6-11.6h-25.5
				c-6.4,0-10.1,4.8-11.6,11.6c0,0-4.2,25.9-4.2,45.8c0,19.9,4.2,51.6,4.2,51.6H844.8z"/>
			<path class="st42" d="M794.8,683.7c0.7,6.5,1.3,10.9,1.3,10.9h48.7c0,0,0.5-5,1-12.5C829,685.2,811.7,685.7,794.8,683.7z"/>
			<path class="st38" d="M824.9,585.7v-19.1c0-2.5-2-4.4-4.4-4.4c-2.5,0-4.4,2-4.4,4.4v19.1H824.9z"/>
			<rect x="819.8" y="585.6" class="st38" width="1.8" height="109"/>
			<path class="st38" d="M799.2,694.6c1.7,3.9,1.7,3.9,2.9,3.9c1.2,0,1.2,0,2.7-3.9H799.2z"/>
			<path class="st38" d="M836,694.6c1.7,3.9,1.7,3.9,2.9,3.9c1.2,0,1.2,0,2.7-3.9H836z"/>
			<path class="st38" d="M802.5,588.6c1.7,0.3,1.3,7.5,1.4,8.7c0.1,5-0.1,10.1-0.2,15.1c-0.3,8.7-0.9,17.5-0.9,26.2
				c0.1,10.3,0.4,20.6,0.2,30.9c-0.1,4.7-0.3,9.4-0.8,14.1c-0.3,2.2-0.6,7.2-3,8.3c-0.2,0.1,0,0.3,0.1,0.3c1.9-0.7,2.4-3.3,2.7-5
				c1-4.3,1.1-8.9,1.3-13.3c0.5-11.7,0-23.5-0.1-35.2c-0.1-10.2,0.7-20.5,1-30.7c0.1-5,0.3-10.1-0.1-15.1c-0.1-1,0-4.4-1.5-4.6
				C802.4,588.2,802.3,588.6,802.5,588.6L802.5,588.6z"/>
			<path class="st38" d="M840.6,588.8c-1.4,0.2-1.4,3.6-1.5,4.6c-0.5,5-0.3,10.1-0.1,15.1c0.3,10.2,1.1,20.4,1,30.7
				c-0.1,11.7-0.5,23.5-0.1,35.2c0.2,4.4,0.4,9,1.3,13.3c0.3,1.7,0.9,4.3,2.7,5c0.2,0.1,0.3-0.2,0.1-0.3c-2.2-1-2.5-5.1-2.8-7.1
				c-0.8-4.7-0.9-9.6-1-14.4c-0.2-10.3,0.1-20.7,0.2-31c0.1-8.7-0.5-17.4-0.8-26.1c-0.2-5.1-0.3-10.2-0.3-15.3
				c0-1.2-0.4-9.1,1.4-9.4C841,589.2,840.9,588.8,840.6,588.8L840.6,588.8z"/>
		</g>
		<g>
			<g>
				<g>
					<path class="st43" d="M1055.5,474c-14.6-20.9-43.3-39.9-43.3-39.9l-1.3,1.8l-68.7,35.1l-69.6-35.5l0-0.6c0,0-0.2,0.1-0.5,0.3
						l-1.1-0.6v1.4c-6.5,4.6-31.5,22.7-45,38.1l26.8,21.7l18.2-17.6v67.8l64,21.5l7.2-21.5l10.4,21.5l60.7-21.5v-71.3l17.1,21.1
						L1055.5,474z"/>
				</g>
				<g>
					<path class="st44" d="M873.2,472l-23.3,21.2l3,2.5l17.4-16.8C871.4,476.6,872.5,474.4,873.2,472L873.2,472z"/>
				</g>
				<g>
					<path class="st44" d="M1030.5,495.7l3.7-3.2l-23.7-22.9c0.8,2,1.8,3.8,2.8,5.6v-0.6L1030.5,495.7z"/>
				</g>
				<path class="st45" d="M942.3,470.9c0,0,0,1.2,0.1,3.2c0,2.1,0.1,5,0.1,8.5c0,3.5,0.1,7.6,0.1,12c0,4.4,0,9.1,0,13.8
					c0,4.7,0,9.4,0,13.8c0,4.4-0.1,8.5-0.1,12c-0.1,3.5-0.1,6.4-0.1,8.5c0,2.1-0.1,3.2-0.1,3.2s0-1.2-0.1-3.2c0-2.1-0.1-5-0.1-8.5
					c0-3.5-0.1-7.6-0.1-12c0-4.4,0-9.1,0-13.8c0-4.7,0-9.4,0-13.8c0-4.4,0.1-8.5,0.1-12c0.1-3.5,0.1-6.4,0.1-8.5
					C942.2,472.1,942.3,470.9,942.3,470.9z"/>
				<g>
					<path class="st45" d="M1013.4,434.6c-0.5-0.6-0.5-7.7-0.5-7.7c-24.2,10.7-55,27.5-70.7,44c18.4-9.7,44.2-14.4,65.8-18.7
						c0,0-2.9-3.2-3.4-4.9c0,0,14-0.5,17.9-0.7C1022.6,446.6,1017.5,441.7,1013.4,434.6z"/>
				</g>
				<g>
					<path class="st45" d="M871.5,435.3c0.5-0.6,0.1-8.4,0.1-8.4c24.2,10.7,55,27.5,70.7,44c-18.4-9.7-43.9-14.3-65.5-18.5
						c0,0,2.5-2.4,3.1-5.1c0,0-11.8-0.9-15.8-1.1C864.1,446.2,868.5,440.1,871.5,435.3z"/>
				</g>
				<g>
					<path class="st46" d="M1001.8,440.9c1,2.9,2.9,3.9,3.9,4.8c-21.3,5.8-45.1,15.5-63.4,25.2c15.7-16.6,46.9-37.9,71.2-48.5
						c0,0,10.7,12.7,13.6,18.5C1019.3,438,1010.6,439,1001.8,440.9z"/>
				</g>
				<g>
					<path class="st46" d="M882.7,440.9c-1,2.9-2.9,3.9-3.9,4.8c21.3,5.8,45,15.5,63.4,25.2c-15.7-16.6-46.9-37.9-71.1-48.5
						c0,0-10.7,12.7-13.6,18.5C865.3,438,874,439,882.7,440.9z"/>
				</g>
				<circle class="st40" cx="942.3" cy="474" r="2"/>
				<circle class="st40" cx="942.3" cy="494.5" r="2"/>
				<circle class="st40" cx="942.3" cy="514.9" r="2"/>
				<circle class="st40" cx="942.3" cy="535.4" r="2"/>
			</g>
			<g>
				<g>
					<path class="st47" d="M882,480.2c-1.6,6.4,2.7,17.9,11.1,11.4c7.1-5.5-0.6-10.9-5.5-14.2c0.8,0,11.4,2.2,14.9,0.4
						c2.1-1,4.1-3.1,2.3-5.4c-2.6-3.1-6.5-3.5-9.6-2.1c-3.1,1.3-6.1,2.5-8.7,4.6c-0.1,0.1-0.1,0.1-0.2,0.2l0.2-0.2c0,0,0,0,0,0
						c4.3-4.4,18.4-15.9,9.1-18.5c-6-1.4-10.8,10-11.2,15.8c0,0.7,0,1.3,0,1.8c-0.1-0.5-0.1-1.1,0-1.8c0-3.8-0.3-9.3-1.6-12.3
						c-1.9-3.9-4.8-4.8-6.1,0c-1.2,4.5,0.9,11.4,3.8,14.9c0.3,0.3,0.5,0.5,0.7,0.8c-0.2-0.2-0.5-0.5-0.7-0.8
						c-2.1-2.2-5.8-4.9-9.5-6.1v9.3c2.1,0.1,4.3-0.1,6.4-0.1c-2.5,1.1-4.8,2.9-6.4,4.9v10C876.9,493.7,880.3,484.2,882,480.2z"/>
				</g>
				<g>
					<path class="st47" d="M829.3,470.6c0.4,0.3,0.9,0.5,1.6,0.6c5.8,0.9,9.3-8.4,11.1-12.5C837.2,462.8,832.7,466.9,829.3,470.6z"
						/>
				</g>
				<g>
					<path class="st47" d="M864.9,450.7c-2.6-3.1-6.5-3.5-9.6-2.1c-0.6,0.3-1.3,0.5-1.9,0.8c-4.2,2.5-7.9,5.8-11.4,9.2
						c-1.5,6.5,2.9,17.6,11.2,11.2c7.1-5.5-0.6-10.9-5.5-14.2c0.8,0,11.4,2.2,14.9,0.4C864.7,455.1,866.8,452.9,864.9,450.7z"/>
				</g>
				<g>
					<path class="st48" d="M870.4,478.8l0.7-0.7v67.8l2.1,0.7l0-74.6C872.5,474.4,871.4,476.6,870.4,478.8z"/>
				</g>
				<g>
					<path class="st47" d="M907.1,530.7c-0.5-0.5-0.9-0.9-1.3-1.3C906.2,529.7,906.7,530.1,907.1,530.7c2.7,2.6,6.8,6.4,9.8,7.5
						c4.1,1.4,6.8,0,4.3-4.3c-2.3-4-8.7-7.4-13.3-7.9c-0.4,0-0.7,0-1-0.1c0.3,0,0.7,0,1,0.1c5.3,0.1,15.8-2.2,15.8-8.3
						c0.1-3.8-4.9-3.8-7.6-2.9c-3.6,1.3-5.6,4.5-8.2,6.9c3.2-8-0.9-18.9-5.8-15.2c-4.9,3.6-0.5,12.9,1.1,17
						c-3.4-5.7-14.6-10.7-15.9-0.2c-1.1,8.9,8.2,7.3,13.9,6.1c-0.6,0.6-9.6,6.5-10.9,10.2c-0.7,2.2-0.7,5.1,2.2,5.4
						c4,0.3,7-2.1,8.3-5.3c1.3-3.2,2.6-6.1,2.8-9.4c0-0.1,0-0.2,0-0.3l0,0.2c0,0,0,0,0,0c0,3.9-0.6,14.4,1,17.4c1.6,3,5.5,3.6,7.4,0
						C914.1,544.1,910.3,534.5,907.1,530.7z"/>
				</g>
				<g>
					<path class="st47" d="M984.2,483c0.2,0.2,0.4,0.5,0.6,0.8c3.4,4.1,12,10.5,16.6,6.5c2.9-2.4-0.3-6.2-2.8-7.7
						c-3.3-1.9-7-1.3-10.6-1.7c8.2-2.8,13.7-13,7.7-14.4c-5.9-1.4-10.1,8.1-12.1,11.9c2.1-6.3-1.4-18-10.2-12.2
						c-7.5,4.9-0.2,11,4.4,14.5c-0.8-0.1-11.2-3-14.9-1.5c-2.1,0.9-4.3,2.8-2.6,5.2c2.4,3.3,6.2,3.9,9.4,2.8c3.2-1.1,6.3-2,9-4
						c0.1-0.1,0.1-0.1,0.2-0.2l-0.2,0.2c0,0,0,0,0,0c-4.6,4.1-19.5,14.5-10.5,17.8c5.9,1.9,11.5-9.1,12.4-15c0-0.7,0.1-1.3,0.1-1.8
						c0,0.5,0,1.1-0.1,1.8c-0.2,3.8-0.4,9.3,0.7,12.4c1.6,4,4.5,5.2,6.1,0.5c1.5-4.4-0.1-11.4-2.7-15.2
						C984.6,483.6,984.4,483.3,984.2,483z"/>
				</g>
				<g>
					<path class="st47" d="M1031,453c2.3,1.1,4,1.1,6.4,1c-3.2-2.9-7-6.2-9.8-8.4C1024.9,448.3,1028.5,451.8,1031,453z"/>
				</g>
				<g>
					<path class="st47" d="M1035,468.9c4.2,0.6,7.2-4,9.2-8.2c-1.7-1.7-3.7-3.7-5.3-5.2C1032.4,459.7,1029.5,468,1035,468.9z"/>
				</g>
				<g>
					<g>
						<path class="st47" d="M1002.9,506.3c-2.2-0.6-5.2-0.4-5.3,2.5c-0.1,4.1,2.5,6.9,5.7,8c3.2,1.1,6.2,2.3,9.5,2.4
							c0.1,0,0.2,0,0.3,0l-0.2,0c0,0,0,0,0,0c-6.1,0.4-24.3-0.5-19.2,7.6c3.5,5.1,14.7-0.2,19-4.2c0.3-0.3,0.5-0.6,0.7-0.8v-5.5
							C1012,514.6,1006.4,507.3,1002.9,506.3z"/>
					</g>
					<g>
						<path class="st49" d="M976.3,556c0.5-0.3,0.9-0.6,1.2-0.9C977.2,555.4,976.8,555.7,976.3,556z"/>
					</g>
					<g>
						<path class="st49" d="M977.3,553.4c-0.1,0-0.1,0-0.2,0c0,0,0,0,0,0L977.3,553.4z"/>
					</g>
					<g>
						<path class="st49" d="M980,557.3c0.1-0.3,0.1-0.6,0.2-0.8C980.1,556.7,980,557,980,557.3z"/>
					</g>
					<g>
						<path class="st47" d="M982.7,553.8c5-2.1,10.4-10.5,2.1-12.9c-7-2-6.9,5.8-6.7,10.5c-0.4-0.5-4.1-8.6-7-10
							c-1.7-0.9-4.1-1.2-4.6,1.1c-0.7,3.2,0.9,5.9,3.3,7.4c2.4,1.4,4.6,2.8,7.3,3.4c0.1,0,0.2,0,0.2,0l-0.2,0c0,0,0,0,0,0
							c-5-0.7-19.4-4.3-16.6,3c2,4.7,11.8,2.2,15.9-0.3c0.4-0.3,0.5-0.3,0,0c-1.5,1.1-4.5,3.6-6,5.2c2.8-1,23.8-8.4,23.8-8.4
							C990.6,551.7,985.3,553.2,982.7,553.8z"/>
					</g>
					<g>
						<path class="st47" d="M1012.7,522.6c-2.5,2.8-6,7.1-7,10.2c-1.2,4.2,0.3,6.8,4.5,4.1c1.2-0.8,2.3-1.9,3.3-3.2v-11.8
							C1013.2,522.1,1012.9,522.4,1012.7,522.6z"/>
					</g>
					<g>
						<path class="st48" d="M1010.5,469.6V547l2.9-1v-70.7C1012.4,473.4,1011.4,471.6,1010.5,469.6L1010.5,469.6z"/>
					</g>
				</g>
			</g>
		</g>
		<g>
			<path class="st50" d="M858.3,311.8c0,0-36.7-34.5-18.1-51.7c21.1-19.5,123.6-57.1,189.6-16.1c44.8,27.8-4.3,68-4.3,68
				s11.4-54.3-47.1-56.8C917.8,252.6,855.9,265.1,858.3,311.8z"/>
			<path class="st50" d="M867.6,244.5c0,0,0.5-16.7,8-28.3c7.5-11.6,19.9-35.2,22-42.7c2.1-7.5,23.6-10.8,36.5-7.5
				c12.9,3.3,23.6,9.1,32.3,11.6c8.7,2.5,29.5-3.8,48.9,58.8c0,0-21.7-13.1-66.4-10.8C904,227.9,867.6,244.5,867.6,244.5z"/>
			<path class="st51" d="M1030.1,243.8c-55.3-34.3-136.2-13.5-173.4,5.6c38.5-18.7,116.5-37.4,170.3-4.1c37.4,23.2,9,55.1-1.3,65
				c-0.1,0.9-0.3,1.7-0.3,1.7S1074.9,271.6,1030.1,243.8z"/>
			<path class="st52" d="M1015.3,236.2c-1.6-5.2-3.2-9.9-4.8-14.2c-47-17.9-104.9-6-140.8,8.8c-1.4,5.9-1.9,11.1-2.1,13.4
				C904.3,228.5,966.5,215.3,1015.3,236.2z"/>
		</g>
		<g>
			<g>
				<path class="st7" d="M1018.1,223c-2.5,13.7-16.3,10-25.6,5.6c-0.9-0.4-1.8-0.9-2.7-1.3c-58.8-17.7-68.8,29.7-98.9,39.4
					c1.8,6.3,4.3,12.6,9.4,19.4c6.8-23.4,52,2.5,64.4,4.2C1012.9,296.8,1033,255.9,1018.1,223z"/>
			</g>
			<g>
				<path class="st9" d="M958.3,228.8c16.5,0,32.9,7.7,49.4,5.8c5,0,8-3.7,9.5-8.3c-4,9.7-16.2,6.2-24.7,2.3
					c-0.9-0.4-1.8-0.9-2.7-1.3c-28.1-8.5-45.1-2.1-58.4,8C939.6,231.1,948.5,228.5,958.3,228.8z"/>
			</g>
			<g>
				<path class="st8" d="M1021.1,231.3c-0.2,6.7-1.9,13.2-4.7,18.8c-21.3,41.6-70.7,12.6-106.5,13.6c8.7-7.7,20.3-10.7,31-10.7
					c-13.2-4.1-25.7,1.6-37.5,7c-3.9,2.8-8.6,5.4-13.1,6.8c1.8,6.3,4.9,12.4,10,19.2c6.8-23.4,52,2.5,64.4,4.2
					C1008.9,296.3,1029.5,262.4,1021.1,231.3z"/>
			</g>
		</g>
	</g>
</g>
<g>
	<path class="st53" d="M1280,11.2c-1.6,0.9-3.1,1.9-4.6,3c-2.7,7-2.1,13.3-3.2,20.3c-3.1-1.2-6.1-5-5.6-8.5
		c-3.6,7.1-3.7,12.2-3.9,21c-5.3-23-29.3-39.1-45.5-43.6c-35.3-10.2-87.7,3.2-112,34.3c11.4-7.1,23-3.8,35.9-4.1
		c5.9-6.1,13.9-10.6,20.3-16.3c0,0-2.7,12.6-3.6,16.9c10.1-2.8,25,0,34.5,4.1c4.7-4.8,16-9.8,22.3-11.2c-4.7,4-11.5,11.4-14.1,16.6
		c7.2,3.7,14,12.3,17.2,19.1c-8.3-4.6-72.2-19.6-111,22c-34.3,36.9-37.4,50.3-45.8,79.3c1.3-4.3,19.5-27.8,30.9-33.6
		c22.7-11.6,27.8-13,53.2-15.1c3-7,4.5-17.3,6.7-24.3c3.2,6.8,8,17.1,9.2,24.9c12.7-12.3,40.7-15.4,56.6-13.5
		c-10.7,13.6-24.5,29.3-31.6,39.8c0,0,2.9,6.7,2.4,7.6c-0.8,1.2-9.2,3.1-11.4,5.4c0,0-16.4,23-13.6,23.5c1.2,0,22.6,6.6,24.4,7.2
		c8.8,2.2,29.5-29.1,29.5-29.1c25-42.1,58.4-14.2,58.4-14.2c1.4,0.2,2.8,0.4,4.3,0.5V11.2z"/>
</g>
<g>
	<path class="st54" d="M1276.1,99.1c-2.1-6.3-2.6-12.9-5.1-19.6c-24.3-14-67.8-5.3-88.3,3.8c0,0,89.1,7.1,86.5,76.6
		c-1.8-1.3-3.6-2.8-5.2-4.5c-28.6-15.9-86-7.2-110.5,5.1c-53,26.5-79.1,64.9-79.1,119.9c6.7-13,15.2-22.9,24.2-30.4
		c3.4-10.1,10.1-18.9,20.3-24.2c-2.8,5.2-5.6,10.4-8.3,15.5c22-13.5,42.9-14.9,42.9-14.9c0-5,2.5-17.6,2.5-18.8
		c5,1.3,13.8,6.3,16.3,11.3c7.2-6.1,16.9-10.8,27.2-13.6c-0.6-3.6-1.1-7.2-1.5-10.8c2.9,2.9,5.9,5.9,8.5,9.2
		c10.9-2.1,21.9-2.2,31.2,0.1c-24.4,19.1-40,40.3-49.7,60.9c0.8,3.6,2.4,7.1,4.1,10.4c-2.4-1.2-4.9-2.2-7.3-3
		c-20.5,50.7-6.9,96.1-4.1,96.1c-1.7-7.2,5.7-28,14.8-46c-1.1-3-2.1-6-3.4-9c2.4,0.5,4.8,1.3,6.7,2.5c6.3-11.5,12.8-20.9,17.5-23.3
		c0,0-2.7-8.5-1.7-17.7c0,0,1.8,4.8,6,8.6c10-9,36.8-28.9,59.4-39V95.8C1279,97.2,1277.7,98.4,1276.1,99.1z"/>
</g>
</svg>
