<?xml version="1.0" encoding="utf-8"?>
<!-- Generator: Adobe Illustrator 18.1.1, SVG Export Plug-In . SVG Version: 6.00 Build 0)  -->
<!DOCTYPE svg PUBLIC "-//W3C//DTD SVG 1.1//EN" "http://www.w3.org/Graphics/SVG/1.1/DTD/svg11.dtd">
<svg version="1.1" id="Layer_1" xmlns="http://www.w3.org/2000/svg" xmlns:xlink="http://www.w3.org/1999/xlink" x="0px" y="0px"
	 width="1920px" height="709.3px" viewBox="822 -104.3 1920 709.3" style="enable-background:new 822 -104.3 1920 709.3;"
	 xml:space="preserve">
<style type="text/css">
	.st0{fill:url(#SVGID_1_);}
	.st1{fill:#D6F1F2;}
	.st2{fill:url(#SVGID_2_);}
	.st3{fill:url(#SVGID_3_);}
	.st4{fill:url(#SVGID_4_);}
	.st5{fill:#FDD3A1;}
	.st6{fill:#EAB180;}
	.st7{fill:#7A4E25;}
	.st8{fill:#5C3A14;}
	.st9{fill:#9A6433;}
	.st10{fill:#DC9969;}
	.st11{fill:#231F20;}
	.st12{fill:#162B36;}
	.st13{clip-path:url(#SVGID_9_);}
	.st14{clip-path:url(#SVGID_10_);fill:url(#SVGID_11_);}
	.st15{opacity:0.3;fill:url(#SVGID_12_);enable-background:new    ;}
	.st16{clip-path:url(#SVGID_17_);}
	.st17{clip-path:url(#SVGID_18_);fill:url(#SVGID_19_);}
	.st18{opacity:0.3;fill:url(#SVGID_20_);enable-background:new    ;}
	.st19{clip-path:url(#SVGID_25_);}
	.st20{clip-path:url(#SVGID_26_);fill:url(#SVGID_27_);}
	.st21{opacity:0.3;fill:url(#SVGID_28_);enable-background:new    ;}
	.st22{clip-path:url(#SVGID_33_);}
	.st23{clip-path:url(#SVGID_34_);fill:url(#SVGID_35_);}
	.st24{opacity:0.3;fill:url(#SVGID_36_);enable-background:new    ;}
	.st25{fill:#E3A477;}
	.st26{fill:#4E3319;}
	.st27{fill:#6DA15D;}
	.st28{fill:#5B894E;}
	.st29{fill:#87BD71;}
	.st30{fill:#5C8A4E;}
	.st31{fill:#704615;}
	.st32{fill:#675E4F;}
	.st33{fill:#4B4539;}
	.st34{fill:#271400;}
	.st35{fill:#3F2900;}
	.st36{fill:#FFFFFF;}
	.st37{fill:#735022;}
	.st38{fill:#4D340A;}
	.st39{fill:#63BCD2;}
	.st40{fill:#54A9D1;}
	.st41{fill:#4A95B9;}
	.st42{fill:#87C5D3;}
	.st43{fill:#FFEFCC;}
	.st44{fill:#7E8083;}
	.st45{fill:#FFC645;}
	.st46{fill:#161C2D;}
	.st47{fill:#374054;}
	.st48{fill:#B47142;}
	.st49{fill:#448164;}
	.st50{fill:#549A78;}
</style>
<linearGradient id="SVGID_1_" gradientUnits="userSpaceOnUse" x1="1987.9" y1="1143.2781" x2="1987.9" y2="821.1555" gradientTransform="matrix(1 0 0 1 0 -497.4)">
	<stop  offset="0" style="stop-color:#FFFFFF;stop-opacity:0"/>
	<stop  offset="1" style="stop-color:#D7D7D7"/>
</linearGradient>
<polygon class="st0" points="2753.8,608.5 1222,608.5 1929.3,450.7 2753.8,450.7 "/>
<g>
	<path class="st1" d="M1902.9,239.5c15.6-23.4,55.9-24.7,80.6-19.5c6.5-37.7,58.5-54.6,62.4-6.5c13-6.5,29.9-7.8,35.1,7.8
		c16.9-5.2,32.2,5.9,45.2,17.6C2051.5,238.9,1902.9,239.5,1902.9,239.5z"/>
</g>
<g>
	<path class="st1" d="M2236.2,221.2c0-8.2,33.6-22.5,62.5-22.4l0,0c9.7-18.6,39.6-23.1,51.1-4.5c0-30,29.2-43.8,64.4-31.8
		c18.5,6.7,34,24.4,23.7,48.2c9.7-0.7,20.3,1.5,23.8,10.4C2384.5,221.2,2236.2,221.2,2236.2,221.2z"/>
</g>
<g>
	<path class="st1" d="M2208.1,137c14.8-15.6,42.8-12.5,62.3-13.2l0,0c5.5-15.6,17.1-30.4,33.5-34.3c12.5-3.1,31.9-2.3,35,13.2
		c0,0-1.3-39.7,38.7-39.7c39.9,0,31.4,43.6,31.4,43.6c19.5-14.8,42.1-16.4,56.9,5.5c3.9,5.5,1.6,7.8,7.8,9.3
		c3.1,1.6,11.7-0.8,16.4,0c10.1,1.6,21.8,4.7,29.6,11.7C2476.1,137,2208.1,137,2208.1,137z"/>
</g>
<g>
	
		<linearGradient id="SVGID_2_" gradientUnits="userSpaceOnUse" x1="2049.7146" y1="1078.0947" x2="2298.2332" y2="1078.0947" gradientTransform="matrix(1 0 0 1 0 -497.4)">
		<stop  offset="0" style="stop-color:#FFFFFF;stop-opacity:0"/>
		<stop  offset="1" style="stop-color:#F2F2F2"/>
	</linearGradient>
	<polygon class="st2" points="2247.3,552.9 2193.3,592.1 2182.6,591.8 2174.6,598.8 2125.5,598.6 2132.7,590 2122.1,588.5 
		2161,565.5 2203.2,555.3 2192.2,553.9 2152.2,558.4 2099.6,585.3 2089.5,583.8 2049.7,608.5 2217.6,608.5 2231.9,593 2220.1,592 
		2249.8,564.9 2289.6,562 2298.2,558.3 	"/>
	
		<linearGradient id="SVGID_3_" gradientUnits="userSpaceOnUse" x1="2228.4802" y1="1089.2791" x2="2302.8896" y2="1089.2791" gradientTransform="matrix(1 0 0 1 0 -497.4)">
		<stop  offset="0" style="stop-color:#FFFFFF;stop-opacity:0"/>
		<stop  offset="1" style="stop-color:#F2F2F2"/>
	</linearGradient>
	<polygon class="st3" points="2228.5,608.5 2272.7,608.5 2302.9,575.3 2258.6,575.3 	"/>
	
		<linearGradient id="SVGID_4_" gradientUnits="userSpaceOnUse" x1="1994.2953" y1="1085.764" x2="2104.1292" y2="1085.764" gradientTransform="matrix(1 0 0 1 0 -497.4)">
		<stop  offset="0" style="stop-color:#FFFFFF;stop-opacity:0"/>
		<stop  offset="1" style="stop-color:#F2F2F2"/>
	</linearGradient>
	<polygon class="st4" points="1994.3,608.5 2038.5,608.5 2104.1,568.3 2059.8,568.3 	"/>
	<g>
		<g>
			<g>
				<g>
					<rect x="2161.8" y="284.6" class="st5" width="129.9" height="101.6"/>
				</g>
			</g>
		</g>
		<path class="st6" d="M2281.2,292.8h-108.7c-5.8,0-10.6-3.7-10.6-8.4v6.5c0,4.7,4.7,8.4,10.6,8.4h108.7c5.8,0,10.6-3.7,10.6-8.4
			v-6.5C2291.8,289.1,2287,292.8,2281.2,292.8z"/>
		<path class="st5" d="M2291.8,284.6c0,5.8-4.7,10.6-10.6,10.6h-108.7c-5.8,0-10.6-4.7-10.6-10.6v-135c0-5.8,4.7-10.6,10.6-10.6
			h108.7c5.8,0,10.6,4.7,10.6,10.6V284.6z"/>
		<path class="st6" d="M2281.2,139H2181c19.5,2.1,40,13.9,57.7,20.5c18.1,6.2,38.3,3.2,53-7.8v-2.1
			C2291.8,143.7,2287,139,2281.2,139z"/>
		<g>
			<g>
				<path class="st7" d="M2188.4,149c-6.6-28.4-15.3-27.8-19.8-26.8c0,0,3.4,1.8,3,5c-19.4,0-24.7,11-24.2,27.8
					c1,22.4,13.5,43.3,14.4,66.1c-1-36.5,10-41,10-48.3C2162.3,162.7,2173,137.6,2188.4,149z"/>
			</g>
			<g>
				<path class="st7" d="M2261.7,145.3c1.2-17.6,22.8-14.9,25.7-14.8c13,0.5,19.3,7.9,18.8,21.5c-1,22.4-13.8,44.7-14.8,67.7
					c-1.2-44.6-11-40.1-11-48.1C2292.3,156.1,2278.4,136,2261.7,145.3z"/>
			</g>
			<g>
				<path class="st8" d="M2174.2,140.9c3.7-1.9,8.9-1.1,12.4,1.5c-6.3-21.6-14-21-18.1-20.1c0,0,3.4,1.8,3,5
					c-19.4,0-24.7,11-24.2,27.8c0.2,4.8,1,9.7,2,14.4c1-4.8,2.9-9.4,6.2-13.6C2160.9,149.8,2167.1,143.6,2174.2,140.9z"/>
			</g>
			<g>
				<path class="st8" d="M2287.6,130.5c-1.5-0.1-7.6-0.7-13.4,0.7c17.8,4.5,26.9,24.4,28,43.7c2.2-7.7,3.8-15.2,4.2-22.8
					C2306.7,138.3,2300.5,131,2287.6,130.5z"/>
			</g>
			<g>
				<path class="st7" d="M2188.4,149c-28.2-37.6,3.8-69.5,41.3-67.8c16.4,0.5,27.2,14.2,42,21c8.5,3.9,22.1,1.7,24.4-10.8
					c13.6,30-4.7,67.5-48.8,61.4C2235.9,151.3,2194.6,127.6,2188.4,149z"/>
			</g>
			<g>
				<path class="st9" d="M2249.5,96.2c9.6,5.5,18.4,12.2,30,11.6c8.6-0.6,16.6-7.3,16.6-16.1c-0.1-0.1-0.1-0.2-0.1-0.3
					c-2.3,12.5-15.9,14.8-24.4,10.8c-14.8-6.8-25.6-20.5-42-21c-28.9-1.3-54.6,17.4-51.8,43.3c0.5-3.4,1.6-6.8,3.5-9.9
					C2196.3,92.8,2225.6,82.6,2249.5,96.2z"/>
			</g>
		</g>
		<g>
			<path class="st10" d="M2211.1,253c5.6,2.1,11.9,1.6,17.7,0.9c5.8-0.8,12.4-2.2,17.3-5.5c0.3-0.2,0.1-0.8-0.3-0.6
				c-5.1,2.2-10.4,3.8-15.9,4.8c-6,1.1-12.9,2-18.8-0.1C2211,252.4,2210.9,252.8,2211.1,253L2211.1,253z"/>
			<path class="st10" d="M2217.9,278.1c3.7,3.4,5.8-1.6,9.6-1.6c2.1,0,3.8,1.9,5.8,2.6c1.6,0.5,3.3-0.4,4.3-1.6
				c0.2-0.2-0.1-0.5-0.3-0.3c-2.2,1.4-3.6,1.5-5.8,0.2c-1.3-0.7-2.5-1.4-3.9-1.6c-3.6-0.4-5.4,5.5-9.2,2
				C2218.1,277.6,2217.7,277.9,2217.9,278.1L2217.9,278.1z"/>
		</g>
		<g>
			<g>
				<circle class="st5" cx="2298.9" cy="217" r="10.5"/>
				<path class="st6" d="M2289.1,221.1c1.6,3.8,5.4,6.6,9.8,6.6c5.8,0,10.5-4.7,10.5-10.5C2304.7,227.6,2295,226,2289.1,221.1z"/>
			</g>
			<path class="st6" d="M2293.5,219.7c1.4-1.2,2.6-2.5,4.1-3.3c1.6-0.9,3.5-1.2,5.1-1.9c0.4-0.2,0.1-0.6-0.2-0.6
				c-3.6-0.3-8.4,2.1-9.6,5.6C2292.8,219.7,2293.3,219.9,2293.5,219.7L2293.5,219.7z"/>
			<path class="st6" d="M2295.1,218.1c1.3-0.2,2.6-0.2,3.8-0.1c1.3,0.1,2.4,0.6,3.6,1c0.3,0.1,0.5-0.3,0.3-0.5
				c-2-2.1-5.3-1.6-7.8-0.9C2294.7,217.7,2294.9,218.1,2295.1,218.1L2295.1,218.1z"/>
		</g>
		<g>
			<g>
				<circle class="st5" cx="2155.4" cy="217" r="10.5"/>
				<path class="st6" d="M2165.2,221.1c-1.6,3.8-5.4,6.6-9.8,6.6c-5.8,0-10.5-4.7-10.5-10.5C2148.6,227.5,2159.3,228,2165.2,221.1z"
					/>
			</g>
			<path class="st6" d="M2161.4,219.4c-1.2-3.5-6-5.8-9.6-5.6c-0.3,0-0.5,0.5-0.2,0.6c1.5,0.6,3.1,1,4.6,1.7
				c1.8,0.8,3.1,2.3,4.7,3.6C2161,219.9,2161.5,219.7,2161.4,219.4L2161.4,219.4z"/>
			<path class="st6" d="M2159.4,217.6c-2.5-0.6-5.8-1.2-7.8,0.9c-0.2,0.2,0,0.5,0.3,0.5c1.2-0.4,2.3-0.8,3.6-1
				c1.3-0.2,2.6-0.1,3.8,0.1C2159.5,218.1,2159.6,217.7,2159.4,217.6L2159.4,217.6z"/>
		</g>
		<g>
			<path class="st5" d="M2207.3,419.1l-38.9-24.5c-2.9,22.4,0.7,52.4,5.8,79.6c-1.2,1.3-2,2.9-2,4.8c0,2.8,1.7,5.3,4.2,6.3
				c6.7,32.2,14.6,58.1,14.6,58.1l9.5,0.6C2200.6,544.1,2188.1,468,2207.3,419.1z"/>
			<g>
				<path class="st6" d="M2199.4,449.4c-8.3,0-16.5,0.3-24.8,2.1c7.2,2.6,15.1,3.7,16.3,9.5c3.7,27.9,1.1,56.5,9.6,83
					C2200.3,541.9,2192.6,493.3,2199.4,449.4z"/>
			</g>
		</g>
		<g>
			<path class="st5" d="M2277.6,474.7c5.7-27.1,9.7-57.1,6.8-79.3l-38.9,24.5c19.2,48.9,4.2,123.6,4.2,123.6h9.6
				c0,0,8.5-25.3,15.8-57.2c2.8-0.8,4.8-3.5,4.8-6.6C2279.9,477.7,2279,475.9,2277.6,474.7z"/>
			<g>
				<path class="st6" d="M2257.5,450.4L2257.5,450.4c-1.5,0.1-2.8,0.3-4.3,0.5c6.1,44.3-3.6,92.5-3.6,92.5l1.2-0.3
					c2.2-13.4,10.8-44.5,7.5-79.5c-0.5-5.7,23.4-9.4,23.3-10.6C2281.5,452.1,2257.6,451.3,2257.5,450.4z"/>
			</g>
		</g>
		<g>
			<g>
				<path class="st11" d="M2296.9,189.6c-13.8-5-35.6-5.2-50.9-2c-2.6,0.5-11.7,3.5-12.5,3.7c-2.1,0.6-4.2,0.9-6.2,1l0,0
					c-0.3,0-0.6,0-0.9,0s-0.6,0-0.9,0l0,0c-2.1,0-4.1-0.4-6.2-1c-0.7-0.3-10-3.2-12.5-3.7c-15.3-3.2-37.1-3.1-50.9,2
					c0.1,3.7-0.9,8.3,0,12.1c0.5,1.8,2.7,3.9,3.7,5.7c3.2,5.6,4.9,14.3,9.2,18.6c5.3,5.4,17.3,5.8,27.2,5.3
					c14.6-0.9,18.4-8.4,23-19.3c1.6-3.7,2.7-8.6,6.5-9.2l0,0c0.3-0.1,0.6-0.1,0.9-0.1s0.5,0,0.9,0.1l0,0c3.7,0.6,4.8,5.6,6.5,9.2
					c4.7,10.9,8.4,18.4,23,19.3c9.9,0.6,21.9,0.1,27.2-5.3c4.2-4.3,6-13.1,9.2-18.6c1-1.7,3.3-3.8,3.7-5.7
					C2297.8,198,2296.8,193.2,2296.9,189.6z M2214.9,211.8c-1.9,6.7-4.5,11.4-9.2,14.1c-7,3.9-24.5,4.3-31.4,0
					c-4.7-2.9-6.5-8.4-7.7-15.6c-0.8-4.7-1.4-11.4,0.6-14.5c3.5-5.3,18.5-5.5,27.7-4.8c8.6,0.6,19.4,2.7,21.1,8.3
					C2217.2,203.2,2215.8,208.6,2214.9,211.8z M2286.1,210.2c-1.2,7.1-2.9,12.6-7.7,15.6c-6.9,4.3-24.3,3.9-31.4,0
					c-4.7-2.6-7.3-7.4-9.2-14.1c-0.9-3.2-2.3-8.6-1.1-12.5c1.6-5.7,12.5-7.8,21.1-8.3c9.1-0.6,24.2-0.5,27.7,4.8
					C2287.5,198.8,2286.9,205.5,2286.1,210.2z"/>
				<g>
					<path class="st12" d="M2257.8,190.9c-8.6,0.6-19.4,2.7-21.1,8.3c-1.2,3.9,0.2,9.3,1.1,12.5c1.9,6.7,4.5,11.4,9.2,14.1
						c7,3.9,24.5,4.3,31.4,0c4.7-2.9,6.5-8.4,7.7-15.6c0.8-4.7,1.4-11.4-0.6-14.5C2282,190.4,2266.9,190.3,2257.8,190.9z"/>
					<path class="st12" d="M2194.9,190.9c-9.1-0.6-24.2-0.5-27.7,4.8c-2,3.1-1.5,9.8-0.6,14.5c1.2,7.1,2.9,12.6,7.7,15.6
						c6.9,4.3,24.3,3.9,31.4,0c4.7-2.6,7.3-7.4,9.2-14.1c0.9-3.2,2.3-8.6,1.1-12.5C2214.2,193.6,2203.5,191.5,2194.9,190.9z"/>
				</g>
				<g>
					<g>
						<g>
							<g>
								<g>
									<defs>
										<polygon id="SVGID_5_" points="1248.7,-111.3 1249.7,-111.3 1248.7,-110.4 										"/>
									</defs>
									<clipPath id="SVGID_6_">
										<use xlink:href="#SVGID_5_"  style="overflow:visible;"/>
									</clipPath>
								</g>
								<g>
									<defs>
										<polygon id="SVGID_7_" points="1248.7,-111.3 1249.7,-111.3 1248.7,-110.4 										"/>
									</defs>
									<defs>
										<polygon id="SVGID_8_" points="1246.9,-113.1 1246,-113.1 1246.9,-114 										"/>
									</defs>
									<clipPath id="SVGID_9_">
										<use xlink:href="#SVGID_7_"  style="overflow:visible;"/>
									</clipPath>
									<clipPath id="SVGID_10_" class="st13">
										<use xlink:href="#SVGID_8_"  style="overflow:visible;"/>
									</clipPath>
									
										<linearGradient id="SVGID_11_" gradientUnits="userSpaceOnUse" x1="2193.8499" y1="687.9358" x2="2174.1506" y2="723.1807" gradientTransform="matrix(1 0 0 1 0 -497.4)">
										<stop  offset="0" style="stop-color:#FFFFFF"/>
										<stop  offset="8.569065e-02" style="stop-color:#F4F4F4"/>
										<stop  offset="0.2341" style="stop-color:#D8D8D8"/>
										<stop  offset="0.4275" style="stop-color:#AAAAAA"/>
										<stop  offset="0.6585" style="stop-color:#6B6B6B"/>
										<stop  offset="0.9184" style="stop-color:#1B1B1B"/>
										<stop  offset="1" style="stop-color:#000000"/>
									</linearGradient>
									<path class="st14" d="M2194.9,190.8c-3-0.2-6.8-0.4-10.5-0.2l-15.7,28c1.2,3,2.9,5.4,5.5,7c2,1.3,4.8,2.1,8,2.6l20.4-36.5
										C2200.1,191.4,2197.3,191,2194.9,190.8z"/>
								</g>
							</g>
						</g>
						
							<linearGradient id="SVGID_12_" gradientUnits="userSpaceOnUse" x1="2193.8499" y1="687.9358" x2="2174.1506" y2="723.1807" gradientTransform="matrix(1 0 0 1 0 -497.4)">
							<stop  offset="0" style="stop-color:#E1F3FC"/>
							<stop  offset="0.4445" style="stop-color:#EBF7FD"/>
							<stop  offset="1" style="stop-color:#FFFFFF"/>
						</linearGradient>
						<path class="st15" d="M2194.9,190.8c-3-0.2-6.8-0.4-10.5-0.2l-15.7,28c1.2,3,2.9,5.4,5.5,7c2,1.3,4.8,2.1,8,2.6l20.4-36.5
							C2200.1,191.4,2197.3,191,2194.9,190.8z"/>
						<g>
							<g>
								<g>
									<defs>
										<polygon id="SVGID_13_" points="1248.7,-111.3 1249.7,-111.3 1248.7,-110.4 										"/>
									</defs>
									<clipPath id="SVGID_14_">
										<use xlink:href="#SVGID_13_"  style="overflow:visible;"/>
									</clipPath>
								</g>
								<g>
									<defs>
										<polygon id="SVGID_15_" points="1248.7,-111.3 1249.7,-111.3 1248.7,-110.4 										"/>
									</defs>
									<defs>
										<polygon id="SVGID_16_" points="1246.9,-113.1 1246,-113.1 1246.9,-114 										"/>
									</defs>
									<clipPath id="SVGID_17_">
										<use xlink:href="#SVGID_15_"  style="overflow:visible;"/>
									</clipPath>
									<clipPath id="SVGID_18_" class="st16">
										<use xlink:href="#SVGID_16_"  style="overflow:visible;"/>
									</clipPath>
									
										<linearGradient id="SVGID_19_" gradientUnits="userSpaceOnUse" x1="2165.8325" y1="708.5577" x2="2216.3796" y2="708.5577" gradientTransform="matrix(1 0 0 1 0 -497.4)">
										<stop  offset="0" style="stop-color:#FFFFFF"/>
										<stop  offset="8.569065e-02" style="stop-color:#F4F4F4"/>
										<stop  offset="0.2341" style="stop-color:#D8D8D8"/>
										<stop  offset="0.4275" style="stop-color:#AAAAAA"/>
										<stop  offset="0.6585" style="stop-color:#6B6B6B"/>
										<stop  offset="0.9184" style="stop-color:#1B1B1B"/>
										<stop  offset="1" style="stop-color:#000000"/>
									</linearGradient>
									<path class="st17" d="M2208.7,193.4l-19.8,35.5c1,0,1.9,0,2.9,0l19.3-34.4C2210.2,194,2209.5,193.7,2208.7,193.4z"/>
								</g>
							</g>
						</g>
						
							<linearGradient id="SVGID_20_" gradientUnits="userSpaceOnUse" x1="2165.8325" y1="708.5577" x2="2216.3796" y2="708.5577" gradientTransform="matrix(1 0 0 1 0 -497.4)">
							<stop  offset="0" style="stop-color:#E1F3FC"/>
							<stop  offset="0.4445" style="stop-color:#EBF7FD"/>
							<stop  offset="1" style="stop-color:#FFFFFF"/>
						</linearGradient>
						<path class="st18" d="M2208.7,193.4l-19.8,35.5c1,0,1.9,0,2.9,0l19.3-34.4C2210.2,194,2209.5,193.7,2208.7,193.4z"/>
					</g>
					<g>
						<g>
							<g>
								<g>
									<defs>
										<polygon id="SVGID_21_" points="1248.7,-111.3 1249.7,-111.3 1248.7,-110.4 										"/>
									</defs>
									<clipPath id="SVGID_22_">
										<use xlink:href="#SVGID_21_"  style="overflow:visible;"/>
									</clipPath>
								</g>
								<g>
									<defs>
										<polygon id="SVGID_23_" points="1248.7,-111.3 1249.7,-111.3 1248.7,-110.4 										"/>
									</defs>
									<defs>
										<polygon id="SVGID_24_" points="1246.9,-113.1 1246,-113.1 1246.9,-114 										"/>
									</defs>
									<clipPath id="SVGID_25_">
										<use xlink:href="#SVGID_23_"  style="overflow:visible;"/>
									</clipPath>
									<clipPath id="SVGID_26_" class="st19">
										<use xlink:href="#SVGID_24_"  style="overflow:visible;"/>
									</clipPath>
									
										<linearGradient id="SVGID_27_" gradientUnits="userSpaceOnUse" x1="2245.345" y1="722.4672" x2="2266.1702" y2="686.9869" gradientTransform="matrix(1 0 0 1 0 -497.4)">
										<stop  offset="0" style="stop-color:#FFFFFF"/>
										<stop  offset="8.569065e-02" style="stop-color:#F4F4F4"/>
										<stop  offset="0.2341" style="stop-color:#D8D8D8"/>
										<stop  offset="0.4275" style="stop-color:#AAAAAA"/>
										<stop  offset="0.6585" style="stop-color:#6B6B6B"/>
										<stop  offset="0.9184" style="stop-color:#1B1B1B"/>
										<stop  offset="1" style="stop-color:#000000"/>
									</linearGradient>
									<path class="st20" d="M2257.8,190.8c-0.7,0.1-1.6,0.1-2.3,0.2l-15.3,27.1c1.6,3.4,3.8,5.9,6.8,7.6c1.6,0.9,3.9,1.6,6.5,2.2
										l20.8-36.8C2268.9,190.5,2262.5,190.6,2257.8,190.8z"/>
								</g>
							</g>
						</g>
						
							<linearGradient id="SVGID_28_" gradientUnits="userSpaceOnUse" x1="2245.345" y1="722.4672" x2="2266.1702" y2="686.9869" gradientTransform="matrix(1 0 0 1 0 -497.4)">
							<stop  offset="0" style="stop-color:#E1F3FC"/>
							<stop  offset="0.4445" style="stop-color:#EBF7FD"/>
							<stop  offset="1" style="stop-color:#FFFFFF"/>
						</linearGradient>
						<path class="st21" d="M2257.8,190.8c-0.7,0.1-1.6,0.1-2.3,0.2l-15.3,27.1c1.6,3.4,3.8,5.9,6.8,7.6c1.6,0.9,3.9,1.6,6.5,2.2
							l20.8-36.8C2268.9,190.5,2262.5,190.6,2257.8,190.8z"/>
						<g>
							<g>
								<g>
									<defs>
										<polygon id="SVGID_29_" points="1248.7,-111.3 1249.7,-111.3 1248.7,-110.4 										"/>
									</defs>
									<clipPath id="SVGID_30_">
										<use xlink:href="#SVGID_29_"  style="overflow:visible;"/>
									</clipPath>
								</g>
								<g>
									<defs>
										<polygon id="SVGID_31_" points="1248.7,-111.3 1249.7,-111.3 1248.7,-110.4 										"/>
									</defs>
									<defs>
										<polygon id="SVGID_32_" points="1246.9,-113.1 1246,-113.1 1246.9,-114 										"/>
									</defs>
									<clipPath id="SVGID_33_">
										<use xlink:href="#SVGID_31_"  style="overflow:visible;"/>
									</clipPath>
									<clipPath id="SVGID_34_" class="st22">
										<use xlink:href="#SVGID_32_"  style="overflow:visible;"/>
									</clipPath>
									
										<linearGradient id="SVGID_35_" gradientUnits="userSpaceOnUse" x1="2281.4272" y1="690.1782" x2="2261.5283" y2="726.2744" gradientTransform="matrix(1 0 0 1 0 -497.4)">
										<stop  offset="0" style="stop-color:#FFFFFF"/>
										<stop  offset="8.569065e-02" style="stop-color:#F4F4F4"/>
										<stop  offset="0.2341" style="stop-color:#D8D8D8"/>
										<stop  offset="0.4275" style="stop-color:#AAAAAA"/>
										<stop  offset="0.6585" style="stop-color:#6B6B6B"/>
										<stop  offset="0.9184" style="stop-color:#1B1B1B"/>
										<stop  offset="1" style="stop-color:#000000"/>
									</linearGradient>
									<path class="st23" d="M2280.4,192.4l-20.5,36.3c1,0.1,2,0.1,2.9,0.1l20-35.4C2282.2,193,2281.3,192.8,2280.4,192.4z"/>
								</g>
							</g>
						</g>
						
							<linearGradient id="SVGID_36_" gradientUnits="userSpaceOnUse" x1="2281.4272" y1="690.1782" x2="2261.5283" y2="726.2744" gradientTransform="matrix(1 0 0 1 0 -497.4)">
							<stop  offset="0" style="stop-color:#E1F3FC"/>
							<stop  offset="0.4445" style="stop-color:#EBF7FD"/>
							<stop  offset="1" style="stop-color:#FFFFFF"/>
						</linearGradient>
						<path class="st24" d="M2280.4,192.4l-20.5,36.3c1,0.1,2,0.1,2.9,0.1l20-35.4C2282.2,193,2281.3,192.8,2280.4,192.4z"/>
					</g>
				</g>
			</g>
		</g>
		<g>
			<path class="st25" d="M2227.1,228.4c0,0-0.1,6.9,6.6,5.7c3.4-0.6,4.5-4.4,1.7-6.7c0,0-6.4,1.5-8.6-1.4L2227.1,228.4z"/>
			<g>
				<path class="st10" d="M2225.6,208.9c-0.5,2.7-0.3,5.7,2,7.5c2.5,2,6.9-0.3,9.8,0.4c4.8,1,3.7,5.8,1,8.2
					c-3.3,2.9-7.5,2.8-11.2,0.9c-0.3-0.2-0.6,0.2-0.4,0.5c4.6,4.6,13.1,1.2,15-4.6c0.8-2.6-1.1-4.7-3.3-5.7
					c-1.6-0.7-3.4-0.5-5.1-0.2c-1.8,0.3-3.6,0.6-5.3-0.1c-2.6-1.1-1.9-4.7-2.1-6.8C2225.9,208.7,2225.6,208.6,2225.6,208.9
					L2225.6,208.9z"/>
			</g>
			<path class="st5" d="M2238.8,225.1c2.8-2.6,3.9-7.4-1.1-8.4c-2.9-0.6-7.5,1.7-10-0.4c-0.8-0.6-1.4-1.4-1.7-2.3
				c-0.8,4.3-0.5,8.8,1.6,12.1C2231.3,227.9,2235.5,228,2238.8,225.1z"/>
		</g>
		<g>
			<path class="st26" d="M2246.4,180.5c-1.1,7.8,13.8-2.2,32.2,3.5C2276.7,179.1,2248.4,171.4,2246.4,180.5z"/>
		</g>
		<g>
			<path class="st26" d="M2207.2,180.5c1.1,7.8-13.8-2.2-32.2,3.5C2177,179.1,2205.3,171.4,2207.2,180.5z"/>
		</g>
		<g>
			<path class="st27" d="M2291.8,386.2c0,22.1,4.1,66.7,4.1,66.7c-21.2,0-54.5,0-54.5,0c0.9-5.3-2.2-28.3-2.2-28.3h-24.7
				c0,0-3.1,23-2.2,28.3c0,0-33.3,0-54.5,0c0,0,4.1-44.6,4.1-66.7"/>
		</g>
		<g>
			<path class="st28" d="M2192.4,453.1c2.7,0,19.8,0,19.8,0c-0.9-5.3,2.2-28.3,2.2-28.3l-1.4,0.1c-3.2,7.8-3.7,16.3-4.7,24.7
				C2208.1,452.5,2192.4,453.1,2192.4,453.1z"/>
		</g>
		<g>
			<path class="st28" d="M2239.2,424.8c0,0,3.1,23,2.2,28.3c0,0,24.2,0,27.5,0c0,0-21.6,0-22.4-2.9c-2.1-8.3-1.8-16.7-4.8-24.9
				L2239.2,424.8z"/>
		</g>
		<g>
			<path class="st29" d="M2162.3,386.2h-0.5c0,22.1-4.1,66.7-4.1,66.7c0.8,0,1.6,0,2.5,0C2163.5,430.8,2165.4,408.5,2162.3,386.2z"
				/>
		</g>
		<g>
			<path class="st29" d="M2291.8,386.2h-0.3c-2.5,22.4-1.8,44.8,1.2,66.7c1.1,0,2.2,0,3.2,0C2295.9,453.1,2291.8,408.3,2291.8,386.2
				z"/>
		</g>
		<g>
			<g>
				<g>
					<polygon class="st30" points="2226.8,386.2 2220.3,405.9 2161.8,386.2 2220.3,415.4 2226.8,395.8 2236.3,415.4 2291.8,386.2 
						2236.3,405.9 					"/>
				</g>
			</g>
		</g>
		<g>
			<g>
				<path class="st5" d="M2162.1,297.7c-36.1,26.8-56.2,51.4-56.2,96.7c-8,8-6.2,13.9-5.2,18.2c1.4,6,11,6,11,6l0.1-13.4
					c0-2.2,1.7-3.9,3.9-3.9c2.2,0,3.9,1.7,3.9,3.9c0,0,0,6.6,0,6.8c2.2-1.3,4.7-1.2,6.2-3.2c1.1-1.7,0.7-5.9-0.4-7.5
					c-1.6-2.1-3.1-5-6.9-8.1c0-37.4,21.3-66.1,46.5-83.7"/>
			</g>
			<g>
				<path class="st6" d="M2130.7,335.6c0-1.3-1.9-3.7-4-5.4c9-11.5,21-21.8,35.4-32.6l2.8,11.5c-17.9,12.5-35.2,32-42.6,57
					c-2.5,8.3-3.7,16.9-3.8,26.8C2113.5,366,2128.7,350.6,2130.7,335.6z"/>
			</g>
			<g>
				<path class="st6" d="M2122.7,410.5c-1,0.4-2.2,0.6-3.2,1.2c0-0.1,0-6.8,0-6.8c0-2.1-1.6-3.8-3.7-3.9
					C2120.1,400.1,2120,406.5,2122.7,410.5z"/>
			</g>
			<g>
				<path class="st6" d="M2108.6,416.2c0-4.4-1.7-9.8,1.7-13.2c0.5-0.5,1.2-0.5,2.1-0.3c0,0.1-0.1,0.1-0.1,0.2
					c-0.1,0-0.1,0.1-0.2,0.1c0.1,0,0.1-0.1,0.2-0.1c-0.5,0.6-0.7,1.5-0.7,2.3l-0.1,13.4c0,0-9.5,0-11-6c-0.3-1.3-0.7-2.8-0.8-4.5
					C2101.1,412.2,2103.9,415.4,2108.6,416.2z"/>
			</g>
			<g>
				<path class="st31" d="M2119.4,353.6c0,0-0.1-0.1-0.3-0.3c-0.2-0.2-0.5-0.4-0.7-0.6c-0.2-0.1-0.4-0.3-0.5-0.4
					c-0.2-0.1-0.5-0.3-0.6-0.4c-0.2-0.1-0.5-0.3-0.7-0.4l-0.4-0.2l-0.4-0.1c-0.3-0.1-0.5-0.2-0.7-0.2c-0.3-0.1-0.5-0.1-0.7-0.1
					c-0.3,0-0.5,0-0.7-0.1c-0.3,0-0.5,0-0.6,0c-0.2,0-0.4,0-0.5,0c-0.2,0-0.3,0-0.5,0.1c-0.3,0-0.4,0-0.4,0s0.1,0,0.4-0.1
					c0.1,0,0.3-0.1,0.5-0.1c0.2-0.1,0.4-0.1,0.5-0.1c0.2,0,0.5-0.1,0.6-0.1c0.3,0,0.5,0,0.7,0s0.5,0,0.8,0.1
					c0.3,0.1,0.5,0.1,0.8,0.2c0.3,0.1,0.5,0.2,0.8,0.3c0.3,0.1,0.5,0.3,0.7,0.4c0.5,0.3,0.8,0.6,1.1,0.9s0.5,0.5,0.7,0.7
					C2119.4,353.4,2119.4,353.6,2119.4,353.6z"/>
				<path class="st31" d="M2118.2,355.9c0,0-0.1-0.1-0.3-0.3c-0.2-0.2-0.5-0.4-0.7-0.6c-0.2-0.1-0.4-0.3-0.5-0.4
					c-0.2-0.1-0.5-0.3-0.6-0.4c-0.2-0.1-0.5-0.3-0.7-0.4l-0.4-0.2l-0.4-0.1c-0.3-0.1-0.5-0.2-0.7-0.2c-0.3-0.1-0.5-0.1-0.7-0.1
					c-0.3,0-0.5,0-0.7-0.1c-0.3,0-0.5,0-0.6,0c-0.2,0-0.4,0-0.5,0c-0.2,0-0.3,0-0.5,0.1c-0.3,0-0.4,0-0.4,0s0.1,0,0.4-0.1
					c0.1,0,0.3-0.1,0.5-0.1c0.2-0.1,0.4-0.1,0.5-0.1c0.2,0,0.5-0.1,0.6-0.1c0.3,0,0.5,0,0.7,0s0.5,0,0.8,0.1
					c0.3,0.1,0.5,0.1,0.8,0.2s0.5,0.2,0.8,0.4c0.3,0.1,0.5,0.3,0.7,0.4c0.5,0.3,0.8,0.6,1.1,0.9s0.5,0.5,0.7,0.7
					C2118.1,355.8,2118.2,355.9,2118.2,355.9z"/>
				<path class="st31" d="M2117.1,358.6c0,0-0.1-0.1-0.3-0.3c-0.2-0.2-0.5-0.4-0.7-0.6c-0.2-0.1-0.4-0.3-0.5-0.4
					c-0.2-0.1-0.5-0.3-0.6-0.4c-0.2-0.1-0.5-0.3-0.7-0.4l-0.4-0.2l-0.4-0.1c-0.3-0.1-0.5-0.2-0.7-0.2c-0.3-0.1-0.5-0.1-0.7-0.1
					c-0.3,0-0.5,0-0.7-0.1c-0.3,0-0.5,0-0.6,0s-0.4,0-0.5,0c-0.2,0-0.3,0-0.5,0.1c-0.3,0-0.4,0-0.4,0s0.1,0,0.4-0.1
					c0.1,0,0.3-0.1,0.4-0.1c0.2-0.1,0.4-0.1,0.5-0.1c0.2,0,0.5-0.1,0.6-0.1c0.3,0,0.5,0,0.7,0s0.5,0,0.8,0.1
					c0.3,0.1,0.5,0.1,0.8,0.2c0.3,0.1,0.5,0.2,0.8,0.3c0.3,0.1,0.5,0.3,0.7,0.4c0.5,0.3,0.8,0.6,1.1,0.9s0.5,0.5,0.7,0.7
					C2117,358.5,2117.1,358.6,2117.1,358.6z"/>
			</g>
			<path class="st10" d="M2106.1,400.9c-1.4,3.1-2.3,6.7-1.6,10.1c0.6,3,4,5.1,6.9,4c0.2-0.1,0.2-0.4,0-0.4c-1.6-0.3-2.9-0.2-4.4-1
				c-1.5-0.9-2-2.7-2.2-4.3c-0.4-2.8,0.5-5.8,1.6-8.3C2106.7,400.8,2106.2,400.7,2106.1,400.9L2106.1,400.9z"/>
		</g>
		<g>
			<g>
				<path class="st5" d="M2289.7,293.9c36.1,26.8,56.2,51.4,56.2,96.7c8,8,6.2,13.9,5.2,18.2c-1.4,6-11,6-11,6l-0.1-13.4
					c0-2.2-1.7-3.9-3.9-3.9c-2.2,0-3.9,1.7-3.9,3.9c0,0,0,6.6,0,6.8c-2.2-1.3-4.7-1.2-6.2-3.2c-1.1-1.7-0.7-5.9,0.4-7.5
					c1.6-2.1,3.1-5,6.9-8.1c0-37.4-21.3-66.1-46.5-83.7"/>
			</g>
			<g>
				<path class="st6" d="M2329,406.8c1,0.4,2.2,0.6,3.2,1.2c0-0.1,0-6.8,0-6.8c0-2.1,1.6-3.8,3.7-3.9
					C2331.6,396.4,2331.6,402.8,2329,406.8z"/>
			</g>
			<g>
				<path class="st6" d="M2343.1,412.3c0-4.4,1.7-9.8-1.7-13.2c-0.5-0.5-1.2-0.5-2.1-0.3c0,0.1,0.1,0.1,0.1,0.2
					c0.1,0,0.1,0.1,0.2,0.1c-0.1,0-0.1-0.1-0.2-0.1c0.5,0.6,0.7,1.5,0.7,2.3l0.1,13.4c0,0,9.5,0,11-6c0.3-1.3,0.7-2.8,0.8-4.5
					C2350.5,408.4,2347.8,411.6,2343.1,412.3z"/>
			</g>
			<g>
				<path class="st6" d="M2321.7,334.7c0.1-1.8,4.5-6.8,4.5-6.8s-0.5-0.6-1.1-1.5c-9-11.5-21-21.8-35.4-32.6l-2.8,11.5
					c17.9,12.5,35.2,32,42.6,57c2.5,8.3,3.7,16.9,3.8,26.8C2338.2,362.1,2323.7,349.7,2321.7,334.7z"/>
			</g>
			<path class="st10" d="M2345.2,397.4c1.1,2.6,1.7,5.4,1.6,8.3c-0.1,1.6-0.8,3.3-2.2,4.3c-1.3,1-2.9,0.7-4.4,1
				c-0.2,0-0.2,0.3,0,0.4c2.9,1.1,5.8-0.8,6.8-3.6c1.3-3.3,0-7.5-1.4-10.6C2345.4,396.9,2345,397.1,2345.2,397.4L2345.2,397.4z"/>
			<g>
				<path class="st31" d="M2334.3,354.4c0,0,0.1-0.1,0.3-0.3c0.2-0.2,0.5-0.4,0.7-0.6c0.2-0.1,0.4-0.3,0.5-0.4
					c0.2-0.1,0.5-0.3,0.6-0.4c0.2-0.1,0.5-0.3,0.7-0.4l0.4-0.2l0.4-0.1c0.3-0.1,0.5-0.2,0.7-0.2c0.3-0.1,0.5-0.1,0.7-0.1
					c0.3,0,0.5,0,0.7-0.1c0.3,0,0.5,0,0.6,0c0.2,0,0.4,0,0.5,0c0.2,0,0.3,0,0.5,0.1c0.3,0,0.4,0,0.4,0s-0.1,0-0.4-0.1
					c-0.1,0-0.3-0.1-0.5-0.1c-0.2-0.1-0.4-0.1-0.5-0.1s-0.5-0.1-0.6-0.1c-0.3,0-0.5,0-0.7,0s-0.5,0-0.8,0.1s-0.5,0.1-0.8,0.2
					c-0.3,0.1-0.5,0.2-0.8,0.3c-0.3,0.1-0.5,0.3-0.7,0.4c-0.5,0.3-0.8,0.6-1.1,0.9s-0.5,0.5-0.7,0.7
					C2334.3,354.2,2334.3,354.4,2334.3,354.4z"/>
				<path class="st31" d="M2335.5,356.6c0,0,0.1-0.1,0.3-0.3c0.2-0.2,0.5-0.4,0.7-0.6c0.2-0.1,0.4-0.3,0.5-0.4
					c0.2-0.1,0.5-0.3,0.6-0.4c0.2-0.1,0.5-0.3,0.7-0.4l0.4-0.2l0.4-0.1c0.3-0.1,0.5-0.2,0.7-0.2c0.3-0.1,0.5-0.1,0.7-0.1
					c0.3,0,0.5,0,0.7-0.1c0.3,0,0.5,0,0.6,0c0.2,0,0.4,0,0.5,0c0.2,0,0.3,0,0.5,0.1c0.3,0,0.4,0,0.4,0s-0.1,0-0.4-0.1
					c-0.1,0-0.3-0.1-0.5-0.1c-0.2-0.1-0.4-0.1-0.5-0.1c-0.2,0-0.5-0.1-0.6-0.1c-0.3,0-0.5,0-0.7,0s-0.5,0-0.8,0.1
					c-0.3,0.1-0.5,0.1-0.8,0.2c-0.3,0.1-0.5,0.2-0.8,0.4c-0.3,0.1-0.5,0.3-0.7,0.4c-0.5,0.3-0.8,0.6-1.1,0.9
					c-0.3,0.3-0.5,0.5-0.7,0.7C2335.5,356.6,2335.5,356.6,2335.5,356.6z"/>
				<path class="st31" d="M2336.6,359.3c0,0,0.1-0.1,0.3-0.3c0.2-0.2,0.5-0.4,0.7-0.6c0.2-0.1,0.4-0.3,0.5-0.4
					c0.2-0.1,0.5-0.3,0.6-0.4c0.2-0.1,0.5-0.3,0.7-0.4l0.4-0.2l0.4-0.1c0.3-0.1,0.5-0.2,0.7-0.2c0.3-0.1,0.5-0.1,0.7-0.1
					c0.3,0,0.5,0,0.7-0.1c0.3,0,0.5,0,0.6,0c0.2,0,0.4,0,0.5,0s0.3,0,0.5,0.1c0.3,0,0.4,0,0.4,0s-0.1,0-0.4-0.1
					c-0.1,0-0.3-0.1-0.4-0.1c-0.2-0.1-0.4-0.1-0.5-0.1s-0.5-0.1-0.6-0.1c-0.3,0-0.5,0-0.7,0c-0.3,0-0.5,0-0.8,0.1
					c-0.3,0.1-0.5,0.1-0.8,0.2c-0.3,0.1-0.5,0.2-0.8,0.3c-0.3,0.1-0.5,0.3-0.7,0.4c-0.5,0.3-0.8,0.6-1.1,0.9s-0.5,0.5-0.7,0.7
					C2336.7,359.2,2336.6,359.3,2336.6,359.3z"/>
			</g>
		</g>
		<g>
			<path class="st32" d="M2313.9,531.9V429.3c0-5.8,4.7-10.6,10.6-10.6h23.3c5.8,0,10.6,4.5,10.6,10.6v102.6H2313.9z"/>
			<path class="st33" d="M2313.9,521.6v10.3h44.5v-9.4C2343.5,520.7,2328.9,518.6,2313.9,521.6z"/>
			<path class="st34" d="M2332.1,418.8v-17.4c0-2.3,1.8-4,4-4c2.3,0,4,1.8,4,4v17.4H2332.1z"/>
			<rect x="2335.1" y="418.7" class="st34" width="1.6" height="113.2"/>
			<path class="st34" d="M2355.6,531.9c-1.6,3.6-1.6,3.6-2.6,3.6s-1.1,0-2.5-3.6H2355.6z"/>
			<path class="st34" d="M2322,531.9c-1.6,3.6-1.6,3.6-2.6,3.6c-1.1,0-1.1,0-2.5-3.6H2322z"/>
		</g>
		<g>
			<g>
				<g>
					<path class="st35" d="M2201,540.9c0,2.6,3,5.8,2.3,12.1c0,0-4.7,0.9-7.7,0.9c-3.8-2.2-8.3-0.5-10.9,1.5
						c-4.7,4.4-23.1,3-32.4,0.8c8.7-6.8,26.1-16.4,37.8-16.1c0,0,1.8,3.4,5.5,3.4c2.6,0,3.8-2,4.6-2.7
						C2200.5,540.4,2201,540.9,2201,540.9z"/>
				</g>
				<g>
					<path class="st36" d="M2203.2,553c0,0-4.7,0.9-7.7,0.9c-3.8-2.2-8.3-0.5-10.9,1.5c-4.7,4.4-23.1,3-32.4,0.8v2.3
						c9.2,2.2,27.8,3.7,32.4-0.8c2.6-1.9,7-3.7,10.9-1.5c3,0,7.7-0.9,7.7-0.9C2203.4,554.1,2203.2,553,2203.2,553z"/>
				</g>
			</g>
			<path class="st36" d="M2179.5,540.9c0.3,0.5,0.6,1.1,1,1.6c0.4,0.5,0.5,1.2,0.9,1.6c0.1,0.1,0.4,0.2,0.4-0.1
				c0.3-1.4-1-2.6-1.8-3.7C2179.7,540.2,2179.4,540.6,2179.5,540.9L2179.5,540.9z"/>
			<path class="st36" d="M2176.6,541.9c0.5,0.5,0.8,1,1.1,1.6c0.3,0.5,0.5,1.1,0.9,1.5c0.2,0.1,0.4,0.1,0.4-0.2
				c0-0.6-0.4-1.3-0.7-1.9c-0.4-0.5-0.8-1.1-1.4-1.5C2176.6,541.3,2176.4,541.7,2176.6,541.9L2176.6,541.9z"/>
			<path class="st36" d="M2173.7,543.1c0.8,0.8,0.9,2,1.6,2.9c0.1,0.2,0.4,0.1,0.4-0.1c0-1.2-0.6-2.6-1.6-3.3
				C2173.8,542.4,2173.5,542.9,2173.7,543.1L2173.7,543.1z"/>
		</g>
		<g>
			<g>
				<g>
					<path class="st35" d="M2249.6,540.8c0,2.6-3,5.8-2.3,12.1c0,0,4.7,0.9,7.7,0.9c3.8-2.2,8.3-0.5,10.9,1.5
						c4.7,4.4,23.1,3,32.4,0.8c-8.7-6.8-26.1-16.4-37.8-16.1c0,0-1.8,3.4-5.5,3.4c-2.6,0-3.8-2-4.6-2.7
						C2250,540.3,2249.6,540.8,2249.6,540.8z"/>
				</g>
				<g>
					<path class="st36" d="M2247.3,552.9c0,0,4.7,0.9,7.7,0.9c3.8-2.2,8.3-0.5,10.9,1.5c4.7,4.4,23.1,3,32.4,0.8v2.3
						c-9.2,2.2-27.8,3.7-32.4-0.8c-2.6-1.9-7-3.7-10.9-1.5c-3,0-7.7-0.9-7.7-0.9C2247.1,554.1,2247.3,552.9,2247.3,552.9z"/>
				</g>
			</g>
			<path class="st36" d="M2270.6,540.4c-0.9,0.9-2.1,2.3-1.8,3.7c0,0.2,0.3,0.2,0.4,0.1c0.4-0.5,0.5-1.1,0.9-1.6
				c0.4-0.5,0.7-1.1,1-1.6C2271.1,540.5,2270.8,540.2,2270.6,540.4L2270.6,540.4z"/>
			<path class="st36" d="M2273.6,541.4c-0.6,0.4-1,0.9-1.4,1.5c-0.4,0.5-0.7,1.2-0.7,1.9c0,0.2,0.3,0.3,0.4,0.2
				c0.5-0.4,0.6-1,0.9-1.5c0.3-0.5,0.7-1.1,1.1-1.6C2274,541.6,2273.9,541.3,2273.6,541.4L2273.6,541.4z"/>
			<path class="st36" d="M2276.4,542.6c-1,0.6-1.6,2.1-1.6,3.3c0,0.2,0.3,0.3,0.4,0.1c0.7-0.9,0.8-2.1,1.6-2.9
				C2277,542.8,2276.7,542.4,2276.4,542.6L2276.4,542.6z"/>
		</g>
		<g>
			<path class="st37" d="M2137.8,522c0,0,2.6-29.1,2.6-49.8s-2.6-39.2-2.6-39.2c-1.1-5.8-4.7-10.6-10.6-10.6h-23.3
				c-5.8,0-9.2,4.4-10.6,10.6c0,0-3.8,23.6-3.8,41.8s3.8,47.1,3.8,47.1H2137.8L2137.8,522z"/>
			<path class="st38" d="M2092.2,512c0.6,5.9,1.2,10,1.2,10h44.5c0,0,0.5-4.6,0.9-11.4C2123.4,513.4,2107.6,513.9,2092.2,512z"/>
			<path class="st34" d="M2119.7,422.6v-17.4c0-2.3-1.8-4-4-4c-2.3,0-4,1.8-4,4v17.4H2119.7z"/>
			<rect x="2115" y="422.5" class="st34" width="1.6" height="99.5"/>
			<path class="st34" d="M2096.2,522c1.6,3.6,1.6,3.6,2.6,3.6c1.1,0,1.1,0,2.5-3.6H2096.2z"/>
			<path class="st34" d="M2129.8,522c1.6,3.6,1.6,3.6,2.6,3.6c1.1,0,1.1,0,2.5-3.6H2129.8z"/>
			<path class="st34" d="M2099.2,425.2c1.6,0.3,1.2,6.8,1.3,7.9c0.1,4.6-0.1,9.2-0.2,13.8c-0.3,7.9-0.8,16-0.8,23.9
				c0.1,9.4,0.4,18.8,0.2,28.2c-0.1,4.3-0.3,8.6-0.7,12.9c-0.3,2-0.5,6.6-2.7,7.6c-0.2,0.1,0,0.3,0.1,0.3c1.7-0.6,2.2-3,2.5-4.6
				c0.9-3.9,1-8.1,1.2-12.1c0.5-10.7,0-21.5-0.1-32.1c-0.1-9.3,0.6-18.7,0.9-28c0.1-4.6,0.3-9.2-0.1-13.8c-0.1-0.9,0-4-1.4-4.2
				C2099.1,424.8,2099,425.2,2099.2,425.2L2099.2,425.2z"/>
			<path class="st34" d="M2134,425.4c-1.3,0.2-1.3,3.3-1.4,4.2c-0.5,4.6-0.3,9.2-0.1,13.8c0.3,9.3,1,18.6,0.9,28
				c-0.1,10.7-0.5,21.5-0.1,32.1c0.2,4,0.4,8.2,1.2,12.1c0.3,1.6,0.8,3.9,2.5,4.6c0.2,0.1,0.3-0.2,0.1-0.3c-2-0.9-2.3-4.7-2.6-6.5
				c-0.7-4.3-0.8-8.8-0.9-13.1c-0.2-9.4,0.1-18.9,0.2-28.3c0.1-7.9-0.5-15.9-0.7-23.8c-0.2-4.7-0.3-9.3-0.3-14
				c0-1.1-0.4-8.3,1.3-8.6C2134.3,425.8,2134.3,425.4,2134,425.4L2134,425.4z"/>
		</g>
		<g>
			<g>
				<g>
					<path class="st39" d="M2330.2,320.6c-13.3-19.1-39.5-36.4-39.5-36.4l-1.2,1.6l-62.7,32l-63.5-32.4v-0.5c0,0-0.2,0.1-0.5,0.3
						l-1-0.5v1.3c-5.9,4.2-28.8,20.7-41.1,34.8l24.5,19.8l16.6-16.1v61.9l58.4,19.6l6.6-19.6l9.5,19.6l55.4-19.6v-65.1l15.6,19.3
						L2330.2,320.6z"/>
				</g>
				<g>
					<path class="st40" d="M2163.7,318.8l-21.3,19.4l2.7,2.3l15.9-15.3C2162.1,323,2163.1,320.9,2163.7,318.8L2163.7,318.8z"/>
				</g>
				<g>
					<path class="st40" d="M2307.4,340.4l3.4-2.9l-21.6-20.9c0.7,1.8,1.6,3.5,2.6,5.1v-0.5L2307.4,340.4z"/>
				</g>
				<path class="st41" d="M2226.8,317.8c0,0,0,1.1,0.1,2.9c0,1.9,0.1,4.6,0.1,7.8s0.1,6.9,0.1,11c0,4,0,8.3,0,12.6s0,8.6,0,12.6
					s-0.1,7.8-0.1,11c-0.1,3.2-0.1,5.8-0.1,7.8s-0.1,2.9-0.1,2.9s0-1.1-0.1-2.9c0-1.9-0.1-4.6-0.1-7.8c0-3.2-0.1-6.9-0.1-11
					s0-8.3,0-12.6s0-8.6,0-12.6c0-4,0.1-7.8,0.1-11c0.1-3.2,0.1-5.8,0.1-7.8C2226.7,318.8,2226.8,317.8,2226.8,317.8z"/>
				<g>
					<path class="st41" d="M2291.8,284.6c-0.5-0.5-0.5-7-0.5-7c-22.1,9.8-50.2,25.1-64.5,40.2c16.8-8.9,40.4-13.1,60.1-17.1
						c0,0-2.6-2.9-3.1-4.5c0,0,12.8-0.5,16.3-0.6C2300.2,295.6,2295.5,291.1,2291.8,284.6z"/>
				</g>
				<g>
					<path class="st41" d="M2162.2,285.2c0.5-0.5,0.1-7.7,0.1-7.7c22.1,9.8,50.2,25.1,64.5,40.2c-16.8-8.9-40.1-13.1-59.8-16.9
						c0,0,2.3-2.2,2.8-4.7c0,0-10.8-0.8-14.4-1C2155.4,295.2,2159.5,289.6,2162.2,285.2z"/>
				</g>
				<g>
					<path class="st42" d="M2281.2,290.4c0.9,2.6,2.6,3.6,3.6,4.4c-19.4,5.3-41.2,14.2-57.9,23c14.3-15.2,42.8-34.6,65-44.3
						c0,0,9.8,11.6,12.4,16.9C2297.1,287.7,2289.2,288.6,2281.2,290.4z"/>
				</g>
				<g>
					<path class="st42" d="M2172.4,290.4c-0.9,2.6-2.6,3.6-3.6,4.4c19.4,5.3,41.1,14.2,57.9,23c-14.3-15.2-42.8-34.6-64.9-44.3
						c0,0-9.8,11.6-12.4,16.9C2156.5,287.7,2164.5,288.6,2172.4,290.4z"/>
				</g>
				<circle class="st36" cx="2226.8" cy="320.6" r="1.8"/>
				<circle class="st36" cx="2226.8" cy="339.3" r="1.8"/>
				<circle class="st36" cx="2226.8" cy="357.9" r="1.8"/>
				<circle class="st36" cx="2226.8" cy="376.6" r="1.8"/>
			</g>
			<g>
				<g>
					<path class="st43" d="M2171.8,326.2c-1.5,5.8,2.5,16.3,10.1,10.4c6.5-5-0.5-10-5-13c0.7,0,10.4,2,13.6,0.4
						c1.9-0.9,3.7-2.8,2.1-4.9c-2.4-2.8-5.9-3.2-8.8-1.9c-2.8,1.2-5.6,2.3-7.9,4.2c-0.1,0.1-0.1,0.1-0.2,0.2l0.2-0.2l0,0
						c3.9-4,16.8-14.5,8.3-16.9c-5.5-1.3-9.9,9.1-10.2,14.4c0,0.6,0,1.2,0,1.6c-0.1-0.5-0.1-1,0-1.6c0-3.5-0.3-8.5-1.5-11.2
						c-1.7-3.6-4.4-4.4-5.6,0c-1.1,4.1,0.8,10.4,3.5,13.6c0.3,0.3,0.5,0.5,0.6,0.7c-0.2-0.2-0.5-0.5-0.6-0.7c-1.9-2-5.3-4.5-8.7-5.6
						v8.5c1.9,0.1,3.9-0.1,5.8-0.1c-2.3,1-4.4,2.6-5.8,4.5v9.1C2167.1,338.6,2170.2,329.9,2171.8,326.2z"/>
				</g>
				<g>
					<path class="st43" d="M2123.7,317.5c0.4,0.3,0.8,0.5,1.5,0.5c5.3,0.8,8.5-7.7,10.1-11.4
						C2130.9,310.4,2126.8,314.1,2123.7,317.5z"/>
				</g>
				<g>
					<path class="st43" d="M2156.2,299.3c-2.4-2.8-5.9-3.2-8.8-1.9c-0.5,0.3-1.2,0.5-1.7,0.7c-3.8,2.3-7.2,5.3-10.4,8.4
						c-1.4,5.9,2.6,16.1,10.2,10.2c6.5-5-0.5-10-5-13c0.7,0,10.4,2,13.6,0.4C2156,303.3,2157.9,301.3,2156.2,299.3z"/>
				</g>
				<g>
					<path class="st44" d="M2161.2,325l0.6-0.6v61.9l1.9,0.6v-68.1C2163.1,320.9,2162.1,323,2161.2,325z"/>
				</g>
				<g>
					<path class="st43" d="M2194.7,372.3c-0.5-0.5-0.8-0.8-1.2-1.2C2193.9,371.4,2194.3,371.8,2194.7,372.3c2.5,2.4,6.2,5.8,8.9,6.8
						c3.7,1.3,6.2,0,3.9-3.9c-2.1-3.7-7.9-6.8-12.1-7.2c-0.4,0-0.6,0-0.9-0.1c0.3,0,0.6,0,0.9,0.1c4.8,0.1,14.4-2,14.4-7.6
						c0.1-3.5-4.5-3.5-6.9-2.6c-3.3,1.2-5.1,4.1-7.5,6.3c2.9-7.3-0.8-17.3-5.3-13.9c-4.5,3.3-0.5,11.8,1,15.5
						c-3.1-5.2-13.3-9.8-14.5-0.2c-1,8.1,7.5,6.7,12.7,5.6c-0.5,0.5-8.8,5.9-10,9.3c-0.6,2-0.6,4.7,2,4.9c3.7,0.3,6.4-1.9,7.6-4.8
						c1.2-2.9,2.4-5.6,2.6-8.6c0-0.1,0-0.2,0-0.3v0.2l0,0c0,3.6-0.5,13.1,0.9,15.9c1.5,2.7,5,3.3,6.8,0
						C2201.1,384.6,2197.6,375.8,2194.7,372.3z"/>
				</g>
				<g>
					<path class="st43" d="M2265.1,328.8c0.2,0.2,0.4,0.5,0.5,0.7c3.1,3.7,11,9.6,15.2,5.9c2.6-2.2-0.3-5.7-2.6-7
						c-3-1.7-6.4-1.2-9.7-1.6c7.5-2.6,12.5-11.9,7-13.1c-5.4-1.3-9.2,7.4-11,10.9c1.9-5.8-1.3-16.4-9.3-11.1c-6.8,4.5-0.2,10,4,13.2
						c-0.7-0.1-10.2-2.7-13.6-1.4c-1.9,0.8-3.9,2.6-2.4,4.7c2.2,3,5.7,3.6,8.6,2.6s5.8-1.8,8.2-3.7c0.1-0.1,0.1-0.1,0.2-0.2
						l-0.2,0.2l0,0c-4.2,3.7-17.8,13.2-9.6,16.3c5.4,1.7,10.5-8.3,11.3-13.7c0-0.6,0.1-1.2,0.1-1.6c0,0.5,0,1-0.1,1.6
						c-0.2,3.5-0.4,8.5,0.6,11.3c1.5,3.7,4.1,4.7,5.6,0.5c1.4-4-0.1-10.4-2.5-13.9C2265.5,329.3,2265.3,329.1,2265.1,328.8z"/>
				</g>
				<g>
					<path class="st43" d="M2307.8,301.4c2.1,1,3.7,1,5.8,0.9c-2.9-2.6-6.4-5.7-8.9-7.7C2302.3,297.1,2305.5,300.3,2307.8,301.4z"/>
				</g>
				<g>
					<path class="st43" d="M2311.5,315.9c3.8,0.5,6.6-3.7,8.4-7.5c-1.6-1.6-3.4-3.4-4.8-4.7C2309.1,307.5,2306.5,315.1,2311.5,315.9
						z"/>
				</g>
				<g>
					<g>
						<path class="st43" d="M2282.2,350.1c-2-0.5-4.7-0.4-4.8,2.3c-0.1,3.7,2.3,6.3,5.2,7.3c2.9,1,5.7,2.1,8.7,2.2
							c0.1,0,0.2,0,0.3,0h-0.2l0,0c-5.6,0.4-22.2-0.5-17.5,6.9c3.2,4.7,13.4-0.2,17.3-3.8c0.3-0.3,0.5-0.5,0.6-0.7v-5
							C2290.5,357.6,2285.4,351,2282.2,350.1z"/>
					</g>
					<g>
						<path class="st45" d="M2257.9,395.4c0.5-0.3,0.8-0.5,1.1-0.8C2258.7,394.9,2258.3,395.2,2257.9,395.4z"/>
					</g>
					<g>
						<path class="st45" d="M2258.8,393.1c-0.1,0-0.1,0-0.2,0l0,0H2258.8z"/>
					</g>
					<g>
						<path class="st45" d="M2261.3,396.6c0.1-0.3,0.1-0.5,0.2-0.7C2261.3,396.1,2261.3,396.4,2261.3,396.6z"/>
					</g>
					<g>
						<path class="st43" d="M2263.7,393.4c4.6-1.9,9.5-9.6,1.9-11.8c-6.4-1.8-6.3,5.3-6.1,9.6c-0.4-0.5-3.7-7.9-6.4-9.1
							c-1.6-0.8-3.7-1.1-4.2,1c-0.6,2.9,0.8,5.4,3,6.8c2.2,1.3,4.2,2.6,6.7,3.1c0.1,0,0.2,0,0.2,0h-0.2l0,0
							c-4.6-0.6-17.7-3.9-15.2,2.7c1.8,4.3,10.8,2,14.5-0.3c0.4-0.3,0.5-0.3,0,0c-1.4,1-4.1,3.3-5.5,4.7c2.6-0.9,21.7-7.7,21.7-7.7
							C2270.9,391.5,2266.1,392.9,2263.7,393.4z"/>
					</g>
					<g>
						<path class="st43" d="M2291.1,365c-2.3,2.6-5.5,6.5-6.4,9.3c-1.1,3.8,0.3,6.2,4.1,3.7c1.1-0.7,2.1-1.7,3-2.9v-10.8
							C2291.6,364.5,2291.3,364.8,2291.1,365z"/>
					</g>
					<g>
						<path class="st44" d="M2289.1,316.6v70.7l2.6-0.9v-64.5C2290.8,320,2289.9,318.4,2289.1,316.6L2289.1,316.6z"/>
					</g>
				</g>
			</g>
		</g>
		<g>
			<path class="st46" d="M2150.1,172.5c0,0-33.5-31.5-16.5-47.2c19.3-17.8,112.8-52.1,173.1-14.7c40.9,25.4-3.9,62.1-3.9,62.1
				s10.4-49.6-43-51.9C2204.5,118.4,2148,129.9,2150.1,172.5z"/>
			<path class="st46" d="M2158.6,111c0,0,0.5-15.2,7.3-25.8c6.8-10.6,18.2-32.1,20.1-39c1.9-6.8,21.5-9.9,33.3-6.8
				c11.8,3,21.5,8.3,29.5,10.6s26.9-3.5,44.6,53.7c0,0-19.8-12-60.6-9.9C2191.9,95.9,2158.6,111,2158.6,111z"/>
			<path class="st47" d="M2307,110.4c-50.5-31.3-124.4-12.3-158.3,5.1c35.2-17.1,106.4-34.1,155.5-3.7c34.1,21.2,8.2,50.3-1.2,59.3
				c-0.1,0.8-0.3,1.6-0.3,1.6S2347.9,135.8,2307,110.4z"/>
			<path class="st48" d="M2293.5,103.5c-1.5-4.7-2.9-9-4.4-13c-42.9-16.3-95.8-5.5-128.6,8c-1.3,5.4-1.7,10.1-1.9,12.2
				C2192.1,96.4,2248.9,84.4,2293.5,103.5z"/>
		</g>
		<g>
			<g>
				<path class="st7" d="M2296,91.4c-2.3,12.5-14.9,9.1-23.4,5.1c-0.8-0.4-1.6-0.8-2.5-1.2c-53.7-16.2-62.8,27.1-90.3,36
					c1.6,5.8,3.9,11.5,8.6,17.7c6.2-21.4,47.5,2.3,58.8,3.8C2291.3,158.8,2309.6,121.5,2296,91.4z"/>
			</g>
			<g>
				<path class="st9" d="M2241.4,96.7c15.1,0,30,7,45.1,5.3c4.6,0,7.3-3.4,8.7-7.6c-3.7,8.9-14.8,5.7-22.6,2.1
					c-0.8-0.4-1.6-0.8-2.5-1.2c-25.7-7.8-41.2-1.9-53.3,7.3C2224.4,98.8,2232.5,96.4,2241.4,96.7z"/>
			</g>
			<g>
				<path class="st8" d="M2298.8,99c-0.2,6.1-1.7,12.1-4.3,17.2c-19.4,38-64.5,11.5-97.2,12.4c7.9-7,18.5-9.8,28.3-9.8
					c-12.1-3.7-23.5,1.5-34.2,6.4c-3.6,2.6-7.9,4.9-12,6.2c1.6,5.8,4.5,11.3,9.1,17.5c6.2-21.4,47.5,2.3,58.8,3.8
					C2287.6,158.3,2306.5,127.4,2298.8,99z"/>
			</g>
		</g>
	</g>
</g>
<g>
	<path class="st49" d="M2742-89.6c-1.6,0.9-3.1,1.9-4.6,3c-2.7,7-2.1,13.3-3.2,20.3c-3.1-1.2-6.1-5-5.6-8.5
		c-3.6,7.1-3.7,12.2-3.9,21c-5.3-23-29.3-39.1-45.5-43.6c-35.3-10.2-87.7,3.2-112,34.3c11.4-7.1,23-3.8,35.9-4.1
		c5.9-6.1,13.9-10.6,20.3-16.3c0,0-2.7,12.6-3.6,16.9c10.1-2.8,25,0,34.5,4.1c4.7-4.8,16-9.8,22.3-11.2c-4.7,4-11.5,11.4-14.1,16.6
		c7.2,3.7,14,12.3,17.2,19.1c-8.3-4.6-72.2-19.6-111,22c-34.3,36.9-37.4,50.3-45.8,79.3c1.3-4.3,19.5-27.8,30.9-33.6
		c22.7-11.6,27.8-13,53.2-15.1c3-7,4.5-17.3,6.7-24.3c3.2,6.8,8,17.1,9.2,24.9c12.7-12.3,40.7-15.4,56.6-13.5
		c-10.7,13.6-24.5,29.3-31.6,39.8c0,0,2.9,6.7,2.4,7.6c-0.8,1.2-9.2,3.1-11.4,5.4c0,0-16.4,23-13.6,23.5c1.2,0,22.6,6.6,24.4,7.2
		c8.8,2.2,29.5-29.1,29.5-29.1c25-42.1,58.4-14.2,58.4-14.2c1.4,0.2,2.8,0.4,4.3,0.5L2742-89.6L2742-89.6z"/>
</g>
<g>
	<path class="st50" d="M2738.1-1.8c-2.1-6.3-2.6-12.9-5.1-19.6c-24.3-14-67.8-5.3-88.3,3.8c0,0,89.1,7.1,86.5,76.6
		c-1.8-1.3-3.6-2.8-5.2-4.5c-28.6-15.9-86-7.2-110.5,5.1c-53,26.5-79.1,64.9-79.1,119.9c6.7-13,15.2-22.9,24.2-30.4
		c3.4-10.1,10.1-18.9,20.3-24.2c-2.8,5.2-5.6,10.4-8.3,15.5c22-13.5,42.9-14.9,42.9-14.9c0-5,2.5-17.6,2.5-18.8
		c5,1.3,13.8,6.3,16.3,11.3c7.2-6.1,16.9-10.8,27.2-13.6c-0.6-3.6-1.1-7.2-1.5-10.8c2.9,2.9,5.9,5.9,8.5,9.2
		c10.9-2.1,21.9-2.2,31.2,0.1c-24.4,19.1-40,40.3-49.7,60.9c0.8,3.6,2.4,7.1,4.1,10.4c-2.4-1.2-4.9-2.2-7.3-3
		c-20.5,50.7-6.9,96.1-4.1,96.1c-1.7-7.2,5.7-28,14.8-46c-1.1-3-2.1-6-3.4-9c2.4,0.5,4.8,1.3,6.7,2.5c6.3-11.5,12.8-20.9,17.5-23.3
		c0,0-2.7-8.5-1.7-17.7c0,0,1.8,4.8,6,8.6c10-9,36.8-28.9,59.4-39V-5C2741-3.6,2739.7-2.4,2738.1-1.8z"/>
</g>
</svg>
