<?xml version="1.0" encoding="utf-8"?>
<!-- Generator: Adobe Illustrator 18.1.1, SVG Export Plug-In . SVG Version: 6.00 Build 0)  -->
<!DOCTYPE svg PUBLIC "-//W3C//DTD SVG 1.1//EN" "http://www.w3.org/Graphics/SVG/1.1/DTD/svg11.dtd">
<svg version="1.1" id="Layer_1" xmlns="http://www.w3.org/2000/svg" xmlns:xlink="http://www.w3.org/1999/xlink" x="0px" y="0px"
	 width="250px" height="250px" viewBox="-145 -4 250 250" style="enable-background:new -145 -4 250 250;" xml:space="preserve">
<style type="text/css">
	.st0{fill:#F2F2F2;}
	.st1{fill:#656D77;}
	.st2{fill:#404040;}
	.st3{fill:#FFFFFF;}
	.st4{fill:#EAC95D;}
	.st5{fill:#FBD764;}
	.st6{fill:#11D1AC;}
	.st7{fill:#FCF8F2;}
	.st8{fill:#EDE3D0;}
	.st9{fill:#F9B233;}
</style>
<g>
	<circle class="st0" cx="-20" cy="121" r="125"/>
	<g>
		<g>
			<g>
				<circle class="st1" cx="-18.2" cy="121.6" r="100.2"/>
			</g>
		</g>
		<g>
			<path class="st2" d="M-16.1,169.3c0,0.3-0.3,0.6-0.6,0.6h-11.9c-0.3,0-0.6-0.3-0.6-0.6v-1.5c0-0.3,0.3-0.6,0.6-0.6h11.9
				c0.3,0,0.6,0.3,0.6,0.6V169.3z"/>
		</g>
		<g>
			<g>
				<g>
					<g>
						<path class="st2" d="M25.3,185.7c0,6-5.1,11-11,11h-66.5c-6,0-11-5.1-11-11V54.2c0-6,5.1-11,11-11h66.5c6,0,11,5.1,11,11
							C25.3,54.2,25.3,185.7,25.3,185.7z"/>
					</g>
					<rect x="-57.9" y="65.2" class="st3" width="77.6" height="109.2"/>
					<g>
						<rect x="-24.5" y="52.7" class="st1" width="11" height="2.7"/>
					</g>
				</g>
			</g>
			<g>
				<g>
					<path class="st4" d="M3.3,104c6.3,0,11-5.1,11-11H-7.8C-8.1,99.2-3,104,3.3,104z"/>
				</g>
				<g>
					<path class="st4" d="M-41.2,104c6.3,0,11-5.1,11-11h-22.1C-52.2,99.2-47.4,104-41.2,104z"/>
				</g>
				<g>
					<path class="st4" d="M-63.6,104c6.3,0,11-5.1,11-11h-22.1C-74.6,99.2-69.5,104-63.6,104z"/>
				</g>
				<g>
					<path class="st4" d="M-19.1,104c6.3,0,11-5.1,11-11h-22.1C-30.1,99.2-25.1,104-19.1,104z"/>
				</g>
				<g>
					<path class="st4" d="M14.3,93c0,6.3,5.1,11,11,11c6.3,0,11-5.1,11-11H14.3z"/>
				</g>
			</g>
			<g>
				<polygon class="st5" points="19.7,65.2 -57.9,65.2 -74.6,93 36.4,93 				"/>
			</g>
			<g>
				<circle class="st6" cx="-19.1" cy="131.7" r="22.1"/>
			</g>
			<g>
				
					<rect x="-20.6" y="116.1" transform="matrix(-0.7071 -0.7071 0.7071 -0.7071 -125.9903 211.2932)" class="st3" width="2.7" height="31.3"/>
			</g>
			<g>
				<path class="st3" d="M-11.6,144.3c-2.7,0-5.1-2.1-5.1-5.1c0-2.7,2.4-5.1,5.1-5.1s5.1,2.4,5.1,5.1C-6.6,142.2-9,144.3-11.6,144.3
					z M-11.6,136.8c-1.2,0-2.4,0.9-2.4,2.4c0,1.2,0.9,2.4,2.4,2.4c1.2,0,2.4-0.9,2.4-2.4C-9.3,138-10.5,136.8-11.6,136.8z"/>
			</g>
			<g>
				<path class="st3" d="M-26.6,129.7c-2.7,0-5.1-2.4-5.1-5.1c0-2.7,2.4-5.1,5.1-5.1s5.1,2.4,5.1,5.1
					C-21.5,127.3-23.6,129.7-26.6,129.7z M-26.6,122.2c-1.2,0-2.4,0.9-2.4,2.4c0,1.2,0.9,2.4,2.4,2.4c1.2,0,2.4-0.9,2.4-2.4
					S-25.1,122.2-26.6,122.2z"/>
			</g>
		</g>
	</g>
</g>
<circle class="st0" cx="-20" cy="121" r="125"/>
<g>
	<g>
		<circle class="st1" cx="-21.2" cy="119.8" r="100.2"/>
	</g>
</g>
<g>
	<path class="st7" d="M47.1,141.3L20,67c-0.3-0.6-0.9-0.9-1.5-0.6L-77.3,132l9.5,25.1l23.3-3l0.9,5.1c1.5,6.9,4.5,10.4,9.8,10.4
		l18.8-2.1c7.2-0.9,10.7-4.5,9.5-9.8l-1.5-8.4l52.8-6.9C47.1,142.8,47.4,142.2,47.1,141.3z M-14.6,162.2l-18.8,2.1
		c-2.4,0-3.9-2.1-4.5-4.8l-1.2-6l27.1-3.6l1.5,7.8C-9.9,160.4-12.2,162.2-14.6,162.2z"/>
	<path class="st8" d="M47.1,141.3l-14-38.5l-105.6,41.5h-0.3l5.1,13.1l23.3-3l0.9,5.1c1.5,6.9,4.5,10.4,9.8,10.4l18.8-2.1
		c7.2-0.9,10.7-4.5,9.5-9.8l-1.5-8.4l52.8-6.9C46.8,142.8,47.4,142.2,47.1,141.3z M-14.6,162.2l-18.8,2.1c-2.4,0-3.9-2.1-4.5-4.8
		l-1.2-6l27.1-3.6l1.5,7.8C-10.2,160.4-12.5,162.2-14.6,162.2z"/>
	<path class="st9" d="M58.2,140.4L29.8,62.8c-0.6-1.5-2.4-2.4-3.9-1.8c-1.5,0.6-2.4,2.4-1.8,3.9l28.3,77.6c0.6,1.5,2.1,2.4,3.6,2.1
		c0.3,0,0.3,0,0.6,0C57.9,144,58.8,142.2,58.2,140.4z M-93.7,144.3l-0.3,0.3c-0.6-0.3-1.2-0.3-1.8-0.3c-0.9,0.3-1.5,1.5-0.9,2.7
		l5.7,14.3c0.3,1.2,1.5,1.5,2.4,1.2c0.6-0.3,1.2-0.9,1.2-1.5l16.1-2.1l-8.9-23.9L-93.7,144.3z"/>
</g>
<circle class="st0" cx="-20" cy="121" r="125"/>
<g>
	<g>
		<circle class="st1" cx="-18.2" cy="121.6" r="100.2"/>
	</g>
</g>
<g>
	<path class="st2" d="M-16.1,169.3c0,0.3-0.3,0.6-0.6,0.6h-11.9c-0.3,0-0.6-0.3-0.6-0.6v-1.5c0-0.3,0.3-0.6,0.6-0.6h11.9
		c0.3,0,0.6,0.3,0.6,0.6V169.3z"/>
</g>
<g>
	<path class="st7" d="M-21.8,64.9c-0.6,0.6-15.8,14.6-44.7,14.6h-9.8v5.4c0,33.4,1.8,53.7,8.4,68.9c7.8,17.9,25.7,26.3,47.7,33.7
		l3.6,0.6V59.8L-21.8,64.9z"/>
	<path class="st8" d="M31.6,153.8c6.6-15.2,8.4-35.5,8.4-68.9v-5.4h-9.5c-29.2,0-43.6-14.3-44.2-14.6l-3.9-4.8l0.6-0.3v128.3
		l2.1-0.6C7.7,180.4,24.2,171.7,31.6,153.8z"/>
</g>
<g id="_x3C_Group_x3E__1_">
	<polygon class="st9" points="4.2,87.3 -41.8,132.9 -24.8,132.9 -37.9,167.8 9.2,121.9 -7.8,121.9 	"/>
</g>
</svg>
