<?xml version="1.0" encoding="utf-8"?>
<!-- Generator: Adobe Illustrator 18.1.1, SVG Export Plug-In . SVG Version: 6.00 Build 0)  -->
<!DOCTYPE svg PUBLIC "-//W3C//DTD SVG 1.1//EN" "http://www.w3.org/Graphics/SVG/1.1/DTD/svg11.dtd">
<svg version="1.1" id="Layer_1" xmlns="http://www.w3.org/2000/svg" xmlns:xlink="http://www.w3.org/1999/xlink" x="0px" y="0px"
	 width="250px" height="250px" viewBox="-62 63 250 250" style="enable-background:new -62 63 250 250;" xml:space="preserve">
<style type="text/css">
	.st0{fill:#F2F2F2;}
	.st1{fill:#656D77;}
	.st2{fill:#404040;}
	.st3{fill:#FFFFFF;}
	.st4{fill:#EAC95D;}
	.st5{fill:#FBD764;}
	.st6{fill:#11D1AC;}
	.st7{fill:#FCF8F2;}
	.st8{fill:#EDE3D0;}
	.st9{fill:#F9B233;}
	.st10{fill:#FFD07D;}
	.st11{fill:#FAA63A;}
	.st12{fill:#42443D;}
	.st13{fill:#3FAA96;}
	.st14{fill:#00CFB1;}
	.st15{fill:#FFF1CC;}
	.st16{fill:#545454;}
	.st17{fill:#FFE7AB;}
	.st18{fill:none;stroke:#FFFFFF;stroke-width:8.474;}
	.st19{fill:#62CCED;}
	.st20{opacity:0.61;fill:none;stroke:#769FA5;stroke-miterlimit:10;}
	.st21{fill:none;}
	.st22{opacity:0.56;fill:#FFFFFF;}
</style>
<g>
	<g>
		<circle class="st0" cx="63" cy="188" r="125"/>
		<g>
			<g>
				<g>
					<circle class="st1" cx="64.8" cy="188.6" r="100.2"/>
				</g>
			</g>
			<g>
				<path class="st2" d="M66.9,236.3c0,0.3-0.3,0.6-0.6,0.6H54.4c-0.3,0-0.6-0.3-0.6-0.6v-1.5c0-0.3,0.3-0.6,0.6-0.6h11.9
					c0.3,0,0.6,0.3,0.6,0.6V236.3z"/>
			</g>
			<g>
				<g>
					<g>
						<g>
							<path class="st2" d="M108.3,252.7c0,6-5.1,11-11,11H30.8c-6,0-11-5.1-11-11V121.2c0-6,5.1-11,11-11h66.5c6,0,11,5.1,11,11
								V252.7z"/>
						</g>
						<rect x="25.1" y="132.2" class="st3" width="77.6" height="109.2"/>
						<g>
							<rect x="58.5" y="119.7" class="st1" width="11" height="2.7"/>
						</g>
					</g>
				</g>
				<g>
					<g>
						<path class="st4" d="M86.3,171c6.3,0,11-5.1,11-11H75.2C74.9,166.2,80,171,86.3,171z"/>
					</g>
					<g>
						<path class="st4" d="M41.8,171c6.3,0,11-5.1,11-11H30.7C30.8,166.2,35.6,171,41.8,171z"/>
					</g>
					<g>
						<path class="st4" d="M19.4,171c6.3,0,11-5.1,11-11H8.3C8.4,166.2,13.5,171,19.4,171z"/>
					</g>
					<g>
						<path class="st4" d="M63.9,171c6.3,0,11-5.1,11-11H52.8C52.9,166.2,57.9,171,63.9,171z"/>
					</g>
					<g>
						<path class="st4" d="M97.3,160c0,6.3,5.1,11,11,11c6.3,0,11-5.1,11-11H97.3z"/>
					</g>
				</g>
				<g>
					<polygon class="st5" points="102.7,132.2 25.1,132.2 8.4,160 119.4,160 					"/>
				</g>
				<g>
					<circle class="st6" cx="63.9" cy="198.7" r="22.1"/>
				</g>
				<g>
					
						<rect x="62.4" y="183.1" transform="matrix(0.7071 0.7071 -0.7071 0.7071 159.2148 13.1104)" class="st3" width="2.7" height="31.3"/>
				</g>
				<g>
					<path class="st3" d="M71.4,211.3c-2.7,0-5.1-2.1-5.1-5.1c0-2.7,2.4-5.1,5.1-5.1c2.7,0,5.1,2.4,5.1,5.1
						C76.4,209.2,74,211.3,71.4,211.3z M71.4,203.8c-1.2,0-2.4,0.9-2.4,2.4c0,1.2,0.9,2.4,2.4,2.4c1.2,0,2.4-0.9,2.4-2.4
						C73.7,205,72.5,203.8,71.4,203.8z"/>
				</g>
				<g>
					<path class="st3" d="M56.4,196.7c-2.7,0-5.1-2.4-5.1-5.1c0-2.7,2.4-5.1,5.1-5.1c2.7,0,5.1,2.4,5.1,5.1
						C61.5,194.3,59.4,196.7,56.4,196.7z M56.4,189.2c-1.2,0-2.4,0.9-2.4,2.4c0,1.2,0.9,2.4,2.4,2.4c1.2,0,2.4-0.9,2.4-2.4
						S57.9,189.2,56.4,189.2z"/>
				</g>
			</g>
		</g>
	</g>
	<circle class="st0" cx="63" cy="188" r="125"/>
	<g>
		<g>
			<circle class="st1" cx="61.8" cy="186.8" r="100.2"/>
		</g>
	</g>
	<g>
		<path class="st7" d="M130.1,208.3L103,134c-0.3-0.6-0.9-0.9-1.5-0.6L5.7,199l9.5,25.1l23.3-3l0.9,5.1c1.5,6.9,4.5,10.4,9.8,10.4
			l18.8-2.1c7.2-0.9,10.7-4.5,9.5-9.8l-1.5-8.4l52.8-6.9C130.1,209.8,130.4,209.2,130.1,208.3z M68.4,229.2l-18.8,2.1
			c-2.4,0-3.9-2.1-4.5-4.8l-1.2-6l27.1-3.6l1.5,7.8C73.1,227.4,70.8,229.2,68.4,229.2z"/>
		<path class="st8" d="M130.1,208.3l-14-38.5L10.5,211.3h-0.3l5.1,13.1l23.3-3l0.9,5.1c1.5,6.9,4.5,10.4,9.8,10.4l18.8-2.1
			c7.2-0.9,10.7-4.5,9.5-9.8l-1.5-8.4l52.8-6.9C129.8,209.8,130.4,209.2,130.1,208.3z M68.4,229.2l-18.8,2.1c-2.4,0-3.9-2.1-4.5-4.8
			l-1.2-6l27.1-3.6l1.5,7.8C72.8,227.4,70.5,229.2,68.4,229.2z"/>
		<path class="st9" d="M141.2,207.4l-28.4-77.6c-0.6-1.5-2.4-2.4-3.9-1.8s-2.4,2.4-1.8,3.9l28.3,77.6c0.6,1.5,2.1,2.4,3.6,2.1
			c0.3,0,0.3,0,0.6,0C140.9,211,141.8,209.2,141.2,207.4z M-10.7,211.3l-0.3,0.3c-0.6-0.3-1.2-0.3-1.8-0.3c-0.9,0.3-1.5,1.5-0.9,2.7
			l5.7,14.3c0.3,1.2,1.5,1.5,2.4,1.2c0.6-0.3,1.2-0.9,1.2-1.5l16.1-2.1L2.8,202L-10.7,211.3z"/>
	</g>
	<circle class="st0" cx="63" cy="188" r="125"/>
	<g>
		<g>
			<circle class="st1" cx="64.8" cy="188.6" r="100.2"/>
		</g>
	</g>
	<g>
		<path class="st2" d="M66.9,236.3c0,0.3-0.3,0.6-0.6,0.6H54.4c-0.3,0-0.6-0.3-0.6-0.6v-1.5c0-0.3,0.3-0.6,0.6-0.6h11.9
			c0.3,0,0.6,0.3,0.6,0.6V236.3z"/>
	</g>
	<g>
		<path class="st7" d="M61.2,131.9c-0.6,0.6-15.8,14.6-44.7,14.6H6.7v5.4c0,33.4,1.8,53.7,8.4,68.9c7.8,17.9,25.7,26.3,47.7,33.7
			l3.6,0.6V126.8L61.2,131.9z"/>
		<path class="st8" d="M114.6,220.8c6.6-15.2,8.4-35.5,8.4-68.9v-5.4h-9.5c-29.2,0-43.6-14.3-44.2-14.6l-3.9-4.8l0.6-0.3v128.3
			l2.1-0.6C90.7,247.4,107.2,238.7,114.6,220.8z"/>
	</g>
	<g id="_x3C_Group_x3E__1_">
		<polygon class="st9" points="87.2,154.3 41.2,199.9 58.2,199.9 45.1,234.8 92.2,188.9 75.2,188.9 		"/>
	</g>
</g>
<g>
	<g>
		<path class="st0" d="M188,188c0,69-56,125-125,125c-69,0-125-56-125-125C-62,119-6,63,63,63C132,63,188,119,188,188z"/>
	</g>
	<g>
		<g>
			<path class="st1" d="M171.2,188c0,60-48.7,108.7-108.7,108.7C2.5,296.7-46.2,248-46.2,188c0-60,48.7-108.7,108.7-108.7
				C122.5,79.3,171.2,128,171.2,188z"/>
		</g>
	</g>
	<g>
		<path class="st8" d="M73.3,250.5H54.7c-2.2,0-4,1.7-4,3.9c0,2.1,1.8,3.9,4,3.9h18.6c2.2,0,4-1.7,4-3.9
			C77.3,252.2,75.5,250.5,73.3,250.5z"/>
		<path class="st8" d="M78.3,239.5H49.7c-2.2,0-4,1.7-4,3.9c0,2.1,1.8,3.9,4,3.9h28.6c2.2,0,4-1.7,4-3.9
			C82.2,241.2,80.5,239.5,78.3,239.5z"/>
		<g id="Shape_271_1_">
			<path class="st10" d="M110.7,176.4c0-25.7-20.9-46.5-46.7-46.5c-25.8,0-46.7,20.8-46.7,46.5c0,15.2,7.4,28.7,18.7,37.2l0,0
				c3.9,2.7,9.3,9.3,9.3,18.6v3.6h37.4v-3.6c0-8.8,5.2-15.4,8.8-18.2c0,0,0,0,0.1,0c0.2-0.2,0.4-0.4,0.7-0.5l0,0
				C103.4,204.9,110.7,191.5,110.7,176.4z"/>
		</g>
		<g id="Rectangle_14_1_">
			<path class="st11" d="M64,129.9c-0.5,0-1,0-1.5,0v105.9h20.2v-3.6c0-8.8,5.2-15.4,8.8-18.2c0,0,0,0,0.1,0
				c0.2-0.2,0.4-0.4,0.7-0.5l0,0c11.2-8.5,18.5-21.9,18.5-37C110.7,150.7,89.8,129.9,64,129.9z"/>
		</g>
		<g id="Shape_275_1_">
			<rect x="62.5" y="187.1" class="st12" width="3" height="48.8"/>
		</g>
		<g id="Shape_276_1_">
			<ellipse class="st13" cx="64" cy="179.6" rx="7.5" ry="7.5"/>
		</g>
	</g>
</g>
<g>
	<g>
		<path class="st0" d="M188,188c0,69-56,125-125,125c-69,0-125-56-125-125C-62,119-6,63,63,63C132,63,188,119,188,188z"/>
	</g>
	<g>
		<g>
			<path class="st1" d="M171.2,188c0,60-48.7,108.7-108.7,108.7C2.5,296.7-46.2,248-46.2,188c0-60,48.7-108.7,108.7-108.7
				C122.5,79.3,171.2,128,171.2,188z"/>
		</g>
	</g>
	<g>
		<rect x="29.6" y="212.5" class="st3" width="67.1" height="23.6"/>
		<g>
			<rect x="29.1" y="146.4" class="st3" width="69.6" height="59.3"/>
			<g>
				<g>
					<path class="st14" d="M104.8,132.1H23c-4.5,0-8.2,3.7-8.2,8.2v100.2c0,4.5,3.7,8.2,8.2,8.2h81.8c4.5,0,8.2-3.7,8.2-8.2V140.3
						C113,135.8,109.3,132.1,104.8,132.1z M56.4,185.6c-0.4-2.6-0.8-5.5-0.9-8.5h16.6c-0.1,3-0.5,5.9-0.8,8.4
						C66,184.8,60.8,185,56.4,185.6z M57,200.7c-5-1.4-9.5-4.2-12.9-7.9c1.7-0.6,4.9-1.6,9.1-2.4C54.1,194.4,55.3,198,57,200.7z
						 M55.8,173c0.1-3.1,0.3-5.9,0.7-8.5c2.6,0.3,5.4,0.6,8.3,0.6c2.1,0,4.5-0.4,6.7-0.7C71.9,167,72,170,72,173H55.8z M74.6,190.3
						c2.9,0.6,5.8,1.6,8.7,2.9c-3.3,3.6-7.6,6.2-12.5,7.5C72.5,198,73.7,194.4,74.6,190.3z M75.4,186.2c0.4-3,0.7-6,0.8-9.1h14.3
						c-0.4,4.7-2,9.1-4.5,12.8C82.4,188.2,78.9,187,75.4,186.2z M90.4,173H76.1c-0.1-3-0.3-6.1-0.8-9c3.6-0.7,7.2-1.9,10.7-3.7
						C88.5,164,90,168.4,90.4,173z M83.5,157.1c-2.9,1.4-5.8,2.3-8.8,2.9c-0.9-4.2-2.2-7.9-3.8-10.6
						C75.8,150.7,80.1,153.4,83.5,157.1z M63.9,148.5c2.2,0,5,4.5,6.7,12.2c-4.7,0.5-9.3,0.3-13.4-0.2
						C58.9,152.9,61.7,148.5,63.9,148.5z M57,149.4c-1.6,2.7-2.9,6.3-3.8,10.4c-4.3-0.8-7.6-1.8-9.2-2.3
						C47.4,153.6,51.8,150.8,57,149.4z M41.4,160.9c0.7,0.3,5,1.8,11,3c-0.4,2.9-0.7,6-0.8,9.1H37.4
						C37.7,168.6,39.2,164.5,41.4,160.9z M51.7,177.1c0.1,3.1,0.3,6.2,0.8,9.2c-5.8,1.1-9.8,2.7-10.9,3.1c-2.3-3.6-3.8-7.8-4.1-12.3
						H51.7z M40.7,227h-2.3v3.6c0,1.4-0.9,2.3-2.2,2.3c-1.3,0-2.2-0.9-2.2-2.3v-13.8c0-1.4,0.9-2.3,2.3-2.3h4.3
						c3.9,0,6.7,2.6,6.7,6.3C47.3,224.3,44.5,227,40.7,227z M62.4,232.9c-1.1,0-1.8-0.5-2.2-1.6l-0.9-2.8h-5.8l-0.8,2.8
						c-0.3,1-1.1,1.6-2.2,1.6c-1.2,0-2.2-1-2.2-2.1c0-0.5,0.1-0.8,0.2-1l4.9-13.3c0.5-1.4,1.7-2.3,3-2.3c1.4,0,2.5,0.9,3,2.3
						l4.8,13.3c0.2,0.4,0.2,0.8,0.2,1C64.5,232,63.6,232.9,62.4,232.9z M63.9,201.7c-2.2,0-5-4.4-6.7-12c4-0.5,8.6-0.7,13.4-0.1
						C68.9,197.2,66.1,201.7,63.9,201.7z M72.7,232.8c-2.9,0-6.5-1.1-6.5-3c0-1.2,0.9-1.9,2.1-1.9c0.6,0,1.2,0.2,1.9,0.4
						c0.7,0.3,2,0.6,2.8,0.6c1.3,0,2.2-1,2.1-2c-0.1-1.1-1.6-1.7-3.3-2.2c-2.3-0.6-5.2-1.4-5.2-5.1c0-3.5,2.6-5.7,6.3-5.7
						c1.5,0,5.2,0.5,5.2,2.9c0,1.3-0.7,2.1-1.8,2.1c-0.5,0-1.4-0.2-1.9-0.4c-0.5-0.2-1.2-0.4-2-0.4c-0.8,0-1.7,0.4-1.6,1.2
						c0,0.9,1.1,1.3,2.6,1.7c2.4,0.7,6,1.5,6,5.7C79.3,230.5,76.6,232.8,72.7,232.8z M87.7,232.8c-2.9,0-6.4-1.1-6.4-2.9
						c0-1.2,0.7-2,1.9-2c0.6,0,2.1,0.4,2.7,0.6c0.7,0.3,1.5,0.5,2.3,0.5c1.3,0,2-0.7,2.1-1.7c0.1-1.2-1.7-1.8-3.4-2.3
						c-2.3-0.6-5.3-1.6-5.3-5.3c0-3.5,2.5-5.6,6.3-5.6c1.5,0,5.2,0.5,5.2,2.9c0,1.3-0.9,2.1-2.1,2.1c-0.5,0-1-0.2-1.5-0.3
						c-0.5-0.2-1.6-0.5-2.3-0.5c-0.8,0-1.6,0.4-1.6,1.2c-0.1,1.1,1.4,1.5,2.9,2c2.4,0.7,5.9,1.3,5.9,5.5
						C94.4,230.5,91.6,232.8,87.7,232.8z"/>
					<polygon class="st14" points="54.3,225.6 58.5,225.6 56.5,219.2 					"/>
				</g>
				<path class="st14" d="M41.3,218.1h-2.9v5.5h2.9c1.3,0,2.1-1.5,2.1-2.9C43.4,219.4,42.6,218.1,41.3,218.1z"/>
			</g>
		</g>
	</g>
</g>
<g>
	<g>
		<path class="st0" d="M188,188c0,69-56,125-125,125c-69,0-125-56-125-125C-62,119-6,63,63,63C132,63,188,119,188,188z"/>
	</g>
	<g>
		<g>
			<path class="st1" d="M171.2,189.3c0,60-48.7,108.7-108.7,108.7c-60,0-108.7-48.7-108.7-108.7c0-60,48.7-108.7,108.7-108.7
				C122.5,80.6,171.2,129.3,171.2,189.3z"/>
		</g>
	</g>
	<path class="st15" d="M72.3,125.4c0,1-0.9,1.8-2.1,1.8H46.7c-1.2,0-2.1-0.8-2.1-1.8l0,0c0-1,0.9-1.8,2.1-1.8h23.5
		C71.4,123.6,72.3,124.4,72.3,125.4L72.3,125.4z"/>
	<g>
		<path class="st16" d="M111.6,261.8H18.2c-6.4,0-11.6-5.2-11.6-11.6V125.8c0-6.4,5.2-11.6,11.6-11.6h93.3c6.4,0,11.6,5.2,11.6,11.6
			v124.4C123.2,256.6,118,261.8,111.6,261.8z"/>
		<rect x="20" y="129.7" class="st3" width="89.9" height="116.6"/>
		<circle class="st15" cx="63.3" cy="252.4" r="4"/>
		<rect x="42.3" y="141.3" class="st3" width="49" height="3.6"/>
		<rect x="27.2" y="152.9" class="st17" width="28.4" height="3.6"/>
		<rect x="27.2" y="163.3" class="st17" width="52.6" height="3.6"/>
		<rect x="85.7" y="163.3" class="st17" width="15.4" height="3.6"/>
		<rect x="60.8" y="152.9" class="st17" width="14.2" height="3.6"/>
		<rect x="79.8" y="152.9" class="st17" width="21.2" height="3.6"/>
		<rect x="27.2" y="176.9" class="st17" width="28.4" height="3.6"/>
		<rect x="27.2" y="187.4" class="st17" width="52.6" height="3.6"/>
		<rect x="85.7" y="187.4" class="st17" width="15.4" height="3.6"/>
		<rect x="60.8" y="176.9" class="st17" width="14.2" height="3.6"/>
		<rect x="83.1" y="176.9" class="st17" width="21.2" height="3.6"/>
		<rect x="27.2" y="201" class="st17" width="28.4" height="3.6"/>
		<rect x="27.2" y="211.4" class="st17" width="52.6" height="3.6"/>
		<rect x="85.7" y="211.4" class="st17" width="15.4" height="3.6"/>
		<rect x="60.8" y="201" class="st17" width="14.2" height="3.6"/>
		<rect x="79.8" y="201" class="st17" width="21.2" height="3.6"/>
		<g>
			<circle class="st18" cx="33" cy="200.8" r="28.1"/>
			<circle class="st19" cx="33" cy="200.8" r="28.1"/>
			<path class="st20" d="M35.1,175.9c-13.8-1.1-25.8,9.1-26.9,22.9C7,212.5,17.3,224.6,31,225.7c13.8,1.1,25.8-9.1,26.9-22.9
				C59.1,189.1,48.8,177,35.1,175.9z"/>
			<path class="st3" d="M-5.2,225.5c-1.4,1.2-1,3.8,0.8,5.9l0,0c1.8,2.1,4.3,2.9,5.7,1.7l13.3-8.9c1.4-1.2-6.2-3.8-8-5.9l0,0
				c-1.8-2.1,2.9-5.3,1.5-4.1L-5.2,225.5z"/>
			<path class="st16" d="M-38.9,251c-2.6,2.2-2.6,6.5,0.1,9.6l0,0c2.6,3.1,6.9,3.8,9.5,1.6l25.5-21.6c2.6-2.2,2.6-6.5-0.1-9.6l0,0
				c-2.6-3.1-6.9-3.8-9.5-1.6L-38.9,251z"/>
			<path class="st21" d="M-4,231"/>
			
				<ellipse transform="matrix(-0.7714 0.6363 -0.6363 -0.7714 112.9483 446.3969)" class="st22" cx="-23.7" cy="243.5" rx="19.4" ry="1.5"/>
		</g>
		<path class="st3" d="M12.1,203.1c-1,0-1.8-1.6-1.5-3.5c1.5-9.2,8.8-16.6,18.1-18.1c1.9-0.3,3.5,0.5,3.5,1.5c0,1-1.6,1.7-3.5,2.1
			c-7.3,1.4-13.1,7.2-14.5,14.5C13.8,201.6,13,203.1,12.1,203.1z"/>
	</g>
</g>
</svg>
