<?xml version="1.0" encoding="utf-8"?>
<!-- Generator: Adobe Illustrator 18.1.1, SVG Export Plug-In . SVG Version: 6.00 Build 0)  -->
<!DOCTYPE svg PUBLIC "-//W3C//DTD SVG 1.1//EN" "http://www.w3.org/Graphics/SVG/1.1/DTD/svg11.dtd">
<svg version="1.1" id="Layer_1" xmlns="http://www.w3.org/2000/svg" xmlns:xlink="http://www.w3.org/1999/xlink" x="0px" y="0px"
	 width="83.8px" height="83.8px" viewBox="0 0 83.8 83.8" style="enable-background:new 0 0 83.8 83.8;" xml:space="preserve">
<style type="text/css">
	.st0{fill:#F2F2F2;}
	.st1{fill:#656D77;}
	.st2{fill:#404040;}
	.st3{fill:#FFFFFF;}
	.st4{fill:#EAC95D;}
	.st5{fill:#FBD764;}
	.st6{fill:#11D1AC;}
</style>
<g>
	<circle class="st0" cx="41.9" cy="41.9" r="41.9"/>
	<g>
		<g>
			<g>
				<circle class="st1" cx="42.5" cy="42.1" r="33.6"/>
			</g>
		</g>
		<g>
			<path class="st2" d="M43.2,58.1c0,0.1-0.1,0.2-0.2,0.2h-4c-0.1,0-0.2-0.1-0.2-0.2v-0.5c0-0.1,0.1-0.2,0.2-0.2h4
				c0.1,0,0.2,0.1,0.2,0.2V58.1z"/>
		</g>
		<g>
			<g>
				<g>
					<g>
						<path class="st2" d="M57.1,63.6c0,2-1.7,3.7-3.7,3.7H31.1c-2,0-3.7-1.7-3.7-3.7V19.5c0-2,1.7-3.7,3.7-3.7h22.3
							c2,0,3.7,1.7,3.7,3.7V63.6z"/>
					</g>
					<rect x="29.2" y="23.2" class="st3" width="26" height="36.6"/>
					<g>
						<rect x="40.4" y="19" class="st1" width="3.7" height="0.9"/>
					</g>
				</g>
			</g>
			<g>
				<g>
					<path class="st4" d="M49.7,36.2c2.1,0,3.7-1.7,3.7-3.7h-7.4C45.9,34.6,47.6,36.2,49.7,36.2z"/>
				</g>
				<g>
					<path class="st4" d="M34.8,36.2c2.1,0,3.7-1.7,3.7-3.7h-7.4C31.1,34.6,32.7,36.2,34.8,36.2z"/>
				</g>
				<g>
					<path class="st4" d="M27.3,36.2c2.1,0,3.7-1.7,3.7-3.7h-7.4C23.6,34.6,25.3,36.2,27.3,36.2z"/>
				</g>
				<g>
					<path class="st4" d="M42.2,36.2c2.1,0,3.7-1.7,3.7-3.7h-7.4C38.5,34.6,40.2,36.2,42.2,36.2z"/>
				</g>
				<g>
					<path class="st4" d="M53.4,32.5c0,2.1,1.7,3.7,3.7,3.7c2.1,0,3.7-1.7,3.7-3.7H53.4z"/>
				</g>
			</g>
			<g>
				<polygon class="st5" points="55.2,23.2 29.2,23.2 23.6,32.5 60.8,32.5 				"/>
			</g>
			<g>
				<circle class="st6" cx="42.2" cy="45.5" r="7.4"/>
			</g>
			<g>
				
					<rect x="41.7" y="40.3" transform="matrix(0.7071 0.7071 -0.7071 0.7071 44.5606 -16.5126)" class="st3" width="0.9" height="10.5"/>
			</g>
			<g>
				<path class="st3" d="M44.7,49.7C43.8,49.7,43,49,43,48c0-0.9,0.8-1.7,1.7-1.7c0.9,0,1.7,0.8,1.7,1.7
					C46.4,49,45.6,49.7,44.7,49.7z M44.7,47.2c-0.4,0-0.8,0.3-0.8,0.8c0,0.4,0.3,0.8,0.8,0.8c0.4,0,0.8-0.3,0.8-0.8
					C45.5,47.6,45.1,47.2,44.7,47.2z"/>
			</g>
			<g>
				<path class="st3" d="M39.7,44.8c-0.9,0-1.7-0.8-1.7-1.7c0-0.9,0.8-1.7,1.7-1.7c0.9,0,1.7,0.8,1.7,1.7
					C41.4,44,40.7,44.8,39.7,44.8z M39.7,42.3c-0.4,0-0.8,0.3-0.8,0.8c0,0.4,0.3,0.8,0.8,0.8c0.4,0,0.8-0.3,0.8-0.8
					C40.5,42.6,40.2,42.3,39.7,42.3z"/>
			</g>
		</g>
	</g>
</g>
</svg>
